<svg xmlns="http://www.w3.org/2000/svg" id="business-location" enable-background="new 0 0 3000 3000" viewBox="0 0 3000 3000"><path fill="#dbc6ce" d="M1262.52 1844.88c-5.48-.03-10.31 3.9-14.56 7.59-30.78 26.82-61.57 53.64-92.36 80.46-5.72 4.98-12.79 10.33-19.87 8.51-4.57-1.17-7.73-5.11-10.24-9.04-8.57-13.43-13.21-29.23-22.25-42.33-9.04-13.1-24.86-23.58-40.8-19.24-14.79 4.02-24.14 19.06-29.4 33.48-5.26 14.42-8.36 30.03-17.87 42.26-4.21 5.42-10.7 10.3-17.23 9.02-3.9-.77-6.93-3.59-9.72-6.34-17.45-17.2-33.58-36.11-54.12-49.62-10.67-7.02-23.22-12.63-36.27-10.96-13.06 1.67-26.02 12.88-25.62 25.91.46 15.52 17.61 32 6.31 43.33-8.6 8.62-22.13 1.16-32.69-3.78-27.8-13.01-65.73-1.63-83.46 25.03-17.73 26.66-12.91 65.06 10.6 84.53 4.15 3.43 9.19 6.42 14.72 5.95 6.03-.5 11.08-4.92 15.56-9.18 8.12-7.71 16.22-15.83 26.25-20.72 10.03-4.86 22.63-5.86 31.14.57 14.97 11.33 8.5 35.48.02 53.15-8.49 17.69-17.21 40.39-4.49 54.19 10.69 11.61 30.74 8.65 44.88 0 14.14-8.65 25.27-21.74 39.44-30.3 12.53-7.55 30.95-10.09 38.86 1.41 7.99 11.6-.55 27.87-9.45 39.68-8.9 11.8-18.95 26.46-13.51 39.53 3.75 8.99 13.58 13.4 22.62 17.06 32.57 13.18 70.77 26.09 102.74 8.39 10.43-5.77 21.14-14.9 32.38-12.28 5.49 1.28 9.81 5.26 13.36 9.51 9.76 11.72 15.38 26.36 23.79 39.1 8.42 12.74 21.21 24.19 36.85 24.25 17.22.06 32.02-13.49 42.8-27.45 17.27-22.36 29.82-48.24 49.31-68.73 16.11-16.94 39.48-29.77 61.38-28.19 2.58 1.74 5.64 2.17 8.77 1.62l-3.01-.84c1.13.22 2.27.45 3.4.76 7.67-1.54 15.47-8.87 16.71-17.13 1.88-12.47-5.51-23.8-12.69-33.71a1441.802 1441.802 0 0 0-43.03-56.34c-6.81-8.46-13.95-17.35-15.72-28.22-1.28-7.77.32-15.82 2.02-23.65 6.13-28.26 13.73-56.82 12.06-85.31-1.67-28.48-14.63-57.63-39.98-69.79-2.38-1.13-4.93-2.12-7.63-2.14z"/><path fill="#fff" d="M769.29 2032.09s-13.02-65.47 57.65-72.56c0 0-43.37 15.97-48.67 55.76-5.29 39.78-8.98 16.8-8.98 16.8zM890.89 1929.81s20.28-34.04 48.82-6.24c.01-.01-62.82-51.87-48.82 6.24zM866.54 2112.66s10.66 38.16 45.49 18.81c-.01 0-74.22 33.6-45.49-18.81zM1043.4 1916.38s10.16-36.89 30.2-29.72c20.04 7.17 34.97 47.11 34.97 47.11s-19.59-33.07-36.49-30.07c-16.89 3-2.59 25.15-28.68 12.68zM971.51 2163.65s-16.23 34.65 3.67 42.22c19.9 7.56 57.18-13.12 57.18-13.12s-36.37 12.42-47.27-.83c-10.9-13.26 14.36-20.82-13.58-28.27zM1166.69 2232.47s-4.65 37.98 16.61 38.99c21.26 1 50.28-30.24 50.28-30.24s-30.71 23.11-45.19 13.9c-14.49-9.22 7.17-24.25-21.7-22.65zM1193.56 1920.63c-2.28-2.42 57.07-56.89 57.07-56.89s44.84-4.53 40.38 57.12c0 0-10.71-43.42-36.35-42.34 0 .01-28.92 76.39-61.1 42.11z" opacity=".1"/><path fill="#dfdfdf" d="m1904.5 2618.34-434.67 92.73-563.97-92.99-628.52 93.75c341.95-163.27 474.55-350.32 474.55-350.32s111.98 28.08 303.91-85.84l9.56-4.4 401.88 128.61 364.19-89.6 364.84 71.82 180.07-100.42 346.33 261.82-403.29 168.33-414.88-93.49z"/><path fill="#e3e0e1" d="m365.82 2683.51 539.94-92.9 563.42 92.9 435.47-92.9 412.25 92.9 333.86-139.35s-149.51-118.27-277.25-234.4l-172.74 100.85-368.7-72.58-365.8 90-399.15-127.74s-222.13 119.79-304.87 84.95c.01 0-13.37 115.37-396.43 298.27z"/><path fill="#f6f6f6" d="M885.64 2414.27c-10.58-14.14-85.64-13.06-90 21.77-4.36 34.84-82.74 40.65-63.87 65.32 18.87 24.68 79.84-23.23 110.32 0 30.48 23.22 72-21.79 116.56-21.78 44.56.01 103.68 87.1 126.38 60.97 22.7-26.13 125.76 36.29 85.12-37.74s-39.19-81.29-37.74-121.93c1.45-40.65-52.26-24.64-87.09-5.81-34.84 18.84-136.16 70.63-159.68 39.2z"/><path fill="#dfdfdf" d="M1206.44 2562.33c20.32-14.52 34.84-45.38 55.16-16.88 20.32 28.5 34.84 16.88 34.84 34.3 0 17.42-50.81 4.36-69.68 0-18.86-4.36-20.32-17.42-20.32-17.42z"/><path fill="#f6f6f6" d="M1315.31 2467.98c43.55 37.74 37.48 28.97 94.35 42.8 56.87 13.83 20.95-2.9 88.14-21.4 67.18-18.5 170.25-76.56 61.38-59.14s-139.35 10.98-159.67-3.22c-20.32-14.2-37.74-1.77-75.48 0-37.75 1.76-8.72 40.96-8.72 40.96zM1782.72 2561.17c40.64-26.42 105.97-56.94 139.35-50.39 33.39 6.55 17.42.74 124.84 5.09 107.42 4.36 140.8 6.52 200.32-19.24 59.52-25.76 62.42-31.56 87.09-66.4 24.68-34.84 97.46-55.16 24.78-45-72.68 10.16-59.62 12.05-129.29 35.06-69.68 23.01-40.65 48.98-116.13 30.19-75.48-18.79-98.71 1.53-150.97-23.15-52.26-24.68-104.41-35.09-116.07-38.59-11.67-3.5-84.25 24.08-116.18 40.04-31.94 15.97-86.37 79.8-123.75 82-37.38 2.2-48.99-1.09-54.8 34.67-5.81 35.75-32.66 98.17 54.8 51.72s96.17-116.13 129.55-81.29c33.4 34.84 46.46 45.29 46.46 45.29z"/><path fill="#1b2e36" d="m2650.76 2544.14-333.86 139.38-116.11-272.93 172.74-100.83c127.72 116.11 277.23 234.38 277.23 234.38zM1067.12 2300.28l-177.28 293.08-524.01 90.16c383.04-182.9 396.42-298.3 396.42-298.3 82.75 34.86 304.87-84.94 304.87-84.94zM1904.66 2590.61l-435.47 92.91-4.27-255.93 1.36.44 365.8-89.99z" opacity=".15"/><path fill="#dbc6ce" d="M1554.23 2259.65c34.4 13.42 72.43 27.79 110.78 21.7 43.56-6.9 77.38-34.37 114.23-55.82 41.06-23.91 87.17-32.07 132.49-17.69 42.7 13.56 120 65.75 117.1 63.52-31.27-24.06-63.28-48.76-100.82-63.57-39.92-15.76-81.08-17.17-122.12-1.46-42.67 16.33-75.88 49.58-119.43 64.22-45 15.13-89.31-.18-130.57-16.27-3.45-1.36-5.07 4.04-1.66 5.37z"/><path fill="#e3e0e1" d="M1815.59 2255.4s-1.35.26-3.61.4c-8.84.68-32.13-.13-42.08-24.71-.61-1.7-1.27-3.56-1.87-5.53l-.53-2.07.17-.04c-9.45-30.55 13.27-45.32 21.05-49.45l2.53-1.18 1.77 3.44c.19.39.38.79.49 1.2 8.37 18.45.38 31.02-8.81 38.6-3.2 2.68-6.55 4.78-9.34 6.29 2.7-.16 5.94-.29 9.39.06 12.74 1.05 28.23 7.32 30.57 30.5.18.75.23 1.62.27 2.49zM1826.33 2204.93s.18-.07.31-.11c2.9 37.38 39.75 37.69 39.75 37.69 5.09-32.77-20.83-39.29-33.43-40.54 11.48-6.02 32.34-21.56 16.35-49.77.01-.01-36.39 14.47-22.98 52.73zM1908.99 2253.12l-2.25-1.54c-6.7-4.73-25.23-21.09-13.12-48.26.51-1.1 1.11-2.23 1.68-3.44-.04-.52-.01-1.06.03-1.6l-.02-.08c.41-25.57 18.36-35.49 28.85-39.07 2.03-.7 3.69-1.13 5.02-1.47 1.43-.28 2.28-.41 2.28-.41.13.5.28 1.08.32 1.6 6.06 27.35-12.89 37.89-25.76 41.82-1.47.47-2.8.81-4.04 1.13 1.75 1.32 3.74 2.84 5.74 4.8l.02.08c8.88 8.41 17.46 22.83 4.34 42.29l-3.09 4.15zM1973.77 2267.13l-2.44-.88c-5.5-2.12-18.92-8.92-22.84-24.18-1.32-5.14-1.55-11.18-.02-18.3-.02-.08-.04-.17.02-.27 0-.35.12-.56.2-.94.18-.67.2-1.29.44-2.06.2-.94.49-1.89.71-2.75 9.01-31.32 41.21-28.82 41.21-28.82 0 .35-.02.62-.04.89-.01 1.68-.04 3.28-.28 4.76-2.26 21.8-18.83 27.48-30.54 28.72-.85.13-1.62.24-2.41.27 5.81 2.66 13.11 7.32 17.13 14.69 3.34 6.12 4.42 14.07.69 24.31l.02.08-1.85 4.48zM2000.91 2305.94l-1.34-1.42c-.13-.14-.25-.29-.29-.45-5.28-6.07-19.27-26.43 2.04-50.12.14-.13.21-.23.35-.36.14-.83.36-1.68.52-2.43 6.71-27.54 30.59-30.59 38.83-30.86 1.77-.01 2.85.06 2.85.06-.02.98-.03 1.95-.13 2.95-1.2 27.98-24.64 31.71-36.1 31.84-1.5.03-2.82.02-3.82-.08.36.35.71.7 1.19 1.2 0 0 .02.08.13.14 6.86 7.43 20.75 27.02-.45 46.36-.21.23-.5.48-.7.71l-3.08 2.46z"/><path fill="#e3e0e1" d="M2022.05 2265.77c-10 36.85 24.67 46.56 24.67 46.56 17.39-37.08-24.67-46.56-24.67-46.56z"/><path fill="#f6f6f6" d="M2029.18 2234.04s7.66-6.3 11.85-13.75c1.77-.01 2.85.06 2.85.06-.02.98-.03 1.95-.13 2.95l-13.76 10.44-.81.3zM1815.59 2255.4s-1.35.26-3.61.4c-4.82-6.72-12.13-12.09-13.19-12.78l.75.16 15.77 9.74c.19.74.24 1.61.28 2.48zM1784.62 2195.46s4.86-11.56 4.14-21.44l2.5-1.18 2.28 4.49-8.33 17.5-.59.63zM1852.24 2223.81s8.61 9.02 11.41 18.5l2.74.19.55-5.03-13.93-13.29-.77-.37zM1842.68 2174.81s4.86-11.56 4.14-21.44l2.49-1.18 2.28 4.49-8.33 17.49-.58.64zM1906.63 2229.91s2.65 12.03.08 21.71l2.25 1.48 3.09-4.15-4.96-18.33-.46-.71zM1921.88 2170.23c.66-.88 4.61-6.14 7.29-12.57 1.43-.28 2.28-.41 2.28-.41.13.5.28 1.08.32 1.6l-9.27 11.05-.62.33zM1966.18 2246.8s5.25 10.23 5.2 19.46l2.39.84 1.83-4.4-8.84-15.37-.58-.53zM1979.73 2202.65s6.94-5.68 11.29-12.81c-.01 1.68-.04 3.28-.28 4.76l-10.29 7.78-.72.27zM2004.14 2284.39s-.37 11.5-4.88 19.77l1.68 1.81 3.73-3.13-.28-17.72-.25-.73zM2039.13 2292.03s5.25 10.23 5.2 19.46l2.39.84 1.83-4.39-8.84-15.38-.58-.53z"/><path fill="#dbc6ce" d="M2152.68 1932.41s-107.59 94.11-135.31 155.22c-27.68 60.98-81.49 93.67-81.49 93.67l-61.63-16.28 16.09 60.11c-108.19 70.31-236.7 21.33-267.42 7.77-4.5-1.95-6.9-3.11-6.9-3.11-38.95-154.36 155.05-227.51 284.66-280.11 129.43-52.51 252-17.27 252-17.27z"/><path fill="#594a42" d="m2014.71 1977.88-125.39 102.01-23.83-15.95-17.74 25.37s-170.64 73.95-225.69 143.13l57.14-54.25 97.97-73.29 82.32-49.85c.02-.01 106.08-58.19 155.22-77.17z" opacity=".2"/><path fill="#fff" d="M2152.68 1932.41s-107.59 94.11-135.31 155.22c-27.68 60.98-81.49 93.67-81.49 93.67l-61.63-16.28 16.09 60.11c-108.19 70.31-236.7 21.33-267.42 7.77 3.86-.87 6.48-1.3 6.48-1.3 196.9 13.37 215.43-40.38 215.43-40.38l.45-77.33 59.87 7.31s53.16-42.56 79.93-90.43c26.73-47.74 167.6-98.36 167.6-98.36z" opacity=".1"/><path fill="#f6f6f6" d="M2014.54 1977.43c-74.1 30.63-145.63 67.44-213.99 109.49-67.8 42.7-133.34 90.61-187.17 150.91l-10.18 11.19c-3.43 3.7-6.22 7.95-9.36 11.9l-18.35 24.14c-11.11 16.72-22.5 33.26-33.18 50.26-8.98 14.12-17.67 28.42-26.29 42.75 2.15 2.11 4.33 4.18 6.55 6.21 8.9-14.85 17.9-29.64 27.18-44.26 10.4-17.08 21.5-33.71 32.34-50.51l17.7-23.95c3.04-3.93 5.71-8.14 9.04-11.84l9.89-11.18c52.45-60.11 117.13-108.57 184.21-151.85 67.49-42.91 138.4-80.74 211.95-112.43l-.34-.83z"/><path fill="#e3e0e1" d="M864.3 1807.09s92.46 89.89 114.53 146.25c22.04 56.25 68.97 88.25 68.97 88.25l56.29-11.74-17.35 53.39c94.13 68.47 212.23 30.45 240.54 19.69 4.15-1.55 6.37-2.48 6.37-2.48 42.42-137.21-128.89-212.32-243.15-265.85-114.12-53.45-226.2-27.51-226.2-27.51z"/><path fill="#594a42" d="m986.43 1854.59 108.12 97.85 22.22-13.24 14.78 23.7s150.21 74.72 196.52 139.65l-48.91-51.58-84.79-70.67-71.8-48.82c.02-.01-92.77-57.46-136.14-76.89z" opacity=".2"/><path fill="#fff" d="M864.3 1807.09s92.46 89.89 114.53 146.25c22.04 56.25 68.97 88.25 68.97 88.25l56.29-11.74-17.35 53.39c94.13 68.47 212.23 30.45 240.54 19.69-3.44-.97-5.78-1.48-5.78-1.48-178.02 2.7-192.16-46.6-192.16-46.6l3.26-69.68-54.28 3.74s-45.87-40.86-67.72-85.26c-21.8-44.28-146.3-96.56-146.3-96.56z" opacity=".1"/><path fill="#f6f6f6" d="M986.6 1854.2c65.3 31.11 127.99 67.66 187.58 108.79 59.05 41.68 115.82 87.95 161.46 144.83l8.64 10.56c2.92 3.49 5.23 7.45 7.87 11.16l15.39 22.61c9.21 15.59 18.69 31.03 27.5 46.85 7.42 13.15 14.57 26.44 21.66 39.76-2.04 1.8-4.1 3.56-6.2 5.28-7.32-13.8-14.72-27.55-22.38-41.16-8.56-15.88-17.77-31.39-26.73-47.04l-14.81-22.42c-2.55-3.68-4.75-7.61-7.59-11.09l-8.38-10.54c-44.4-56.64-100.36-103.37-158.74-145.54-58.77-41.86-120.85-79.3-185.6-111.34l.33-.71z"/><path fill="#e3e0e1" d="M850.81 2257.94c-13.67 26.07-35.02 33.54-54.38 29.6-19.33-4.96-42.32-16.75-53.52-32.26-11.58-13.96 8.69-46.32 55.02-54.81 47.19-7.24 67.75 31.78 52.88 57.47zM2071.84 1848.05c-10.97 20.92-28.1 26.91-43.63 23.75-15.51-3.98-33.95-13.44-42.94-25.88-9.29-11.2 6.98-37.16 44.14-43.98 37.87-5.81 54.36 25.5 42.43 46.11z"/><path fill="#ffbf9f" d="m1567.06 553.89 112.3 237.37s32.67-313.53 101.7-291.09c100.21 32.58-1 451.77-90.89 444.32-130.71-10.83-123.11-390.6-123.11-390.6z"/><path fill="#ef8984" d="M1791.34 434.75s-40.76 3.15-36.72 15.04c4.04 11.88 30.09 6.9 30.09 6.9l6.63-21.94z"/><path fill="#e36247" d="M2197.75 1099.21c0-388.99-315.42-704.41-704.25-704.41-389.15 0-704.4 315.42-704.4 704.41 0 0-63.76 420.22 702.63 1386.71l1.94-2.26c653.75-828.31 705.37-1231.34 703.12-1347.66.64-12.26.96-24.53.96-36.79zm-705.86 365.27c-178.12 0-326.23-128.27-356.88-297.35-4.03-21.13-5.97-43.08-5.97-65.34 0-46.3 8.71-90.35 24.52-131.01C1206 835.1 1337.81 739.1 1491.89 739.1c200.22 0 362.69 162.31 362.69 362.69 0 200.22-162.47 362.69-362.69 362.69z"/><path fill="#ae3b2a" d="M2197.75 1099.17c0-234.97-115.15-442.92-291.97-570.88 60.94 91.65 106.58 194.78 121.27 304.23 8.42 62.78 6.34 126.81-7.55 188.66a533.304 533.304 0 0 1-30.57 94.26c-11.17 25.9-24.14 50.79-42.39 72.46-35.19 41.76-81.96 66.84-132.72 80.77-60.4 116.31-181.86 195.8-321.99 195.8-99.56 0-189.72-40.13-255.26-105.06-.78 9.04-2.04 18.01-4.97 26.79-4.7 14.07-12.15 25.35-25.22 32.58-10.78 5.97-23.23 8.31-34.99 11.53-11.18 3.06-22.82 7.15-28.93 17.71-7.49 12.93-12.12 27.63-14.17 42.39-8.85 63.68 17.65 126.67 17.39 190.31-.2 48.39-22.46 99.03-55.84 133.93-12.35 12.91-26.83 23.09-42.54 30.81 103.07 177.06 246.14 389.29 444.45 640.52l1.84-2.29c653.88-828.33 705.41-1231.28 703.2-1347.72.66-12.25.96-24.49.96-36.8z" opacity=".35"/><path fill="#1b2e36" d="M1291.28 1111.23c-46.93 105.98-70.22 186.38-33.57 262.81 16.65 34.72 156 109.82 273.72 100.57 307.34-24.13 225.37-15.4 294.97-27.56 69.6-12.16 44.17-219.32-1.23-266.66-45.4-47.34-143.71-78.69-147.09-113.75-138.59 57.9-246.21 66.71-386.8 44.59z"/><path fill="#1b2e36" d="M1562.74 1460.75s113.99 14.58 189.43-21.9c75.44-36.48 123.66-102.07 83.71-138.4-39.95-36.33 11.81-70.07-114.83-84.5-126.63-14.43-203.55 30.65-244.67 28.69-41.13-1.96-52.92 69.33-61.99 103.79-9.07 34.46 74.42 142.64 148.35 112.32z"/><path fill="#ef8984" d="M1877.9 1261.7s-129.12-42.67-173.76-10.44c-44.65 32.23-133.26 217.75 41.74 212.73 175.01-5.02 132.02-202.29 132.02-202.29z"/><path fill="#ef8984" d="M1708.11 1268.66s-164.7-29.82-209.34 2.42c-44.65 32.23-97.68 204.9 77.33 199.88 175-5.02 132.01-202.3 132.01-202.3z"/><path fill="#ff9c92" d="M1555.15 1338.39c-36.42 141.02 178.12 554.04 178.12 554.04l32.73-1.98s-28.96-436.01-41.72-567.75c-12.77-131.73-156.79-32.12-169.13 15.69z"/><path fill="#33133f" d="M1735.58 1795c7.88-2.59 15.72-4.16 23.65-4.75-8.4-122.96-22.75-328.24-32.02-435.18-32.14 4.71-62.76 19.08-72.95 49.68-6.89 20.67-8.25 43.64-10.75 65.19-1.88 16.18-3.28 32.42-4.87 48.63-3.69 37.59-7.84 75.19-14.81 112.34-.86 4.55-1.76 9.15-2.72 13.78 24.89 63.33 51.93 123.31 73.25 168.46 13.22-7.52 27.35-13.6 41.22-18.15z" opacity=".15"/><path fill="#ff9c92" d="m1834.35 1955.84-65.7-63.03-13.66-57.15s-47.28-19.42-46.79-17.71c19.55 67.52 21.17 89.19 15.76 100.16-5.41 10.97 100.97 82.92 110.39 37.73z"/><path fill="#1b2e36" d="M1827.6 1947.91s-2.66 13.88-22.89 8.76c-20.23-5.12-67.45-48.18-79.33-42.11-11.87 6.07 20.84 87.76 20.84 87.76l9.76-4.81-4.21-36.72s24.92 12.42 35.1 25.55c10.18 13.12 31.75 37.14 69.87 16.93 38.13-20.2-29.14-55.36-29.14-55.36z"/><path fill="#ff9c92" d="M1931.89 1332.63c-7.42 167.54-284.29 607.61-284.29 607.61l-23.22-7.49s14.3-529.81 138.94-625.29c124.64-95.47 170.45-17.4 168.57 25.17z"/><path fill="#ff9c92" d="m1666.64 2015.51-18.61-77.05 16.8-48.33s-25.56-36.43-26-34.94c-17.35 58.69-26.33 75.34-35.44 80.84-9.12 5.52 35.13 108.19 63.25 79.48z"/><path fill="#1b2e36" d="M1665.41 2006.53s-8.47 8.93-20.9-4.31c-12.43-13.24-26.86-66.99-38.42-68.11-11.55-1.12-25.9 74.14-25.9 74.14l9.42 1.05 14.14-28.9s12.45 20.8 13.76 35.2c1.31 14.4 5.85 42.13 43.3 45.21 37.44 3.06 4.6-54.28 4.6-54.28zM1515.2 595.1c42.8-12.92 67.91-51.99 91.2-55.59 23.29-3.61 75-31.34 92.55-81.75 14.71-42.08-5.48-57.51-60.24-92.13-19.87-12.55-29.79-22.71-37-31.6-12.73-15.63-17.22-27.43-53.12-41.59-56.3-22.18-62.65 49.07-133.28 55.36-77.75 6.88-129.37 32.57-158.85 65.99-34.66 39.27-38.69 89.33-18.57 132.34 37.32 79.66 77.16 71.13 141.37 32.66 64.17-38.46 93.11 29.19 135.94 16.31z"/><path fill="#ffbf9f" d="M1526.98 528.28s131.51 203.43 176.63 279.03c35.97 49.14 55.62 137.28-13.44 137.18-57.24-.07-176.28-308.34-163.19-416.21z"/><path fill="#1b2e36" d="M1611 783.34c11.08-26.11 21.44-52.52 28.08-79.88-52.66-83.23-112.1-175.18-112.1-175.18-7.19 59.28 20.84 178.43 57 272.86 8.11-6.87 17.31-12.83 27.02-17.8z" opacity=".1"/><path fill="#ffbf9f" d="M1494.22 517.61c-156.84.12-276.35 491.44-202.94 593.62 59.29 82.51 341.63 60.68 408.84-9.46-41.63-212.95-115.73-584.22-205.9-584.16z"/><path fill="#1b2e36" d="M1438.51 1137.69c-46.77-25.96-81.4-82.32-68.3-136.44 6.34-26.19 21.41-49.18 28.39-75.15 4.02-14.94 4.46-30.2.43-45.18-4.44-16.5-12.36-32.53-12.76-49.9-.44-18.92 5.27-37.47 5.74-56.35.34-13.55-3.6-26.26-10.09-38.05-10.32-18.73-27.77-32.88-47.12-41.6-61.89 151.58-87.78 354.61-43.52 416.21 32.22 44.85 130.34 58.82 224 51.01-26.81-4.02-52.88-11.29-76.77-24.55z" opacity=".1"/><path fill="#ff9c92" d="m1493.21 480.15-26.44 50.36s10.31 64.58 54.6 49.17c20.95-7.29 16.35-84.21 16.35-84.21l-44.51-15.32z"/><path fill="#ef8984" d="M1520.59 540.54c-4.14 1.31 1.59-8.83-.69-12.86-1.8-3.19-5.03-4.84-8.46-5.71-3.8-.96-7.78-.95-11.53-2.15-3.33-1.06-6.45-2.75-8.97-5.2-3.9-3.81-5.93-8.93-7.11-14.19l9.38-20.27 44.51 15.32c0-.02-2.68 40.49-17.13 45.06z"/><path fill="#ff9c92" d="M1450.06 444.55c1.41-15.61 21.18-9.57 21.18-9.57s-20.05-16.2-8.83-50.31 104.89-52.45 122.15-6.93c7.9 20.84 20.2 96.1-19 121.63-39.2 25.54-46.73 10.65-68.09-2.51-18.38-11.32-19.95-24.97-19.95-24.97s-29.91-.3-27.46-27.34z"/><path fill="#1b2e36" d="M1601.05 394.86s-64.69 8.76-103.14-12.4c7.71 31.44-7.73 64.38-17.52 65.2-9.78.82-26.3-28-26.3-28s-26.71-74.07 51.77-98.65c55.19-17.28 112.7 27.85 95.19 73.85zM1458.72 451.78c-.4 0-.77-.24-.93-.63-3.4-8.69 5.3-13.84 5.39-13.89a.995.995 0 0 1 1.36.36c.27.47.11 1.08-.36 1.36-.3.17-7.3 4.35-4.53 11.44a.996.996 0 0 1-.93 1.36z"/><path fill="#ef8984" d="M1495.23 454.98c-.62 3.69 3.4 7.45 8.99 8.39 5.59.94 10.62-1.29 11.24-4.98.62-3.69-3.4-7.45-8.99-8.39-5.58-.94-10.61 1.29-11.24 4.98zM1526.25 489.39c-.62 3.69 3.4 7.45 8.99 8.39 5.59.94 10.62-1.29 11.24-4.98.62-3.69-3.4-7.45-8.99-8.39-5.58-.94-10.62 1.29-11.24 4.98zM1558.85 458.27c-.62 3.69 3.4 7.45 8.99 8.39 5.59.94 10.62-1.29 11.24-4.98.62-3.69-3.4-7.45-8.99-8.39-5.58-.94-10.62 1.29-11.24 4.98z"/><path fill="#1b2e36" d="M1543.34 459.98c.54 0 1.07-.08 1.59-.23 3.31-.96 4.71-4.69 4.77-4.85.17-.46.11-.98-.16-1.39-5.6-8.6-4.11-20.22-4.1-20.33.11-.86-.48-1.64-1.34-1.76-.88-.12-1.64.48-1.76 1.34-.07.51-1.57 12.27 4.11 21.72-.45.82-1.29 1.96-2.42 2.28-1.05.3-2.34-.12-3.82-1.24a1.57 1.57 0 0 0-2.19.29c-.53.69-.39 1.66.29 2.19 1.75 1.31 3.43 1.98 5.03 1.98z"/><path fill="#eaefee" d="M1561.05 480.32s-17.81 8.07-37.77-1.21c-4.53 8.29 19.12 29.89 37.77 1.21z"/><path fill="#1b2e36" d="M1522.49 428.31c0 4.88-2.68 8.81-6.01 8.81s-6.01-3.93-6.01-8.81c0-4.84 2.68-8.81 6.01-8.81 1.47 0 2.84.76 3.89 2.08-1.17.3-2 1.32-2 2.53 0 1.47 1.17 2.65 2.65 2.65.49 0 .95-.11 1.32-.38.11.6.15 1.29.15 1.93zM1532.72 413.6s-26.59-1.34-29.27-3.96c-2.68-2.62 5.65-8.14 17.37-5.18 11.73 2.97 14.95 9.05 11.9 9.14zM1573.08 428.31c0 4.88-2.69 8.81-6.01 8.81-3.33 0-6.01-3.93-6.01-8.81 0-4.84 2.69-8.81 6.01-8.81 1.47 0 2.84.76 3.89 2.08-1.17.3-2 1.32-2 2.53 0 1.47 1.17 2.65 2.65 2.65.49 0 .94-.11 1.32-.38.11.6.15 1.29.15 1.93zM1583.31 413.6s-26.59-1.34-29.27-3.96c-2.68-2.62 5.65-8.14 17.37-5.18 11.73 2.97 14.94 9.05 11.9 9.14z"/><path fill="#ff9c92" d="m1118.68 1294.1.01.01c1.41-3.45 3.94-8.12 8.35-14.62 0 0-.01.06-.04.15 2.08-3.32 4.48-6.63 7.04-9.81 4.42-5.51 7.96-9.28 10.6-11.82.02-.01.02-.02.03-.04 3.9-3.73 5.84-4.77 5.84-4.77s25.04-64.31 30.78-71.26c8.44-4.82 35.15 15.59 35.15 15.59 2.87 7.96-27.36 61.56-25.5 75.08 2.17 15.77 24.72 45.18 12.73 46.94-12.01 1.77-20.18-22.38-20.18-22.38s-.06.31-.2.89c-.81 3.49-4.21 16.59-11.19 26.98v.01c-1.96 2.87-4.18 5.55-6.71 7.75-.45.38-.9.76-1.36 1.12-.82.64-1.69 1.23-2.59 1.75-.14.08-.3.18-.45.26-.45.26-.91.5-1.37.72l-.06.03c-.01 0-.01 0-.03-.01-1.39.23-3.1.07-5.19-.89-6.73-3.09-5.16-8.76-5.16-8.76s-4.37 3.78-9.41.46c-5.37-3.53-2.55-7.42-2.55-7.42s-5.75 2.42-9.87-.51c-4.36-3.1-1-7.56-1-7.56s-3.82 2.31-8.96-1.27c-4.63-3.21 1.29-16.62 1.29-16.62z"/><path fill="#fff" d="M1139.6 1312.55a.53.53 0 0 1-.62-.1c-2.4-2.13-4.76-4.05-8.06-4.42-1.09-.12-2.34-.27-3.08-1.19-.34-.42-.5-.93-.72-1.41-.29-.65-.73-1.09-1.28-1.54-1.78-1.48-3.89-2.59-6.04-3.43-.98-.38-2.01-.72-3.06-.99-1.2 4.11-2.05 9.38.62 11.24 5.14 3.58 8.96 1.27 8.96 1.27s-3.35 4.46 1 7.56c4.13 2.94 9.87.51 9.87.51s-2.82 3.89 2.55 7.42c5.05 3.33 9.41-.46 9.41-.46s-1.57 5.67 5.16 8.76c2.09.96 3.8 1.11 5.19.89.01 0 .01 0 .03.01l.06-.03c.47-.22.92-.46 1.37-.72.15-.08.31-.17.45-.26.9-.52 1.75-1.11 2.59-1.75.46-.36.91-.74 1.36-1.13-1.77-.22-3.56-.93-5.12-1.69-1.76-.86-3.55-2-4.46-3.8-.97-1.88-.74-4.07-1.51-6.02-.83-2.03-3.01-3.22-5.1-3.47-1.81-.22-3.54.29-5.21-.67-1.87-1.06-3.05-2.91-4.34-4.56.01.02 0 0-.02-.02zM1205.21 1316.68s-4.94-8.16-4.29-9.74c.65-1.59 2.7-1.18 2.7-1.18s3.45 8.48 1.59 10.92z" opacity=".2"/><path fill="#ffbf9f" d="M1413.71 562.94c-129.84 89.74-214.22 479.61-268.52 676.27l57.39 25.7s221.83-512.02 239.34-574.3c17.73-63.04 30.45-168.21-28.21-127.67z"/><path fill="#ff9c92" d="M1768.08 475.73c5.46 1.73 14.34-9.03 14.34-9.03s-9.72 14.36-4.59 18.28c4.77 3.65 11.94-7.06 14.49-10.53-2.76 4.07-7.87 15.42-2.4 18.7 5.17 3.11 17.41-12.11 17.41-12.11s-8.49 14.84-2.74 18.55c7.02 4.53 22.51-18.45 27.99-26.5 4.06-5.96 6.18-25.07-5.84-18.57 0 0 2.71-9.26-4.71-12.13-7.54-2.91-8.38 5.88-8.38 5.88s2.12-8.66-5.61-11.82c-4.91-2.01-8.32 4.24-8.32 4.24s-1.06-7.88-8.38-5.95c-10.88 2.87-31.48 38.39-23.26 40.99z"/><path fill="#fff" d="m1811.97 494.23-5.96-2.8s-2.76 5.35-.71 7c2.05 1.65 6.67-4.2 6.67-4.2zM1797.27 487.57s-4.12-4.01-5.39-3.12c-1.28.89-2.93 4.77-.93 6.35 1.99 1.58 6.26-2.53 6.32-3.23zM1784.71 481.47s-2.32-3.85-5.36-3.64c0 0-3.52 4.54-1.05 6.28 2.47 1.73 6.41-2.64 6.41-2.64zM1773.43 472.36s-1.68-2.66-4.99-3.08c0 0-2.22 3.4.07 4.96 2.3 1.57 4.92-1.88 4.92-1.88z" opacity=".2"/><path fill="#fa9c70" d="m2426.27 619.11.13 129.85c-2.55 16.82-17.08 29.76-34.63 29.8l-564.38 1.23c-18.75.04-34.18-14.71-35.17-33.24v-.35l-.14-126.19c-.02-15.75 12.75-28.55 28.5-28.57l577.09-1.03c15.79-.02 28.59 12.75 28.6 28.5z"/><path fill="#fff" d="M1893.94 725.78v-80.9h14.14v70.42h17.89v10.48h-32.03zM1979.45 720.87c-3.24 3.89-8.41 5.84-15.54 5.84-7.12 0-12.35-1.95-15.67-5.86-3.33-3.91-4.99-9.8-4.99-17.67v-37c0-14.83 6.95-22.25 20.84-22.25 7.17 0 12.34 1.88 15.49 5.65 3.15 3.77 4.72 9.3 4.72 16.59v37c.01 7.91-1.61 13.81-4.85 17.7zm-20.71-7.63c.83 1.87 2.53 2.8 5.09 2.8 2.57 0 4.26-.96 5.07-2.87.81-1.91 1.21-5.2 1.21-9.86v-37.69c0-3.83-.41-6.62-1.24-8.39-.83-1.76-2.45-2.64-4.85-2.64s-4.1.88-5.06 2.64c-.97 1.76-1.45 4.54-1.45 8.34v37.74c0 4.75.41 8.06 1.23 9.93zM2042.34 721.07c-3.2 3.75-8.23 5.63-15.09 5.63s-11.99-2-15.38-6c-3.39-4-5.09-9.75-5.09-17.26v-35.25c0-12.04 3.62-19.57 10.87-22.57 2.67-1.1 5.91-1.65 9.71-1.65 13.05 0 19.58 7.17 19.58 21.51v11.12h-13.67v-10.34c0-4.17-.41-7.15-1.21-8.94-.81-1.79-2.39-2.69-4.75-2.69s-3.99.95-4.91 2.85c-.92 1.9-1.37 4.81-1.37 8.73V704c0 4.35.44 7.46 1.32 9.33.88 1.87 2.48 2.8 4.8 2.8s3.92-.95 4.8-2.85c.88-1.9 1.32-5.04 1.32-9.42v-11.58h13.88v11.45c-.01 7.8-1.62 13.59-4.81 17.34zM2065.22 725.78l13.25-80.9h18.68l14.09 80.9h-13.19l-2.22-14.43h-14.98l-2 14.43h-13.63zm29.13-24.31-6.23-40.63h-.21l-5.7 40.63h12.14zM2135.49 725.78v-70.23h-10.87v-10.66h35.4v10.66h-10.45v70.23h-14.08zM2179.17 725.78v-80.9h14.14v80.9h-14.14zM2253.6 720.87c-3.24 3.89-8.41 5.84-15.54 5.84-7.12 0-12.35-1.95-15.67-5.86-3.33-3.91-4.99-9.8-4.99-17.67v-37c0-14.83 6.95-22.25 20.84-22.25 7.17 0 12.34 1.88 15.49 5.65 3.15 3.77 4.72 9.3 4.72 16.59v37c.01 7.91-1.61 13.81-4.85 17.7zm-20.71-7.63c.83 1.87 2.53 2.8 5.09 2.8 2.57 0 4.26-.96 5.07-2.87.81-1.91 1.21-5.2 1.21-9.86v-37.69c0-3.83-.41-6.62-1.24-8.39-.83-1.76-2.45-2.64-4.85-2.64s-4.1.88-5.06 2.64c-.97 1.76-1.45 4.54-1.45 8.34v37.74c-.01 4.75.41 8.06 1.23 9.93zM2282.08 725.78v-80.9h11.08l19.68 48.54-1.01-22.06v-26.47h12.72v80.9h-10.03l-20.21-50.24.79 21.24v29h-13.02z"/></svg>