<svg xmlns="http://www.w3.org/2000/svg" data-name="Layer 1" viewBox="0 0 700 550" id="courierguyholdingparcel"><path d="M389.55876,205.60375l-26.88478.11485-26.79847.25871-26.62607.36409-26.36736.42163-.50783,25.735-.39274,26.032-.22994,26.20432c-.08631,8.73813-.06713,17.50479-.00959,26.24292l.00959,1.11133,1.08256-.01918,26.64525-.31614c8.88175-.12456,17.7635-.23953,26.64525-.27777s17.7635.00947,26.64525.067c8.88152.01907,17.76327.20117,26.645.297h.69941l.00959-.71859c.11508-8.671.28748-17.35146.35461-26.03192l.134-15.56938c-.7759.12444-1.53285.23953-2.28021.3449l.05731,9.974-24.518-.03836.00959-7.41581-6.92715,1.39881-.00959,6.00741-41.55359-.05755.048-41.55335,41.56318.05743-.01918,16.46048c6.46728,1.53284,6.83125,4.08158,6.83125,4.08158l-.00959.21076s.02877-.00959.09591-.03837l.01918-20.70486,24.26891.02865.02877,8.86257c.85285-.45987,1.71506-.91975,2.56768-1.39881l.08632-12.71421L390.948,206.993v-1.39881Zm-81.1334,104.66454-24.49885-.3642q.11473-11.64108.05731-23.28214l24.47031.02865Zm.03836-30.54485-24.518-.02877-.12468-20.3982-.2683-21.15515,24.96855.02877Zm.06714-48.48062-25.06422-.02866-.40257-24.26914,25.49556.4407ZM363.862,286.72733l24.57558.02877c.048,7.89486.17239,15.78013.2587,23.66541-8.2876.06713-16.57544.20116-24.87264.21075Zm-6.92715-.00959-.02878,23.9337c-6.92715.01919-13.85431.02878-20.78147-.01918s-13.85431-.15321-20.78147-.25871l.03813-23.71336Zm.07649-55.40791-41.56295-.05742.03837-23.75161,21.16462.364,20.38873.25871Zm6.9178.0096.03836-23.11922,24.19242.17239.00935,22.98519Z" fill="#fe9526" class="color000000 svgShape"></path><path fill="#595bd4" d="M409.42352 105.98371a19.501 19.501 0 00-2.86873 6.74751 17.78454 17.78454 0 00-.225 3.63726 10.54976 10.54976 0 01-.16748 1.9526 9.72988 9.72988 0 01-.59462 1.88407 27.5436 27.5436 0 01-1.716 3.42709 15.18551 15.18551 0 01-1.13331 1.59565 7.02916 7.02916 0 01-.71906.76268 4.41123 4.41123 0 01-.45566.3497c-.11041.0807-.23181.15357-.33357.23918a2.836 2.836 0 00-.92186 1.08548 1.14647 1.14647 0 00.10644 1.06174 2.45614 2.45614 0 001.02291.89508 1.78676 1.78676 0 001.171.20268.82957.82957 0 011.10455.77192l.00023.03778c.01334 1.614.11532 3.26674.2683 4.88613a31.35409 31.35409 0 00.77192 4.78029 11.69456 11.69456 0 00.76795 2.18605 4.8016 4.8016 0 00.54923.90478 7.37539 7.37539 0 00.76864.81017 8.331 8.331 0 004.00837 2.05342 7.84347 7.84347 0 004.49818-.52023 14.36472 14.36472 0 004.00088-2.60113 28.95432 28.95432 0 003.35715-3.5851c1.032-1.29 1.95343-2.66967 2.88558-4.04895a32.86832 32.86832 0 01-5.60952 8.30188 14.84108 14.84108 0 01-4.1438 3.05118 9.1852 9.1852 0 01-5.23034.82947 9.76367 9.76367 0 01-4.82028-2.29 8.96038 8.96038 0 01-.97028-.97028 6.34622 6.34622 0 01-.77777-1.19659 13.32892 13.32892 0 01-.909-2.49693 41.57463 41.57463 0 01-1.10736-10.10243l1.10455.80969a3.3543 3.3543 0 01-2.43389-.31333 4.09536 4.09536 0 01-1.71132-1.56208 2.79258 2.79258 0 01-.15929-2.517 4.35971 4.35971 0 011.47249-1.71343c.14035-.10912.28748-.1945.43134-.29192a2.68922 2.68922 0 00.28912-.20842 5.5826 5.5826 0 00.57262-.57707 14.67257 14.67257 0 001.06525-1.40992 27.73981 27.73981 0 001.78009-3.1478 8.58674 8.58674 0 00.89566-3.37387 16.67025 16.67025 0 01.53193-3.75925A18.06434 18.06434 0 01409.42352 105.98371zM426.41791 130.91717a2.4547 2.4547 0 001.01191-.51391 9.15408 9.15408 0 00.80841-.72888l.8152-.80947a6.65936 6.65936 0 01.9518-.80864 3.81339 3.81339 0 01-1.11812 2.2788 3.04967 3.04967 0 01-1.13612.713A1.40543 1.40543 0 01426.41791 130.91717z" class="color020202 svgShape"></path><path fill="#595bd4" d="M418.741 159.62929a3.93688 3.93688 0 00.17591-1.73541c-.03135-.58456-.10994-1.16829-.19252-1.75179-.1766-1.16548-.38058-2.33167-.604-3.4968-.42292-2.33657-.89356-4.66882-1.16841-7.0709a25.43291 25.43291 0 011.23484 3.39458 35.55271 35.55271 0 01.8442 3.50814 24.65905 24.65905 0 01.411 3.60334 11.35855 11.35855 0 01-.073 1.83132A3.25937 3.25937 0 01418.741 159.62929zM441.19057 137.928a24.04161 24.04161 0 00.19228 2.58219c.09707.812.23578 1.59892.38339 2.39131.152.7925.33707 1.58524.5118 2.40979.08749.41192.18409.82993.25988 1.26454a10.04322 10.04322 0 01.20959 1.354 7.60456 7.60456 0 01-1.02595-.952 10.09187 10.09187 0 01-.79742-1.12782 8.37759 8.37759 0 01-.9773-2.598 7.54553 7.54553 0 01-.0145-2.81259A4.68983 4.68983 0 01441.19057 137.928zM407.27407 113.6008a5.70308 5.70308 0 011.86618-.2393 7.6829 7.6829 0 011.86757.26807 6.38688 6.38688 0 011.74173.78887 3.78559 3.78559 0 011.28279 1.41168 15.39443 15.39443 0 00-1.62173-.77285c-.54549-.20035-1.09191-.38164-1.65308-.536C409.634 114.19938 408.48458 113.96722 407.27407 113.6008zM410.71538 119.79579a1.39079 1.39079 0 000-2.77991 1.39079 1.39079 0 000 2.77991zM411.64805 138.26794a3.609 3.609 0 01-4.70263 1.43542 3.59914 3.59914 0 114.70263-1.43542zm0 0a3.12469 3.12469 0 00-1.3518-4.3859 3.13629 3.13629 0 10-.70291 5.89173A3.18694 3.18694 0 00411.64805 138.26794zM433.58344 251.79032c.03158-.06314.05335-.11755.08487-.18069.05821-.043.12514-.07617.18335-.11916z" class="color020202 svgShape"></path><path fill="#595bd4" d="M414.53666 212.57875l.048.12455a.2257.2257 0 00.01918-.07672zm27.33507-66.34951h-.00959a1.07091 1.07091 0 01-.11485-.01918c.55555 1.236 1.073 2.50067 1.59039 3.74626a.37057.37057 0 01-.00959.22994l-.01919.03836a20.96059 20.96059 0 01-4.17725 6.23735 35.24462 35.24462 0 01-5.71056 4.848 51.99521 51.99521 0 01-6.40974 3.80381 55.89137 55.89137 0 01-6.83125 2.92218l-.048.00959a.61456.61456 0 01-.78572-.36409.63356.63356 0 01-.03836-.2683c.27789-2.79762.58456-5.61454 1.02525-8.40269-1.00607.40245-1.5808.61321-1.5808.61321l-1.46594 10.09857-11.56452 66.043-.11485.73777c.57472-.42163 1.14969-.84326 1.69588-1.26478 4.3307-3.30545 10.20384-18.33834 10.46255-20.53235l-3.34382-1.93541-.07672-.03836.01918-.08632c1.25519-5.42285 2.788-10.7788 4.417-16.09627 1.71506-5.29841 3.53539-10.568 5.70074-15.71312a78.37311 78.37311 0 013.65024-7.569 14.98989 14.98989 0 012.73072-3.296 10.13379 10.13379 0 013.75574-2.07915 12.88422 12.88422 0 018.355.661 25.05845 25.05845 0 017.09956 4.37866 26.33808 26.33808 0 00-7.253-3.957 12.45716 12.45716 0 00-7.99054-.412 11.37608 11.37608 0 00-5.969 5.15479 75.21728 75.21728 0 00-3.50685 7.48282c-2.13658 5.1163-4.0624 10.32851-5.79665 15.59815-1.782 5.23127-3.40136 10.52009-4.95338 15.828l3.16183 2.07927 26.35777 10.96079c.68981-1.73425 1.43717-3.42054 2.15576-5.13561.661-1.72453 1.35086-3.43948 1.97354-5.18332a91.90774 91.90774 0 003.14288-10.59681A64.59136 64.59136 0 00453.12 193.84766c.03836-.91988.08631-1.83963.10549-2.7595-.01918-.91975.00959-1.83951-.06713-2.75926a25.84925 25.84925 0 00-.74736-5.48039 30.88821 30.88821 0 011.43718 11.03739 57.50536 57.50536 0 01-1.52349 11.07576 78.1986 78.1986 0 01-3.38194 10.65435c-.71859 1.71507-1.48513 3.41083-2.23249 5.10672-.86221 1.648-1.69588 3.31516-2.58686 4.94391-15.69406 32.62388-20.839 33.40948-26.45368 35.94851a98.147 98.147 0 01-16.901 5.80612l-.0096.0862-.99647 16.94913c.20116 3.45878 2.23248 5.71992 5.48039 7.11885v.00959a28.94527 28.94527 0 0010.32851 1.84909A105.25862 105.25862 0 00434.935 291.767c5.98823-1.00607 11.84242-2.30909 16.78621-3.5258 3.07551-.757 5.78705-1.47553 7.9524-2.07927 3.35341-.93893 5.39408-1.5712 5.39408-1.5712l.19158-93.78036C459.2329 150.51211 443.39522 146.5166 441.87173 146.22924zM414.58462 212.7033a.2257.2257 0 00.01918-.07672l-.06714-.04783zm27.16267-66.49324c-5.99781 6.17991-17.25567 11.11412-21.414 12.80041.163 2.4816.21076 4.97268.24912 7.45417.78572-.38316 1.6-.77613 2.39529-1.20724 1.08256-.5366 2.16535-1.09215 3.21937-1.69588 2.127-1.16887 4.206-2.41447 6.199-3.75574a46.2575 46.2575 0 005.66238-4.417 25.4752 25.4752 0 004.52228-5.39407C442.2743 148.7395 442.006 147.48431 441.74729 146.21006zM400.28 267.3063c.17239-.03836.35438-.08619.527-.13415v-.04783C400.6344 267.18174 400.462 267.24876 400.28 267.3063zM395.81714 455.38291c-.72835-1.19369-1.45664-2.38742-2.26166-3.5392 9.3109-2.07178 13.50242-4.53655 15.39345-6.39354a3.95 3.95 0 012.069.65037 6.08881 6.08881 0 011.538 1.4732 10.90455 10.90455 0 011.16429 1.8319 11.32049 11.32049 0 01.55633 1.11862c-1.37168.28162-2.744.57249-4.10915.90084-1.647.38615-3.2946.78156-4.92583 1.215-1.63885.40516-3.26358.88542-4.89589 1.33742C398.82493 454.42675 397.32209 454.88634 395.81714 455.38291z" class="color020202 svgShape"></path><path fill="#595bd4" d="M422.94692,455.34469c-.104-.04333-.19911-.09533-.29443-.13855q-.28566-.14283-.54553-.25976c-.12111-.06922-.24222-.12988-.35487-.18177-.77908-.39831-1.22061-.658-1.22061-.658l.46753-7.9994-2.68387-.8744-.00867-.00867a11.48073,11.48073,0,0,1-3.28117-.41554h2.00857l-6.545-2.13845v.00867a3.34545,3.34545,0,0,1-.95218,2.12978c-.16465.19911-.36375.41554-.58885.64064a3.7328,3.7328,0,0,1,2.31166.16454,6.22905,6.22905,0,0,1,1.9999,1.31584,12.3166,12.3166,0,0,1,1.54949,1.80936,15.44541,15.44541,0,0,1,1.19483,2.06056.72051.72051,0,0,1-.32909.95218c-.03445.00867-.06912.026-.10378.03467l-.078.026c-1.62749.46754-3.24651.94373-4.89133,1.35927q-2.45454.64931-4.9262,1.22061c-1.64482.40687-3.2983.736-4.952,1.09951-1.66215.32031-3.3243.64063-5.004.92639l-.07778.00867a.43727.43727,0,0,1-.46753-.26843c-.56264-1.41982-1.1255-2.84831-1.619-4.31135-2.64033.58-5.70507,1.15139-9.22868,1.64481a5.12234,5.12234,0,0,0-3.93914,2.87431c-.00867.03466-.03466.06932-.04312.10388a5.14378,5.14378,0,0,0,4.49312,7.125l20.68236,1.212c1.32461-.38087,2.63188-.80507,3.91315-1.25527a40.281,40.281,0,0,0,3.74-1.52371,20.76278,20.76278,0,0,0,3.46295-2.00857,10.3741,10.3741,0,0,0,2.70966-2.82231l.01733-.026a.39447.39447,0,0,1,.16444-.12977c1.48925-.44154,2.961-.85707,4.46733-1.212C423.622,455.65623,423.26713,455.50046,422.94692,455.34469Zm-8.03407,5.09909c-3.58427-.20776-3.24651-5.75706.32022-5.54929C418.81733,455.11092,418.47958,460.66022,414.91285,460.44378Zm43.07907,14.51843s-3.8007-4.79622-2.77052-8.49293a10.57855,10.57855,0,0,0,.4762-2.89143c-.01713-2.99552-.658-8.389-5.01244-7.76574h-.00888a18.307,18.307,0,0,1-11.7479,3.63616,27.34958,27.34958,0,0,1-3.27251-.2251c-.28576-.03466-.58-.078-.86573-.12121-.9264-.13855-1.83526-.32032-2.71832-.52809a21.91317,21.91317,0,0,0,4.216,4.9,8.92205,8.92205,0,0,0,2.61455,1.49771,6.00133,6.00133,0,0,0,.70129.2251l.70109.14721c.24243.03467.48486.01734.72729.04323a2.97207,2.97207,0,0,0,.7273-.03456,6.55126,6.55126,0,0,0,4.86533-2.89153,22.79533,22.79533,0,0,0,2.86564-5.8004,13.52927,13.52927,0,0,1-1.66215,6.59681,8.15834,8.15834,0,0,1-2.41544,2.7012,6.83706,6.83706,0,0,1-3.50627,1.23794,7.62763,7.62763,0,0,1-3.65339-.58864,9.14266,9.14266,0,0,1-2.93475-2.06923,13.10193,13.10193,0,0,1-3.24651-5.96483.2041.2041,0,0,1-.06933-.01733c-.37242-.08666-.74463-.18177-1.0995-.2771-.35509-.09522-.69264-.19043-1.03018-.28565-.40708-.12122-.81374-.24243-1.20349-.37232q-.51932-.16866-1.01285-.33754c-.736-.25976-1.41992-.52819-2.06923-.77918-.26821-.11255-.528-.21644-.77907-.32032-.2771-.12122-.54532-.24243-.80508-.34632q-2.0389.948-4.12958,1.792a9.396,9.396,0,0,1-2.4761,2.9263,5.01535,5.01535,0,0,1,1.463.76175,9.14,9.14,0,0,1,1.63636,1.53237,15.58687,15.58687,0,0,1,1.32461,1.78347,17.08321,17.08321,0,0,1,1.1255,1.9479.66383.66383,0,0,1-.3031.87441.39146.39146,0,0,1-.09511.026l-.06933.0259c-1.99123.61474-4.00847,1.17739-6.01682,1.74014-2.01724.52808-4.03447,1.08217-6.06883,1.54959-2.0259.51953-4.0518.96106-6.09482,1.41126-2.0519.43287-4.09492.84841-6.16415,1.20329l-.052.00866a.39227.39227,0,0,1-.43287-.251c-.46732-1.37649-.92619-2.76176-1.32439-4.16425l-.00867-.00856a49.89763,49.89763,0,0,1-9.402,2.51922,8.03184,8.03184,0,0,0-6.95189,7.02978,5.77062,5.77062,0,0,0,1.0995,4.16414,5.65313,5.65313,0,0,0,3.90448,2.0779c4.26823.45009,16.31056,1.20328,26.76851-3.20329a20.38716,20.38716,0,0,1,10.31107-.37232C427.61314,482.51141,461.21244,483.11749,457.99192,474.96221Zm-10.51016-.09522c-1.30727.303-2.623.58008-3.94781.81385-2.64033.44153-5.2982.79641-7.96474,1.0475a78.0903,78.0903,0,0,1-8.07718.41554c-1.38526-.026-2.6492-.12121-3.96514-.09522-1.30727.00867-2.62321.07789-3.92181.19911a48.86944,48.86944,0,0,0-7.731,1.2986,54.3763,54.3763,0,0,1-7.94762,1.541,94.73668,94.73668,0,0,1-16.05058.48476c5.3242-.4502,10.63127-1.03885,15.85148-1.91325,1.29015-.2251,2.59721-.48486,3.87848-.77918,1.29861-.277,2.48477-.64931,3.818-1.02162a48.39313,48.39313,0,0,1,8.01673-1.463q2.03891-.16882,4.07759-.15578c.4242-.00866.85707,0,1.28127.01733-1.67948-1.4977-.90907-5.07331,1.96524-4.90876,2.86564.1731,3.22051,3.73994,1.44571,5.06454,2.39811.06066,4.82221-.03467,7.255-.12122,2.6492-.12988,5.30686-.28565,7.95607-.51075,1.33326-.09522,2.6492-.23377,3.96514-.38954.658-.104,1.33327-.17321,1.9739-.31176a7.72253,7.72253,0,0,0,.96952-.20777,3.704,3.704,0,0,0,.94373-.32888A13.08946,13.08946,0,0,1,447.48176,474.867ZM420.843,465.19667a19.9618,19.9618,0,0,0-1.02151-1.84392,9.62318,9.62318,0,0,0-1.27261-1.67958,5.36366,5.36366,0,0,0-1.26394-1.02162,1.10126,1.10126,0,0,0-.104.08666,16.54627,16.54627,0,0,1-3.63605,2.08635,23.67216,23.67216,0,0,1-3.93914,1.3246,24.96076,24.96076,0,0,1-4.08626.658,65.058,65.058,0,0,1-9.194,4.1988c.67509,1.1514,1.30727,2.31156,1.91324,3.489q2.83087-.935,5.67929-1.7747c2.00835-.58008,4.01692-1.16016,6.03416-1.67092,2.017-.55408,4.04292-1.03028,6.07749-1.53237,1.7748-.39831,3.54939-.80518,5.33286-1.17739C421.19811,465.95863,421.01634,465.569,420.843,465.19667Z" class="color020202 svgShape"></path><path fill="#595bd4" d="M405.33515,291.57322l.78736,18.71893.65262,18.72115,1.09566,37.44417.38666,18.72477.25637,18.72758.2393,18.72875.364,18.72618-.08538-.1952a12.77381,12.77381,0,0,0,1.61542,1.267.28463.28463,0,0,1,.124.2338v.00842l-.123-.233a13.32191,13.32191,0,0,0,7.65136,2.4678.31518.31518,0,0,1,.2269.091l.00842.00854-.22854-.09087a10.97958,10.97958,0,0,0,2.67435-.42152.31934.31934,0,0,1,.39532.21848.32712.32712,0,0,1,.01193.10655l-.4966,9.30186-.17684-.33169c.53122.27508.99741.53519,1.57963.82314l-.03205-.01637,1.89939.86747a.38005.38005,0,0,1,.1076.07357l.00561.00561.00866.00854-.13287-.08772c.66175.27649,1.30361.55122,1.95974.78713.65824.23532,1.30735.49075,1.97214.70969,1.33308.4386,2.67271.82023,4.02755,1.12747l.04257.012a.13834.13834,0,0,0-.08047-.00772l.10877.01275a28.99075,28.99075,0,0,0,4.737.67543c.79531.03368,1.58945.11976,2.38336.11193a21.44557,21.44557,0,0,0,2.36838-.15684,18.40539,18.40539,0,0,0,4.56064-1.13028,15.96155,15.96155,0,0,0,4.02966-2.33295.65842.65842,0,0,1,.40373-.14339l.0131-.00012.00842-.00011-.4166.14339a18.12232,18.12232,0,0,0,4.44672-5.32765l-.0966.36257-.0938-27.60033-.02948-27.6.1062-27.59963c.00959-9.19987.15158-18.39951.22175-27.59939a.7819.7819,0,0,1,.20094-.518l.03462-.03836a7.30468,7.30468,0,0,0,.84209-1.22759,14.93,14.93,0,0,0,.73613-1.45694,26.71386,26.71386,0,0,0,1.15648-3.12042,54.09408,54.09408,0,0,0,1.52161-6.56541,102.13713,102.13713,0,0,0,1.26525-13.52917,229.11935,229.11935,0,0,0-1.00092-27.28595.0926.0926,0,0,1,.18409-.02,206.89281,206.89281,0,0,1,1.84325,27.32723,103.24624,103.24624,0,0,1-.9628,13.72063,51.02014,51.02014,0,0,1-1.45308,6.77675,28.11861,28.11861,0,0,1-1.17308,3.30592,16.41714,16.41714,0,0,1-.78291,1.60489,8.09031,8.09031,0,0,1-1.08864,1.58618l.23555-.55613c.0276,9.2.127,18.4001.09427,27.6l-.02129,27.59963-.157,27.59939-.21333,27.59892-.00023.00947a.72077.72077,0,0,1-.09661.35345,19.21853,19.21853,0,0,1-4.88578,5.66694l-.01216.00924a.65537.65537,0,0,1-.40468.13427l-.00842-.00012.41661-.14351A17.26526,17.26526,0,0,1,446.678,458.779a19.60546,19.60546,0,0,1-4.88367,1.10314,22.58657,22.58657,0,0,1-2.48769.11205c-.82759-.00936-1.6491-.11392-2.473-.167a30.6614,30.6614,0,0,1-4.87058-.791l.10831.01263a1.02006,1.02006,0,0,1-.21871-.04222l.04233.01193c-1.39015-.34222-2.75738-.76023-4.09468-1.22782-1.32629-.49087-2.68-1.00759-3.94427-1.58466l-.02269-.01029a.3782.3782,0,0,1-.11064-.07755l-.00842-.00853.113.07894-1.87483-.89846-.007-.0034-.02549-.0131c-.48117-.24713-1.05122-.5732-1.57121-.85624a.34221.34221,0,0,1-.178-.32128l.00094-.01065.57683-9.29379.40725.32491a11.61786,11.61786,0,0,1-2.83131.42678.31455.31455,0,0,1-.229-.091l-.00842-.00853.22643.09087a13.90705,13.90705,0,0,1-7.98376-2.62265.28453.28453,0,0,1-.123-.23333v-.00842l.12374.23356a15.44562,15.44562,0,0,1-1.69144-1.33.26313.26313,0,0,1-.08515-.18549l-.00023-.01006-.53426-18.72326-.65894-18.721-.64186-18.72185-.51181-18.72477-.70058-37.45505-.24584-18.72851c-.03532-6.24389-.11462-12.48486-.11041-18.73063a.09261.09261,0,0,1,.09263-.09263A.09637.09637,0,0,1,405.33515,291.57322Z" class="color020202 svgShape"></path><path fill="#595bd4" d="M415.57057 293.4325c.43789 6.29968.75742 12.60369 1.1394 18.90547l.94595 18.91261c.61122 12.60907 1.05589 25.2241 1.592 37.836.38619 12.61726.85238 25.23159 1.16349 37.85154l.4297 18.93132c.07555 6.31289.21473 12.62345.23415 18.93845-.43929-6.29968-.75882-12.60369-1.142-18.90547l-.94642-18.91249c-.60631-12.60919-1.05753-25.2241-1.589-37.83609-.38128-12.61749-.854-25.23159-1.16022-37.85165l-.4304-18.93132C415.73057 306.05794 415.59139 299.74738 415.57057 293.4325zM451.72353 288.24005c.35648 1.57741.62853 3.16031.85753 4.74614.23462 1.58536.43672 3.17294.59087 4.76368.1766 1.58921.288 3.18264.41145 4.77537.09217 1.59471.20094 3.18838.24047 4.7866l-.32982-.61765c.65449.54911 1.32489 1.07741 1.96488 1.64536.6428.56408 1.29964 1.11027 1.92793 1.69331 1.27507 1.14209 2.51973 2.32394 3.70919 3.57726-1.51694-.82748-2.97891-1.72653-4.41023-2.66535-.72514-.45742-1.4215-.95168-2.13214-1.42793-.7132-.47263-1.396-.98478-2.09494-1.476a.767.767 0 01-.3221-.54456l-.00772-.07345c-.16935-1.58968-.26923-3.18393-.386-4.777-.08538-1.59518-.18292-3.18966-.215-4.78835-.05473-1.59717-.06152-3.1975-.03579-4.79994C451.5123 291.45545 451.57569 289.85044 451.72353 288.24005zM434.93943 291.75229c.37473 6.98224.63087 13.96729.94969 20.95082l.75625 20.95527c.48467 13.97069.803 27.94535 1.21261 41.91779.25965 13.976.59929 27.95015.78385 41.928l.24 20.96755c.01216 6.99078.08819 13.98016.04421 20.97223-.37614-6.98213-.63251-13.96718-.9525-20.95059l-.75672-20.95539c-.48-13.97069-.80466-27.94523-1.20934-41.91779-.255-13.97618-.60116-27.95015-.7808-41.92808l-.24047-20.96755C434.97288 305.73373 434.89686 298.74447 434.93943 291.75229zM417.24821 112.29274c-3.04675-1.82032-6.12249-3.69819-9.15-5.6336.67063-.8145 11.6796-13.979 28.48475-12.149C425.59336 98.86953 417.60282 111.7179 417.24821 112.29274z" class="color020202 svgShape"></path><path fill="#595bd4" d="M407.32226 106.11294l.35438.27789c-.9773-.62279-1.95459-1.25518-2.91271-1.88745 0 0 5.26964-20.60908 27.35425-12.55141 1.35086.48865 2.61564 1.00607 3.80369 1.53308C418.58012 92.03828 407.42752 105.95973 407.32226 106.11294zM437.57939 95.16175l-12.26392 21.845c-2.34734-1.34138-4.781-2.74978-7.24341-4.21573C418.15837 112.657 426.55147 99.157 437.57939 95.16175zM432.45361 120.94455l.4407.29708c-2.108-1.15929-4.37865-2.42406-6.74517-3.76545l12.216-21.74918A36.95906 36.95906 0 01432.45361 120.94455z" class="color020202 svgShape"></path><path fill="#595bd4" d="M443.50048,126.92319c-2.41447-1.26466-5.99758-3.15224-10.23261-5.4804a37.95451,37.95451,0,0,0,6.07454-25.58164C442.15921,99.339,449.22064,110.26166,443.50048,126.92319Z" class="color020202 svgShape"></path><path fill="#595bd4" d="M446.86348 128.65743s-1.073-.5366-2.94125-1.5139l.45988.15334c5.6336-16.3358-.74736-27.37332-3.88042-31.51244C463.21857 108.91057 446.86348 128.65743 446.86348 128.65743zM405.60205 104.96442a.43084.43084 0 01-.23392-.06924L389.3197 94.6076a.43266.43266 0 11.46783-.72794L405.836 104.16724a.43308.43308 0 01-.23391.79718zM438.60789 95.60905a1.29938 1.29938 0 000-2.59721 1.29938 1.29938 0 000 2.59721z" class="color020202 svgShape"></path><path fill="#53d86a" d="M407.67664 106.39083c.14362.09579.27789.182.42152.26831a.16638.16638 0 00-.02878.03824zM432.89431 121.24163q.18666.10051.37356.20116a.07273.07273 0 01-.01918.03837zM443.92223 127.14353l-.45029-.15321c.00936-.01918.01918-.048.02854-.06713C443.64434 126.99991 443.788 127.07652 443.92223 127.14353z" class="colorffffff svgShape"></path><path fill="#595bd4" d="M405.63527,236.54169a162.17125,162.17125,0,0,1-20.24979,12.45983q-5.24167,2.81557-10.60968,5.38484c-3.58755,1.7298-7.13323,3.3851-10.83821,5.00251l-.58151.25391.0283-.672.00889-.21064.00374.0786a2.31267,2.31267,0,0,0-.43251-.75449,4.7311,4.7311,0,0,0-.72233-.70186,9.43907,9.43907,0,0,0-1.79506-1.08011,20.67847,20.67847,0,0,0-4.09538-1.32091,51.09768,51.09768,0,0,0-8.67357-.97309,24.47157,24.47157,0,0,0-4.322.15193,5.16745,5.16745,0,0,0-.97378.26877c-.28351.15988-.41357.27648-.35415.44432a3.37393,3.37393,0,0,0,1.45378,1.25121,14.189,14.189,0,0,0,4.03293,1.49319,24.29074,24.29074,0,0,0,4.33959.39193l.06994.00281.04444.03122a2.37492,2.37492,0,0,1,1.01,1.15683.855.855,0,0,1-.20912.84619,1.89227,1.89227,0,0,1-.64491.442,7.05706,7.05706,0,0,1-2.83364.384c-1.8767-.00573-3.73913-.14444-5.59993-.29415-3.72065-.31181-7.42516-.74876-11.13248-1.17823l.02714.00117a2.92853,2.92853,0,0,0-1.18946.35906,1.5704,1.5704,0,0,0-.731.91765,2.49891,2.49891,0,0,0,.032,1.2249,7.18839,7.18839,0,0,0,.47742,1.19764l.07322.15088-.14456.09625a2.04129,2.04129,0,0,0-.7773.9118,1.40728,1.40728,0,0,0,.05286,1.14537,3.14216,3.14216,0,0,0,.75953.99378,9.04666,9.04666,0,0,0,1.03063.79707l.19508.13661-.15789.18736a1.31571,1.31571,0,0,0-.29941.89391,1.53337,1.53337,0,0,0,.41824.88993,5.43053,5.43053,0,0,0,1.80652,1.20033l.17006.0793-.0407.19637a1.7683,1.7683,0,0,0,.08421.912,2.22124,2.22124,0,0,0,.52046.80444,3.66157,3.66157,0,0,0,.796.59823,7.20513,7.20513,0,0,0,.93893.41076l-.05941-.013,11.16874.99262.0007.00011.03228.0048a16.66278,16.66278,0,0,0,3.78123-.05205c.63766-.06421,1.2739-.14538,1.9029-.25029a9.729,9.729,0,0,0,1.80185-.43625l.03766-.01462.03251-.00667,14.18437-2.92732.04281-.00889.058.00023a133.01163,133.01163,0,0,0,23.51968-2.222,109.306,109.306,0,0,0,22.6577-6.61382l2.72043-1.18034a27.27287,27.27287,0,0,0,2.63833-1.26408,19.93856,19.93856,0,0,0,4.55947-3.58533,59.41172,59.41172,0,0,0,7.03827-9.4518c2.11576-3.33621,4.00626-6.81394,5.90611-10.28325l2.77-5.25081,2.68558-5.29653.08632.04164a218.72551,218.72551,0,0,1-10.95167,21.0955,60.002,60.002,0,0,1-6.99429,9.66361,20.74115,20.74115,0,0,1-4.69046,3.79059,28.17848,28.17848,0,0,1-2.6961,1.33928l-2.71155,1.22139a106.7475,106.7475,0,0,1-22.8343,6.76376,128.18637,128.18637,0,0,1-23.72763,2.13307l.10034-.00865-14.2136,2.78289.0697-.02106a10.21861,10.21861,0,0,1-1.974.45813c-.65052.09953-1.30127.17356-1.95343.23064a17.02746,17.02746,0,0,1-3.97375-.00936l.03275.00479-11.15517-1.13437-.03368-.00339-.02573-.00959a7.64285,7.64285,0,0,1-1.01636-.45683,4.14375,4.14375,0,0,1-.90245-.69274,2.70279,2.70279,0,0,1-.62034-.98514,2.19718,2.19718,0,0,1-.08444-1.195l.12935.27543a5.84287,5.84287,0,0,1-1.95342-1.33635,1.97117,1.97117,0,0,1-.51391-1.15215,1.72963,1.72963,0,0,1,.426-1.21484l.03742.32374a9.44056,9.44056,0,0,1-1.08068-.85285,3.52826,3.52826,0,0,1-.84186-1.13215,1.80434,1.80434,0,0,1-.04585-1.45168,2.40864,2.40864,0,0,1,.94525-1.089l-.07111.24678a7.5268,7.5268,0,0,1-.49543-1.28056,2.84374,2.84374,0,0,1-.01638-1.41133,1.91877,1.91877,0,0,1,.89637-1.11075,3.23883,3.23883,0,0,1,1.34688-.39262l.01169-.00094.01568.00211q5.54063.734,11.118,1.16408c1.85612.13637,3.71761.2614,5.57045.25391a6.50586,6.50586,0,0,0,2.65985-.385c.38994-.18059.73332-.472.60584-.78923a2.00014,2.00014,0,0,0-.82853-.88011l.11392.034a24.76145,24.76145,0,0,1-4.43128-.32444,14.725,14.725,0,0,1-4.22568-1.483,8.03962,8.03962,0,0,1-.97355-.6131,2.3305,2.3305,0,0,1-.81122-.99226.86489.86489,0,0,1,.13848-.806,1.61172,1.61172,0,0,1,.55625-.43941,5.71394,5.71394,0,0,1,1.13846-.34139,25.04932,25.04932,0,0,1,4.469-.2379,49.96334,49.96334,0,0,1,8.82678.93145,21.49605,21.49605,0,0,1,4.28158,1.35858,9.60884,9.60884,0,0,1,1.971,1.18607,5.55458,5.55458,0,0,1,.84747.83753,2.84707,2.84707,0,0,1,.6042,1.16759l.00632.02748-.00258.05158-.01005.21052-.55321-.418c3.56463-1.53484,7.2151-3.20125,10.77505-4.89152q5.36274-2.54681,10.64477-5.25794c3.52019-1.80874,7.00716-3.68521,10.43354-5.66413,3.43154-1.97073,6.81184-4.03807,10.0539-6.31313Z" class="color020202 svgShape"></path><path fill="#595bd4" d="M349.45989 264.8771a45.20935 45.20935 0 01-9.34069.37286 34.954 34.954 0 01-4.65935-.57216 14.66386 14.66386 0 01-4.45047-1.49565 27.31 27.31 0 004.55947.78081c1.53.15625 3.06522.2828 4.60649.36257C343.25647 264.524 346.34578 264.62318 349.45989 264.8771zM332.05615 267.37426c2.70593.11321 5.3618.45894 8.01533.80256l3.9693.553c.661.09181 1.32186.18047 1.98337.25006a7.94819 7.94819 0 001.99389.0607 10.80691 10.80691 0 01-4.03807.4097c-1.35437-.03883-2.69611-.18351-4.032-.35567A47.01187 47.01187 0 01332.05615 267.37426zM334.03531 270.71269a43.61284 43.61284 0 016.75335.23391 42.77566 42.77566 0 016.6364 1.15262 49.16044 49.16044 0 01-13.38975-1.38653z" class="color020202 svgShape"></path><path fill="#53d86a" d="M414.6038,212.62658a.2257.2257,0,0,1-.01918.07672l-.048-.12455Z" class="colorffffff svgShape"></path><path fill="#595bd4" d="M446.27341,128.05624s.97721,1.41844-5.08292,9.87175c0,0-8.80285-2.08176-11.18518-9.87175,0,0,3.24346-10.821-5.19523-6.27449a75.36892,75.36892,0,0,1-3.46921-7.06682C418.87261,108.83984,446.81347,127.39849,446.27341,128.05624Z" class="color020202 svgShape"></path><polygon points="156.707 490.962 154.11 490.962 154.11 79.826 247.061 57.74 247.061 444.808 244.464 444.808 244.464 61.026 156.707 81.879 156.707 490.962" fill="#fe9526" class="color000000 svgShape"></polygon><rect width="6.926" height="13.926" x="257.843" y="143.581" fill="#fe9526" class="color000000 svgShape"></rect><rect width="92.677" height="2.597" x="455.36" y="443.51" fill="#fe9526" class="color000000 svgShape"></rect><polygon points="459.542 492.26 151.962 492.26 245.447 443.51 409.536 443.51 409.536 446.107 246.083 446.107 162.56 489.663 459.542 489.663 459.542 492.26" fill="#fe9526" class="color000000 svgShape"></polygon><polygon points="421.077 446.107 421.069 446.107 421.069 443.51 421.077 446.107" fill="#fe9526" class="color000000 svgShape"></polygon><path d="M200.58546,156.49765c5.01354,0,5.02184-7.79163,0-7.79163-5.01355,0-5.02185,7.79163,0,7.79163Z" fill="#fe9526" class="color000000 svgShape"></path></svg>