<svg xmlns="http://www.w3.org/2000/svg" id="deliveryguywithparcelonbike" data-name="Layer 1" viewBox="0 0 700 550"><path fill="#595bd4" d="M194.67059 351.44843a60.06421 60.06421 0 1060.05486 60.06421A60.06154 60.06154 0 00194.67059 351.44843zm0 18.20419a41.67222 41.67222 0 0121.6631 6.04577L197.14261 396.8726l-13.72028-25.67754A41.85419 41.85419 0 01194.67059 369.65262zm-27.26793 10.11776L180.5 404.27905l-27.536 3.70779A41.73156 41.73156 0 01167.40266 379.77038zm12.52264 70.92909a41.98589 41.98589 0 01-24.5468-24.7l28.73364-3.87083zm.78572-39.18683a13.9549 13.9549 0 1113.95957 13.95981A13.96175 13.96175 0 01180.711 411.51264zm17.20772 41.726l4.3307-29.55773 24.1061 15.16682A41.77046 41.77046 0 01197.91874 453.23862zM234.969 422.80886L211.53352 408.054l17.9359-19.79482a41.86952 41.86952 0 015.49957 34.54971zM526.54175 351.44843a60.06421 60.06421 0 1060.05485 60.06421A60.06154 60.06154 0 00526.54175 351.44843zm0 18.20419a41.67224 41.67224 0 0121.6631 6.04577L529.01376 396.8726l-13.72028-25.67754A41.85431 41.85431 0 01526.54175 369.65262zm-27.26793 10.11776l13.09736 24.50867-27.536 3.70779A41.73161 41.73161 0 01499.27382 379.77038zm12.52263 70.92909a41.986 41.986 0 01-24.5468-24.7l28.73365-3.87083zm.78572-39.18683a13.9549 13.9549 0 1113.95958 13.95981A13.96175 13.96175 0 01512.58217 411.51264zm17.20772 41.726l4.3307-29.55773 24.10611 15.16682A41.77046 41.77046 0 01529.78989 453.23862zm37.05026-30.42976L543.40468 408.054l17.93589-19.79482a41.86949 41.86949 0 015.49958 34.54971zM288.78233 108.81359s-9.05169 11.257-11.90418 11.34159c0 0-6.325-13.78509-4.77891-20.19878.95846-3.97657.90251-18.24805 21.76492-21.22122 20.86247-2.973 27.48027 16.2775 27.48027 16.2775-1.76645.77945-3.64 1.53437-5.62047 2.24446a85.58318 85.58318 0 01-16.89952 4.17058s-6.41511-5.5837-9.93064 1.35352A11.011 11.011 0 00288.78233 108.81359z" class="color000000 svgShape"/><path fill="#595bd4" d="M321.34438 95.01264c.30174 2.79356.50387 5.60216.9154 8.35891a7.23205 7.23205 0 00.41615 1.87193 7.7928 7.7928 0 001.28616 1.46947c.99439.94555 2.08461 1.82265 3.14156 2.78969a9.38089 9.38089 0 011.54393 1.69085 2.05989 2.05989 0 01.30628.75192 1.82919 1.82919 0 01-.11541.89831 2.669 2.669 0 01-.96154 1.09067c-.33325.234-.65462.41089-.9306.58389-.26087.13727-.53305.41843-.43013.30755a.36913.36913 0 00.01669-.15624c-.02162-.07223.008.07431.01444.13254l.02618.22888c.00488.21393.00879.40593.0027.59556-.01106.37169-.03322.73681-.06421 1.09612a36.308 36.308 0 01-1.81209 8.41245 17.84493 17.84493 0 01-4.61393 7.45748 9.71353 9.71353 0 01-8.59723 1.79978 9.60464 9.60464 0 01-2.05009-.801l-1.92805-.92991-.9611-.46434a1.61015 1.61015 0 00-2.29.428 10.1877 10.1877 0 00-2.27164 3.34211A18.33807 18.33807 0 00300.7366 139.95a15.19174 15.19174 0 01.826-4.15194 10.79647 10.79647 0 012.10624-3.77918 3.0049 3.0049 0 012.14873-1.0874 1.66243 1.66243 0 01.68792.14205c.23884.08623.342.138.51952.20864l.95917.39711 1.91287.79324a8.69785 8.69785 0 009.14272-1.13623 16.645 16.645 0 004.03377-6.77821 35.92329 35.92329 0 001.81551-7.99019q.05868-.50869.0883-1.00289l.01346-.45654-.00041-.03282c-.00181-.029.01747.03053-.01012-.12935a1.21639 1.21639 0 01.066-.67083 1.70658 1.70658 0 01.58218-.73163 4.76068 4.76068 0 01.52343-.34379c.32473-.18907.62234-.3446.86836-.50773a1.37406 1.37406 0 00.45776-.42788.4075.4075 0 00.02431-.13279 1.5096 1.5096 0 00-.09837-.21229 8.46468 8.46468 0 00-1.22044-1.46736c-.96-.98432-2.00938-1.92946-2.99332-2.97517a8.55123 8.55123 0 01-1.36977-1.78012 6.99731 6.99731 0 01-.3974-2.23684C321.2904 100.62965 321.2582 97.82666 321.34438 95.01264zM288.78208 108.81358a6.87689 6.87689 0 002.39414 2.90883 4.10546 4.10546 0 001.70957.57211 12.635 12.635 0 001.97967.04716 8.24157 8.24157 0 01-.95089.43714 4.43793 4.43793 0 01-1.05044.18912 3.606 3.606 0 01-2.13174-.5058A4.198 4.198 0 01288.78208 108.81358z" class="color000000 svgShape"/><path fill="#595bd4" d="M298.82431 101.42766c1.921-.07831 3.837-.062 5.75236-.0314 1.91541.02838 3.82686.1344 5.74052.1979 1.91.13325 3.82194.22927 5.72984.39758 1.90808.169 3.81559.3514 5.71782.63-1.921.07968-3.83678.063-5.75226.03309-1.91537-.03081-3.82673-.1339-5.74026-.19952-1.90994-.13553-3.82209-.22854-5.72991-.39912C302.63415 101.88785 300.72688 101.705 298.82431 101.42766zM315.115 107.87011a1.29571 1.29571 0 00-.66534-2.50294 1.29571 1.29571 0 00.66534 2.50294z" class="color000000 svgShape"/><rect width="11.669" height="2.59" x="314.42" y="104.941" fill="#595bd4" class="color000000 svgShape" transform="rotate(-88.354 320.255 106.236)"/><path fill="#595bd4" d="M301.77664 127.6553a10.72624 10.72624 0 01-5.34547-5.10153 10.21481 10.21481 0 01-1.06-3.62773 10.66522 10.66522 0 01.25616-3.71818 21.2166 21.2166 0 00.40887 3.61245 13.009 13.009 0 001.16618 3.34668 14.2501 14.2501 0 001.95772 2.96714A18.03486 18.03486 0 00301.77664 127.6553zM325.07806 121.91894a10.40831 10.40831 0 01-5.281.214 6.06744 6.06744 0 01-2.4896-1.12322 3.61362 3.61362 0 01-1.38784-2.29137 5.82136 5.82136 0 004.07046 2.57362A36.26848 36.26848 0 00325.07806 121.91894zM275.69545 134.38659l-.42853-.11041c2.50289-9.69905 1.40817-14.02086 1.39694-14.0639l.42853-.11509C277.14011 120.275 278.2339 124.55281 275.69545 134.38659z" class="color000000 svgShape"/><path fill="#595bd4" d="M275.47815,130.18127l-3.62171,14.36214c2.96066.19158,5.883.57473,8.79567,1.02513,2.90289.43122,5.79641.9773,8.68035,1.54255,2.87435.60362,5.7487,1.22642,8.60386,1.96419,2.85517.71859,5.69139,1.51378,8.4986,2.48149v-8.61345C299.72811,142.94332,275.47815,130.18127,275.47815,130.18127Zm43.31637,77.21438c4.072-2.23225,12.20638-23.60786,12.20638-23.60786l-24.566-32.231c-2.96066-.1917-5.89255-.57485-8.79544-1.01555-2.91271-.44081-5.80623-.98688-8.69017-1.55226-2.87435-.6035-5.74869-1.22641-8.59427-1.96406-2.85517-.71859-5.701-1.51378-8.4986-2.48149C246.21726,192.085,254.917,250.41518,254.917,250.41518c24.41277,5.15455,64.96988-16.3455,64.96988-16.3455-1.56185-2.54851-5.03011-31.13876-5.03011-31.13876Zm-8.78585-10.57751a72.3565,72.3565,0,0,1-4.00486-6.678,62.43842,62.43842,0,0,1-3.1906-7.12844,40.892,40.892,0,0,1-2.079-7.52119c1.19764,2.31869,2.28979,4.63725,3.44907,6.92716,1.16888,2.28032,2.29962,4.57982,3.51645,6.83137,2.35692,4.54146,4.8287,9.0159,7.1475,13.68192A47.90837,47.90837,0,0,1,310.00867,196.81814Z" class="color000000 svgShape"/><path fill="#595bd4" d="M255.78017,240.81719a16.29782,16.29782,0,0,0,.49052,7.44434,21.20115,21.20115,0,0,0,3.31621,6.69465,30.33891,30.33891,0,0,0,5.15666,5.42542,45.94523,45.94523,0,0,0,6.20693,4.225,70.508,70.508,0,0,0,13.89782,5.76016c2.40324.74478,4.84625,1.35366,7.28762,1.96722,2.46149.53426,4.91877,1.08654,7.40692,1.49635,2.47318.484,4.98005.78268,7.471,1.16513,2.508.28866,5.00344.6007,7.52364.85052,5.035.51625,10.07331,1.00279,15.10342,1.567,10.07261,1.12325,20.10733,2.14944,30.193,3.57071l.50876.07181-.043.52467-1.8,21.96765c-.61871,7.32107-1.1532,14.64846-1.72325,21.97327-.58152,7.32388-1.0842,14.6536-1.60536,21.98192l-1.5022,21.98965-.36912-.41544c4.78824.15111,9.59074.1745,14.37688.03439,2.39131-.08748,4.78426-.19228,7.15452-.43625,1.181-.13263,2.36769-.25941,3.52089-.48795a13.38387,13.38387,0,0,0,3.27738-.95671l-.2952.39953,8.9014-47.99678,4.32672-24.01487q1.0607-6.00554,2.032-12.01692l.43181-3.00042c.084-.50783.12047-.98525.16374-1.46572a12.88334,12.88334,0,0,0,.09848-1.46477,54.431,54.431,0,0,0-.25754-6.0053,31.96994,31.96994,0,0,0-1.17543-5.82027,23.83666,23.83666,0,0,0-1.04887-2.76137,22.22449,22.22449,0,0,0-9.79729-10.681c-3.43341-1.96956-7.35944-3.08136-11.23891-4.27994-3.88019-1.18829-7.7992-2.26828-11.71868-3.34382-7.84948-2.11786-15.73756-4.10591-23.63921-6.03851-7.89743-1.95132-15.8-3.89024-23.72318-5.74144l.03415-.156c7.96668,1.66126,15.9254,3.36323,23.86283,5.16484,7.93136,1.82641,15.85078,3.70849,23.74167,5.723,3.94123,1.02431,7.88223,2.05284,11.7982,3.19411,1.96255.55157,3.91153,1.16466,5.85957,1.78524a36.12412,36.12412,0,0,1,5.71361,2.45727,23.90965,23.90965,0,0,1,9.10537,8.47544,21.14491,21.14491,0,0,1,1.46548,2.78851,25.44121,25.44121,0,0,1,1.12209,2.9361,33.55022,33.55022,0,0,1,1.25214,6.12038,55.97,55.97,0,0,1,.2814,6.1805,14.94141,14.94141,0,0,1-.09848,1.57752c-.04561.53286-.08888,1.0697-.17029,1.5663l-.4304,3.04089q-.95087,6.04378-2.01,12.05574c-1.3815,8.02422-2.904,16.019-4.40743,24.01722q-4.52415,23.992-9.34069,47.92426l-.05941.295-.23579.10479a14.20019,14.20019,0,0,1-3.62334,1.02806c-1.20677.22222-2.41307.33473-3.6189.45426-2.4119.21637-4.82169.29029-7.23008.34736-4.81771.07953-9.62513-.00865-14.43559-.2283l-.40069-.01824.03134-.39742,1.72559-21.973c.55485-7.326,1.12817-14.65033,1.62243-21.98075.50573-7.32949,1.04724-14.65641,1.50455-21.98941l1.42758-21.995.466.59625c-4.96461-.64374-10.03823-1.1097-15.055-1.67741L329.491,278.82065l-15.09547-1.61425c-2.51458-.26573-5.03993-.59765-7.55756-.90432-2.50827-.40163-5.02893-.719-7.5213-1.22314a111.46779,111.46779,0,0,1-14.80822-3.63106,71.49793,71.49793,0,0,1-14.00214-6.06962,46.78842,46.78842,0,0,1-6.2591-4.40907,30.57085,30.57085,0,0,1-5.12671-5.68577,21.66839,21.66839,0,0,1-3.20207-6.92645,16.538,16.538,0,0,1-.29286-7.58025Z" class="color000000 svgShape"/><polygon fill="#595bd4" points="292.256 236.74 293.827 237.012 293.822 237.036 292.256 236.74" class="color000000 svgShape"/><polygon fill="#595bd4" points="296.97 237.57 298.541 237.854 298.523 237.95 296.957 237.642 296.97 237.57" class="color000000 svgShape"/><polygon fill="#595bd4" points="301.684 238.429 303.255 238.72 303.222 238.888 301.657 238.573 301.684 238.429" class="color000000 svgShape"/><polygon fill="#595bd4" points="306.394 239.309 307.964 239.608 307.917 239.847 306.351 239.525 306.394 239.309" class="color000000 svgShape"/><polygon fill="#595bd4" points="311.104 240.212 312.673 240.517 312.61 240.828 311.047 240.499 311.104 240.212" class="color000000 svgShape"/><polygon fill="#595bd4" points="315.806 241.134 317.372 241.447 317.292 241.829 315.731 241.492 315.806 241.134" class="color000000 svgShape"/><polygon fill="#595bd4" points="320.504 242.093 322.067 242.421 321.979 242.833 320.419 242.497 320.504 242.093" class="color000000 svgShape"/><polygon fill="#595bd4" points="325.196 243.086 326.758 243.422 326.662 243.859 325.103 243.514 325.196 243.086" class="color000000 svgShape"/><polygon fill="#595bd4" points="329.883 244.105 331.443 244.45 331.339 244.91 329.782 244.557 329.883 244.105" class="color000000 svgShape"/><polygon fill="#595bd4" points="334.56 245.151 336.118 245.506 336.006 245.99 334.45 245.627 334.56 245.151" class="color000000 svgShape"/><polygon fill="#595bd4" points="339.233 246.229 340.79 246.596 340.668 247.104 339.115 246.729 339.233 246.229" class="color000000 svgShape"/><polygon fill="#595bd4" points="343.903 247.344 345.457 247.724 345.325 248.256 343.774 247.867 343.903 247.344" class="color000000 svgShape"/><polygon fill="#595bd4" points="348.56 248.5 350.112 248.896 349.968 249.45 348.42 249.046 348.56 248.5" class="color000000 svgShape"/><polygon fill="#595bd4" points="353.208 249.705 354.756 250.12 354.599 250.697 353.055 250.274 353.208 249.705" class="color000000 svgShape"/><polygon fill="#595bd4" points="357.841 250.97 359.381 251.407 359.207 252.005 357.674 251.561 357.841 250.97" class="color000000 svgShape"/><polygon fill="#595bd4" points="362.452 252.308 363.984 252.775 363.791 253.393 362.266 252.92 362.452 252.308" class="color000000 svgShape"/><polygon fill="#595bd4" points="367.036 253.744 368.556 254.251 368.338 254.888 366.828 254.376 367.036 253.744" class="color000000 svgShape"/><polygon fill="#595bd4" points="371.581 255.319 373.082 255.885 372.828 256.536 371.34 255.966 371.581 255.319" class="color000000 svgShape"/><polygon fill="#595bd4" points="376.056 257.108 377.521 257.778 377.207 258.43 375.767 257.762 376.056 257.108" class="color000000 svgShape"/><polygon fill="#595bd4" points="380.372 259.309 381.725 260.233 381.267 260.825 379.982 259.938 380.372 259.309" class="color000000 svgShape"/><polygon fill="#595bd4" points="383.83 262.841 384.308 264.425 383.552 264.594 383.118 263.123 383.83 262.841" class="color000000 svgShape"/><polygon fill="#595bd4" points="384.772 267.636 384.876 269.244 384.078 269.279 383.984 267.701 384.772 267.636" class="color000000 svgShape"/><polygon fill="#595bd4" points="384.92 272.458 384.889 274.061 384.115 274.041 384.138 272.453 384.92 272.458" class="color000000 svgShape"/><polygon fill="#595bd4" points="384.752 277.265 384.653 278.865 383.906 278.817 383.996 277.225 384.752 277.265" class="color000000 svgShape"/><polygon fill="#595bd4" points="384.407 282.055 384.265 283.648 383.545 283.583 383.679 281.995 384.407 282.055" class="color000000 svgShape"/><polygon fill="#595bd4" points="383.946 286.835 383.772 288.424 383.078 288.348 383.243 286.762 383.946 286.835" class="color000000 svgShape"/><polygon fill="#595bd4" points="383.398 291.604 383.2 293.189 382.533 293.106 382.722 291.523 383.398 291.604" class="color000000 svgShape"/><polygon fill="#595bd4" points="382.784 296.364 382.567 297.946 381.926 297.859 382.134 296.278 382.784 296.364" class="color000000 svgShape"/><polygon fill="#595bd4" points="382.116 301.116 381.884 302.697 381.269 302.607 381.493 301.027 382.116 301.116" class="color000000 svgShape"/><polygon fill="#595bd4" points="381.405 305.862 381.159 307.44 380.57 307.35 380.807 305.771 381.405 305.862" class="color000000 svgShape"/><polygon fill="#595bd4" points="380.656 310.595 380.399 312.172 379.836 312.081 380.084 310.504 380.656 310.595" class="color000000 svgShape"/><polygon fill="#595bd4" points="379.875 315.326 379.608 316.902 379.07 316.812 379.328 315.235 379.875 315.326" class="color000000 svgShape"/><polygon fill="#595bd4" points="379.064 320.056 378.788 321.632 378.275 321.543 378.543 319.967 379.064 320.056" class="color000000 svgShape"/><polygon fill="#595bd4" points="378.228 324.78 377.944 326.356 377.456 326.269 377.732 324.693 378.228 324.78" class="color000000 svgShape"/><polygon fill="#595bd4" points="377.368 329.502 377.077 331.077 376.615 330.993 376.898 329.416 377.368 329.502" class="color000000 svgShape"/><polygon fill="#595bd4" points="376.488 334.22 376.19 335.791 375.753 335.709 376.043 334.137 376.488 334.22" class="color000000 svgShape"/><polygon fill="#595bd4" points="375.588 338.931 375.284 340.501 374.872 340.422 375.168 338.851 375.588 338.931" class="color000000 svgShape"/><polygon fill="#595bd4" points="374.67 343.639 374.354 345.206 373.979 345.133 374.275 343.562 374.67 343.639" class="color000000 svgShape"/><polygon fill="#595bd4" points="373.712 348.34 373.389 349.906 373.087 349.845 373.386 348.275 373.712 348.34" class="color000000 svgShape"/><polygon fill="#595bd4" points="372.736 353.038 372.407 354.603 372.177 354.556 372.482 352.986 372.736 353.038" class="color000000 svgShape"/><polygon fill="#595bd4" points="371.743 357.73 371.409 359.294 371.251 359.262 371.562 357.693 371.743 357.73" class="color000000 svgShape"/><polygon fill="#595bd4" points="370.733 362.42 370.392 363.986 370.307 363.968 370.624 362.398 370.733 362.42" class="color000000 svgShape"/><polygon fill="#595bd4" points="369.704 367.11 369.356 368.673 369.342 368.67 369.667 367.102 369.704 367.11" class="color000000 svgShape"/><path fill="#595bd4" d="M359.44145 281.71581a12.33141 12.33141 0 004.9087-2.46593 9.6691 9.6691 0 001.88723-2.062 10.22125 10.22125 0 001.25519-2.52815 10.32952 10.32952 0 01-1.08654 2.63552 9.96669 9.96669 0 01-1.78945 2.25236 12.56227 12.56227 0 01-2.31178 1.74665 12.76 12.76 0 01-2.67833 1.199zM359.83513 282.79533a4.9363 4.9363 0 001.371 1.80933 3.1064 3.1064 0 002.131.68163 5.10588 5.10588 0 002.23763-.7897c.32865-.23906.67671-.458.9946-.717l.92327-.81964-.8573.89449c-.29824.28632-.63181.53637-.949.808a5.39465 5.39465 0 01-2.30875 1.02127 3.61165 3.61165 0 01-2.52277-.59344 5.58991 5.58991 0 01-1.74781-1.96582zM274.7212 350.64353l-.28748-1.87787-.15322-.94853-.23953-.91016-.49823-1.83974-.68982-1.77238-.35462-.88139-.44069-.83367-.891-1.6767-1.0828-1.56162-.53636-.77613-.62292-.71858a35.6711 35.6711 0 00-12.12007-9.04456 68.46338 68.46338 0 00-14.54413-4.85771 145.24975 145.24975 0 00-30.70765-2.836l-3.87082.03837-1.93541.02853-1.91624.11509-3.84205.22035-3.81328.48865-1.90664.24912-1.88746.37379c-1.25519.25871-2.52.48842-3.76533.7759-2.46242.6994-4.96321 1.30314-7.3585 2.23248-2.443.78572-4.7618 1.88746-7.10914 2.90312l-3.42054 1.76278c-1.15928.56538-2.21307 1.29355-3.32463 1.93542a82.84647 82.84647 0 00-12.33083 9.198 102.84225 102.84225 0 00-19.239 24.02961 123.98006 123.98006 0 00-12.3596 28.35049c3.89936-.1628 8.76666-.364 14.295-.58432.04795 0 .09567-.00959.14362-.00959 4.67573-.3642 9.35122-.62291 14.03654-.92934l14.17992-.73777c9.46631-.47906 18.92279-.81449 28.39868-1.09238 9.46607-.24912 18.93237-.45029 28.408-.43111 4.74286.01918 9.4759.05755 14.21852.182 2.36652.0959 4.733.19158 7.09956.36421 1.18828.0959 2.36675.20116 3.54521.37356a12.21656 12.21656 0 013.37259 1.14969c5.74869 2.1464 7.72223 2.1464 7.72223 2.1464l.01918-.00982v-.00936a150.16534 150.16534 0 008.1248-13.17409 77.0616 77.0616 0 005.94027-14.24729A40.16272 40.16272 0 00274.7212 350.64353zM247.76952 390.185c-1.16887-.11486-2.35716-.16281-3.53563-.19158-2.35692-.05754-4.72344-.02877-7.09-.00959q-7.09955.05754-14.18975.2683l-28.38885.79531-28.38909.72794-14.04589.29708 98.89667-1.025A11.22887 11.22887 0 00247.76952 390.185zm-21.45234-39.35923c-2.9892-.12468-5.97863-.163-8.96783-.17263-2.98943.01918-5.97863.048-8.95848.17263-2.98919.12444-5.97863.29683-8.96806.62268 2.98943.33543 5.97887.50783 8.96806.62268 2.97985.12468 5.969.163 8.95848.182 2.9892-.019 5.97863-.04772 8.96783-.182 2.98943-.11485 5.97863-.28725 8.95847-.62268C232.29581 351.12258 229.30661 350.9406 226.31718 350.82575zm0-5.174c-2.9892-.12444-5.97863-.1628-8.96783-.17239-2.98943.01918-5.97863.04795-8.95848.182-2.98919.11509-5.97863.28748-8.96806.61333 2.98943.3352 5.97887.50759 8.96806.62268 2.97985.13427 5.969.1628 8.95848.182 2.9892-.01918 5.97863-.04771 8.96783-.182 2.98943-.11509 5.97863-.28748 8.95847-.62268C232.29581 345.94885 229.30661 345.76687 226.31718 345.65178zm0-5.17373c-2.9892-.12468-5.97863-.15321-8.96783-.17239-2.98943.01918-5.97863.04771-8.95848.182-2.98919.11485-5.97863.28725-8.96806.61309 2.98943.33544 5.97887.50783 8.96806.62292 2.97985.134 5.969.1628 8.95848.182 2.9892-.01918 5.97863-.04795 8.96783-.182 2.98943-.11509 5.97863-.28748 8.95847-.62292C232.29581 340.77489 229.30661 340.60249 226.31718 340.47805zM299.55571 421.2566c-6.61113-.14362-10.961-.39274-11.9479-.72794-5.66238-1.8877-14.659-37.62522-14.93688-38.73679 3.95691 6.92716 8.326 13.57643 12.77176 20.16838C289.94579 408.533 294.55414 415.02885 299.55571 421.2566zM401.595 223.31965a11.03818 11.03818 0 01-2.09846.527q-.77577-2.17016-1.49448-4.25421-.3021-.84771-.575-1.69589a16.32223 16.32223 0 002.29938-1.60957.99344.99344 0 011.1401-.0766c1.14993.72806 2.32839 1.50419 3.53563 2.19424-.03836.38315-.01918.74712-.048 1.10174a8.849 8.849 0 01-.16281 1.04419 3.44113 3.44113 0 01-.90057 1.73425A4.35564 4.35564 0 01401.595 223.31965z" class="color000000 svgShape"/><path fill="#595bd4" d="M445.285,337.99645l-.16281,2.42406c-.03836.8049-.163,1.60957-.27789,2.41447-.12468.79507-.20117,1.6-.35438,2.39529-.35461,1.59038-.61332,3.19036-1.09238,4.74262l-.65146,2.34734-.79531,2.30921c-.48864,1.552-1.13051,3.04674-1.75342,4.55105a85.27529,85.27529,0,0,1-4.32111,8.75707c-.74713,1.44676-1.66712,2.80745-2.50055,4.20626-.84327,1.38922-1.73425,2.77844-2.62523,4.16766-3.50662,5.5763-6.77394,11.325-9.88782,17.11205a89.70328,89.70328,0,0,1-4.92461,8.42187,10.33365,10.33365,0,0,1-7.49253,4.915c-3.15224.364-6.48646.33544-9.75355.42152l-9.84946.11508-19.7085.11486-78.01929.19157c-1.42758-2.19389-2.88394-4.36883-4.34988-6.54377-4.5031-6.56318-9.1021-13.06859-14.10344-19.29634l-13.74905,11.459a135.44124,135.44124,0,0,0,8.4986-12.97292,77.6314,77.6314,0,0,0,6.31383-14.21852,40.92012,40.92012,0,0,0,2.00255-15.48306l-.27789-1.9546-.134-.97729-.23953-.96771-.48864-1.91623-.69941-1.85869-.35462-.92934-.45028-.88163-.91016-1.76278-1.10174-1.64793-.55579-.82409-.6325-.76653A35.8497,35.8497,0,0,0,257.408,326.5566a69.95959,69.95959,0,0,0-14.83161-5.0301,146.87564,146.87564,0,0,0-31.02367-3.018c-10.35728-.00983-20.97328,1.04419-30.78414,4.75221-2.4816.81426-4.84812,1.9546-7.23382,2.99879l-3.47808,1.811c-1.16887.57473-2.25167,1.33168-3.38218,1.98313a78.56841,78.56841,0,0,0-12.42673,9.4759,103.07361,103.07361,0,0,0-19.08559,24.5468,126.494,126.494,0,0,0-6.77394,14.00776,103.69208,103.69208,0,0,0-4.915,14.72611c-6.29488.25871-10.0698.43134-10.0698.43134s18.98032-84.37171,66.67511-98.42719c0,0-3.19036-17.85941-4.46473-21.69187s0-5.42309,0-5.42309l64.76847-4.14848,25.71591,1.80138s71.6,14.46741,78.57507,21.21258a16.19812,16.19812,0,0,1,4.00509,6.66844,23.36293,23.36293,0,0,1-3.43013,20.89656c-6.64927,9.28409-10.20407,5.26005-10.20407,5.26005.96771-1.19765,1.945-2.39529,2.817-3.68884l1.14969-2.02149.57473-1.01566.43134-1.09239c.29684-.71858.59391-1.44653.8718-2.18429l.57473-2.29a11.68018,11.68018,0,0,0,.24935-1.14969l.12444-1.17847a14.99409,14.99409,0,0,0,.1724-2.35692,22.81116,22.81116,0,0,0-1.77237-9.22678,21.91069,21.91069,0,0,0-5.19315-7.67451,31.52654,31.52654,0,0,1,4.024,8.10585,26.12,26.12,0,0,1,1.35109,8.77626,15.57978,15.57978,0,0,1-.13427,2.21307l-.09567,1.102c-.03836.37356-.15321.72818-.21075,1.09215l-.4407,2.19412c-.23953.709-.45988,1.418-.68023,2.13658l-.33543,1.0732-.45988,1.03484-.89121,2.08863c-.661,1.36045-1.44653,2.66359-2.127,4.0624q-3.98066-1.29332-7.83732-2.52c-2.43365-2.10781-4.74263-4.388-7.37744-6.25652-1.30314-.95812-2.53915-2.0119-3.89-2.89353l-4.04322-2.69213c-.67063-.45987-1.37963-.84326-2.079-1.24559l-2.11739-1.19765-2.108-1.19764c-.71859-.38315-1.45636-.72818-2.17495-1.08256-1.45635-.70923-2.90288-1.45636-4.37842-2.12722l-4.47455-1.89705-1.12093-.46947-1.1401-.41192-2.29-.83368-2.2898-.81426c-.76654-.25871-1.55226-.46946-2.32815-.709-1.55226-.45029-3.10429-.94853-4.66614-1.36045l-4.72344-1.16911a166.572,166.572,0,0,0-19.16231-3.20954,200.11831,200.11831,0,0,0-38.77491.1628q-9.64374.99156-19.1815,2.74967a182.28624,182.28624,0,0,0-18.79834,4.59924c6.26612-1.52349,12.58977-2.72114,18.96115-3.67925q9.52865-1.48034,19.15272-2.21331a212.0693,212.0693,0,0,1,38.4493.28749,166.94493,166.94493,0,0,1,18.97074,2.99879,144.88351,144.88351,0,0,1,18.40536,5.45162,115.86294,115.86294,0,0,1,17.38011,8.173A117.2791,117.2791,0,0,1,327.2068,316.87c-9.22654,23.63687-8.96783,62.97716,38.45889,68.237,47.43608,5.26963,47.80988-17.2269,48.28893-28.7147.47906-11.47821-14.36214-91.40413-16.26878-100.01758-1.91623-8.62305,10.041-13.25082,10.041-13.25082-2.76908-4.8673-5.71992-12.26369-8.2303-19.27716a4.90431,4.90431,0,0,0,2.27085.07649,3.947,3.947,0,0,0,2.09822-1.09215,3.37092,3.37092,0,0,0,.93893-2.18453,5.168,5.168,0,0,0-.05754-1.15929c-.10526-.37379-.21076-.73776-.34479-1.08255.59391.34479,1.188.6704,1.80114.96747a8.71046,8.71046,0,0,0,2.88394.9104,2.15015,2.15015,0,0,0,1.35109-.2779,1.18252,1.18252,0,0,0,.709-1.01565,2.80713,2.80713,0,0,0-.31625-1.37,7.74336,7.74336,0,0,0-.82409-1.29355,22.80061,22.80061,0,0,0-2.13657-2.28032c-1.552-1.418-3.2-2.7402-4.81912-4.09106-.83367-.65157-1.63857-1.38934-2.43365-1.88758a10.71978,10.71978,0,0,0-2.62546-1.21682,12.0096,12.0096,0,0,0-2.8933-.56526,14.07287,14.07287,0,0,0-1.43717-.10538c-.28748-.95811-.44093-1.49459-.44093-1.49459l2.16559-.575,17.61005-4.6852c.20116,1.55215.47906,3.08522.77613,4.6086.28725,1.533.64186,3.05633.98665,4.57011.3738,1.5139.73777,3.02779,1.16911,4.532.42151,1.4946.85262,2.98932,1.37963,4.47445L424.96336,232.92a38.37713,38.37713,0,0,0-4.62777,2.0215c-1.50431.73776-2.95084,1.56185-4.3976,2.39529-1.42758.86244-2.84558,1.74383-4.21585,2.702a39.66756,39.66756,0,0,0-3.98568,3.09469,38.95442,38.95442,0,0,0,4.61819-2.02172c1.50407-.73754,2.96042-1.56162,4.3976-2.39529,1.42758-.8718,2.84557-1.74361,4.21585-2.71131a39.36657,39.36657,0,0,0,3.99526-3.08511h4.30193a34.62092,34.62092,0,0,0-7.15709,6.74518,29.33154,29.33154,0,0,0-4.82894,8.61345,26.07072,26.07072,0,0,0-1.39881,9.78232,50.84727,50.84727,0,0,0,1.6767,9.77273,162.32353,162.32353,0,0,0,6.39055,18.70244q3.708,9.155,8.10562,18.01262c1.47554,2.94148,2.98944,5.87313,4.61819,8.74748.79531,1.44676,1.66711,2.85516,2.52955,4.26357l1.37963,2.07927,1.26455,2.03108a27.52407,27.52407,0,0,1,2.98943,9.09251,19.96764,19.96764,0,0,1,.28748,2.39529,22.71059,22.71059,0,0,1,.14363,2.41447Z" class="color000000 svgShape"/><path fill="#595bd4" d="M475.69554,326.71941S449.8456,245.845,429.26529,232.92a34.49138,34.49138,0,0,0-6.97511,6.89839,28.99173,28.99173,0,0,0-4.60859,8.59427,25.41807,25.41807,0,0,0-1.20723,9.61952c.08631.80466.11508,1.61916.23952,2.42406l.45052,2.40488c.12445.80466.364,1.6.546,2.39529.20117.78548.36421,1.59038.60374,2.3761a163.53622,163.53622,0,0,0,6.563,18.52045q3.79433,9.0827,8.26866,17.84958c1.5043,2.90312,3.03715,5.80624,4.68508,8.63264.8049,1.418,1.66711,2.80721,2.52,4.19666l1.35085,2.0215,1.3511,2.14617a28.74912,28.74912,0,0,1,3.17118,9.54279,19.91775,19.91775,0,0,1,.31625,2.49119,24.31584,24.31584,0,0,1,.16281,2.50079l.01918,2.50055-.15321,2.50055c-.02878.83367-.16281,1.65752-.2683,2.4816-.12468.82409-.21076,1.65753-.36421,2.472-.364,1.62875-.61309,3.27668-1.10174,4.86707l-.661,2.40511-.79531,2.36628c-.49824,1.581-1.1497,3.11388-1.782,4.647a86.40318,86.40318,0,0,1-4.35947,8.9297c-.75695,1.47553-1.6767,2.85517-2.52,4.27316-.86221,1.42758-1.73424,2.79785-2.61563,4.18684-3.50662,5.53817-6.76436,11.21014-9.89741,16.9972a89.77449,89.77449,0,0,1-5.05865,8.5559,14.16,14.16,0,0,1-3.60252,3.68861,10.88787,10.88787,0,0,1-2.34734,1.20747,14.15871,14.15871,0,0,1-2.53914.59391c-3.38218.3642-6.63968.31625-9.93554.39274l-9.86864.07672c-6.57277.03837-13.14532.00959-19.72768-.03836l-39.436-.364c-12.84848-.20117-25.70631-.3738-38.55456-.65169,2.92207,4.465,5.76788,8.98725,8.42187,13.634,31.66554.69,115.12709-1.28373,127.80294-10.7788,15.31067-11.48756,15.78973-22.48671,15.78973-22.48671v7.51147a10.92666,10.92666,0,0,0,10.15612,10.90325,76.399,76.399,0,0,0,13.39443-.07649c.06714-.00959.12445-.01918.19158-.02877a36.83645,36.83645,0,0,0,4.915-1.09239,16.2913,16.2913,0,0,0,4.599-2.14593,66.26613,66.26613,0,0,1,6.362-9.198c1.21659-1.43717,2.3857-2.9127,3.6982-4.26356l1.92582-2.06009c.65169-.67064,1.35109-1.30291,2.02173-1.964l2.04067-1.94524c.69941-.64186,1.42758-1.23577,2.13658-1.8491,1.43717-1.20723,2.84557-2.46242,4.37865-3.545l2.261-1.69588c.757-.55578,1.49472-1.14969,2.29-1.64793l4.733-3.06592c1.6-.98689,3.27668-1.85869,4.90566-2.79763l2.46219-1.36068,2.55833-1.19764c1.70547-.78573,3.39176-1.60957,5.10659-2.37611l5.26964-1.98337,2.63482-.99648c.88162-.29683,1.79179-.546,2.68277-.82384,1.80138-.5366,3.59293-1.09239,5.39431-1.6a26.33329,26.33329,0,0,1,2.73049-.661l2.74031-.58455,5.3749-1.11133.048-.00982a156.8029,156.8029,0,0,1,17.91672-2.61564,52.77,52.77,0,0,0-8.00013-10.82652,43.8362,43.8362,0,0,0-10.7788-7.85673,48.87987,48.87987,0,0,0-12.60871-4.33071,66.53976,66.53976,0,0,0-13.30836-1.37963,115.7136,115.7136,0,0,0-26.68361,3.17142c-4.388.98689-8.7379,2.19412-13.03983,3.56416q-6.46728,1.98349-12.75257,4.551a135.34877,135.34877,0,0,1,25.50515-9.30326,104.5486,104.5486,0,0,1,26.99-3.58334,66.3518,66.3518,0,0,1,13.60519,1.5043,33.3051,33.3051,0,0,1,3.33423.843c1.08279.35462,2.20371.62292,3.26732,1.054l3.2,1.26478,3.06592,1.56162a44.34939,44.34939,0,0,1,10.76945,8.40269l2.17494,2.64441a11.6357,11.6357,0,0,1,.99624,1.37l.94853,1.42758.93893,1.418c.30666.47906.54619.99648.81449,1.49472l1.56162,3.00838c4.283-.37356,8.74772-.6035,13.38508-.661C581.46205,353.04841,558.48646,286.52651,475.69554,326.71941Zm-6.199,6.13184a28.96209,28.96209,0,0,0-4.13913,7.54049,28.59368,28.59368,0,0,0-1.13051,4.12953c-.24912,1.37-.527,2.89353-.85262,4.35947-.41216,1.42759-.81449,2.87435-1.3415,4.254-.47906,1.4084-1.04443,2.76885-1.60957,4.13913A151.68249,151.68249,0,0,1,452.49,373.04439q-4.34029,7.67428-9.34163,14.93687,4.21082-7.73183,8.24948-15.52142c2.67318-5.2121,5.308-10.43378,7.54983-15.80891a67.104,67.104,0,0,0,2.96067-8.16316c.34479-1.38922.63227-2.74008.93893-4.254a17.33959,17.33959,0,0,1,.58432-2.17494,16.39356,16.39356,0,0,1,.76654-2.1174A27.42607,27.42607,0,0,1,475.69554,326.729,29.813,29.813,0,0,0,469.49656,332.85125Z" class="color000000 svgShape"/><path fill="#595bd4" d="M338.14677 320.167a61.88691 61.88691 0 00-2.02009 16.67393 45.35422 45.35422 0 003.01189 16.3448 34.90542 34.90542 0 009.39121 13.46134l.76514.69566.82081.63134 1.6374 1.26712 1.73869 1.12911a17.24871 17.24871 0 001.77425 1.07109 38.40879 38.40879 0 003.70708 1.86968l1.89962.84514 1.95787.7104c.654.23157 1.30174.48584 1.95974.70338l1.99483.57567c.65262.18409 1.35834.403 1.967.55929.66478.11485 1.35226.21169 2.03857.28467a50.41322 50.41322 0 008.30538.19134 40.19614 40.19614 0 0015.9523-4.16976 30.83374 30.83374 0 0012.09013-11.12781 45.56852 45.56852 0 005.9929-15.61054c-.25825 1.38314-.43672 2.78779-.76186 4.16134-.34152 1.36981-.65052 2.752-1.1263 4.08673a37.309 37.309 0 01-3.43762 7.773 31.74822 31.74822 0 01-12.17878 11.802 40.13244 40.13244 0 01-16.43182 4.59549 50.17859 50.17859 0 01-8.57345-.149c-.71461-.07345-1.42338-.16912-2.14687-.29076-.75672-.18339-1.39718-.38713-2.10126-.57987l-2.06758-.58736c-.67929-.222-1.34665-.47672-2.01962-.716l-2.01073-.74057-1.95764-.88046a39.91776 39.91776 0 01-3.825-1.95085 18.3162 18.3162 0 01-1.83577-1.11905l-1.79927-1.1815-1.69939-1.3256-.84771-.665-.78923-.73519a35.18583 35.18583 0 01-9.52642-14.14741 39.95294 39.95294 0 01-2.10149-8.28644 51.48813 51.48813 0 01-.546-8.49766 60.66043 60.66043 0 01.80443-8.44971A51.29931 51.29931 0 01338.14677 320.167zM235.26232 267.81846c-16.52422-.0379-33.04867.34713-49.57289.6325-8.26211.15579-16.52422.28281-24.78633.30175l-12.39328.01334-6.19641-.02363-3.09844-.02316-1.549-.01146c-.24093.00328-.546-.0117-.85239-.03181a7.47245 7.47245 0 01-.898-.1345 6.72037 6.72037 0 01-4.98683-4.74918 6.86533 6.86533 0 01-.24116-1.77237l.01754-1.56021.0421-3.09821.171-12.39328.17473-12.39305.07766-12.39328c.07836-8.26211.03322-16.52422-.00655-24.78633q-.01333-6.19675-.09427-12.39328l-.03509-3.09832a6.56366 6.56366 0 01.72584-3.26311 6.4374 6.4374 0 015.58589-3.40218q24.78633-.3456 49.57266-.47122l24.78656-.12175 12.393-.02877 6.19664-.00375 3.0982-.00175 1.54922-.00094c.236-.00456.55391.00959.87414.02971a7.76551 7.76551 0 01.93543.13731 7.05891 7.05891 0 015.24554 4.932 7.19551 7.19551 0 01.269 1.86l-.00257 1.56431-.01263 3.0982c-.0145 4.13117-.0269 8.26223-.087 12.39328-.10152 8.26211-.1635 16.52422-.35274 24.78633l-.4559 24.78633c-.08725 4.13117-.10433 8.26211-.15532 12.39328l-.02012 3.09821a6.14065 6.14065 0 01-.72069 3.05329A5.94663 5.94663 0 01235.26232 267.81846zm0-.23977a5.68127 5.68127 0 004.94262-2.97376 5.83166 5.83166 0 00.66058-2.91551l-.02012-3.09821c-.051-4.13117-.06807-8.26211-.15532-12.39328l-.4559-24.78633c-.18923-8.26211-.25122-16.52422-.35274-24.78633-.06012-4.131-.07251-8.26211-.087-12.39328l-.01239-3.0982-.00983-1.5339a4.70709 4.70709 0 00-.18315-1.1953 4.52361 4.52361 0 00-3.3761-3.12745 5.29007 5.29007 0 00-.59625-.0814c-.19532-.00854-.39321-.02187-.67391-.01626l-1.54922-.00081-3.0982-.00188-6.19664-.00374-12.393-.02865-24.78656-.12176q-24.78633-.10508-49.57266-.47133a5.19079 5.19079 0 00-4.55479 2.64721 5.40283 5.40283 0 00-.655 2.70546l-.03532 3.09832q-.08562 6.19659-.09427 12.39328c-.03977 8.26211-.08491 16.52422-.00655 24.78633l.07789 12.39328.1745 12.39305.171 12.39328.0421 3.09821.0248 1.53822a5.03469 5.03469 0 00.211 1.28279 4.86172 4.86172 0 003.63457 3.31013 6.09625 6.09625 0 001.32957.09848l1.549-.0117 3.09844-.02292 6.19641-.02363 12.39328.01334c8.26211.01894 16.52422.146 24.78633.30175C202.21365 267.23133 218.7381 267.61635 235.26232 267.57869z" class="color000000 svgShape"/><path fill="#595bd4" d="M131.5856 200.696c9.11988-.496 18.23952-.75555 27.3594-.9318 9.11987-.19134 18.23952-.24234 27.35939-.2662 9.11964.02094 18.23952.07193 27.35939.26257 9.11965.17567 18.23952.43637 27.3594.93543-9.11988.49906-18.23975.75987-27.3594.93554-9.11987.19053-18.23975.24164-27.35939.26257-9.11987-.02386-18.23952-.075-27.35939-.26619C149.82512 201.45164 140.70548 201.19211 131.5856 200.696zM130.35241 256.79615v5.31759h2.41447L172.797 299.03955l6.96015-2.60986-18.68747-17.24227V262.11374h49.50576l.0018 16.74784h6.64926l-.0018-16.74784h25.90749v-5.31759zm4.10076 3.7272a1.43809 1.43809 0 010-2.87435A1.43809 1.43809 0 01134.45317 260.52335zm7.02283 0a1.43809 1.43809 0 010-2.87435A1.43809 1.43809 0 01141.476 260.52335zm12.95374 12.532l-11.86136-10.9416h11.86136zm2.68277 7.24341a1.438 1.438 0 010-2.87434A1.438 1.438 0 01157.11251 280.29875zm0-20.10124a1.438 1.438 0 010-2.87435A1.438 1.438 0 01157.11251 260.19751zm56.78753.32584a1.43809 1.43809 0 010-2.87435A1.43809 1.43809 0 01213.9 260.52335zm25.84994.63227a1.438 1.438 0 010-2.87434A1.438 1.438 0 01239.75 261.15562z" class="color000000 svgShape"/><polygon fill="#595bd4" points="412.996 199.42 424.961 187.296 429.587 220.797 417.303 217.606 412.996 199.42" class="color000000 svgShape"/><path fill="#595bd4" d="M411.77344,219.05692a2.09576,2.09576,0,0,1-.3036.89507,2.28381,2.28381,0,0,1-.68738.61539,3.25435,3.25435,0,0,1-1.70215.48748,11.15463,11.15463,0,0,1-3.3087-.53548,23.2127,23.2127,0,0,1-5.37045-2.41344,17.03852,17.03852,0,0,1-2.39753,1.48646,13.996,13.996,0,0,1-3.30051,1.17477,9.59461,9.59461,0,0,1-3.5085.1279,7.36188,7.36188,0,0,1-3.18071-1.32667.09877.09877,0,0,1-.032-.11189.101.101,0,0,1,.136-.0639,8.85621,8.85621,0,0,0,3.14871.51939,10.23955,10.23955,0,0,0,3.06091-.55139,14.76,14.76,0,0,0,2.84492-1.31056c.088-.048.168-.096.25579-.1519a16.36037,16.36037,0,0,0,2.30154-1.61435.98447.98447,0,0,1,1.135-.0719,57.519,57.519,0,0,0,5.33845,3.16471,8.76734,8.76734,0,0,0,2.88512.90307,2.14738,2.14738,0,0,0,1.35056-.27169,1.18361,1.18361,0,0,0,.71118-1.015,2.727,2.727,0,0,0-.31959-1.37456,8.61356,8.61356,0,0,0-.82318-1.29476,22.94115,22.94115,0,0,0-2.13374-2.27754c-1.55835-1.42256-3.2047-2.74122-4.82706-4.09188-.83117-.65528-1.63835-1.39056-2.42953-1.88605a10.63987,10.63987,0,0,0-2.62932-1.22267,11.89715,11.89715,0,0,0-2.88492-.55948c-.47159-.0559-.95117-.0959-1.43856-.11189a12.67482,12.67482,0,0,0-1.55836.04,30.3068,30.3068,0,0,0-6.08182,1.015,54.07916,54.07916,0,0,0-6.00183,2.02995.11059.11059,0,0,1-.1278-.032.10228.10228,0,0,1,.024-.1439,26.3652,26.3652,0,0,1,5.65-3.18871,23.80283,23.80283,0,0,1,6.36162-1.73425,17.03785,17.03785,0,0,1,3.3805-.0559.27149.27149,0,0,1,.0798.008,11.87551,11.87551,0,0,1,6.36942,2.27764,30.03317,30.03317,0,0,1,2.50953,2.15774,45.88268,45.88268,0,0,1,4.45127,4.69926,25.312,25.312,0,0,1,1.92615,2.63723,9.17977,9.17977,0,0,1,.79117,1.46246A3.38664,3.38664,0,0,1,411.77344,219.05692Z" class="color000000 svgShape"/><path fill="#595bd4" d="M329.86875 186.65243c1.37823 1.20571 2.71037 2.45657 4.05819 3.69211 1.35367 1.22969 2.6671 2.49891 3.99667 3.75211L337.74 193.974l21.03293 7.72177q5.25186 1.94226 10.52266 3.82346c3.51481 1.25635 7.028 2.51295 10.62372 3.56311a88.75589 88.75589 0 01-10.95985-2.51529q-5.40168-1.563-10.70512-3.42089-5.30484-1.84594-10.53506-3.8893c-3.48487-1.36759-6.94681-2.78523-10.38185-4.28193l-.12-.0524-.06409-.07053c-1.22665-1.35413-2.46991-2.69212-3.67293-4.06976C332.27176 189.4104 331.04721 188.05393 329.86875 186.65243zM319.88292 206.46923a5.28612 5.28612 0 001.17168 1.84548 10.15061 10.15061 0 001.63109 1.44688 16.01473 16.01473 0 003.86638 1.99985 37.08915 37.08915 0 008.5 2.00185c2.90406.36175 5.86378.64151 8.801.92326l8.82936.85121c11.77317 1.16326 23.55359 2.29845 35.29776 3.91527-11.84826-.35672-23.66-1.20559-35.45191-2.32535-5.8963-.61005-11.77669-1.18314-17.66269-2.136a34.24285 34.24285 0 01-8.61976-2.514 16.60345 16.60345 0 01-3.82054-2.38488A7.31886 7.31886 0 01319.88292 206.46923z" class="color000000 svgShape"/><circle cx="400.399" cy="219.73" r="4.218" fill="#595bd4" class="color000000 svgShape"/><path fill="#595bd4" d="M360.154,383.49819c-2.99074-.17422-5.97438-.39205-8.95838-.62423a7.06058,7.06058,0,0,0,1.7061,3.325s48.85777,4.76951,56.16853.95089c0,0,2.548-6.19965-2.062-8.42117-1.5317-.7405-4.951-2.09815-9.1615-3.87675a14.35919,14.35919,0,0,0-3.67346,1.12529,12.99144,12.99144,0,0,0-3.1942,2.07618,12.348,12.348,0,0,0-1.31406,1.37219,11.83744,11.83744,0,0,0-1.02373,1.58984,13.015,13.015,0,0,0-1.25592,3.5501l-.00744.00709a.30481.30481,0,0,1-.31194.23962l-8.97291-.363-8.97327-.43566C366.12907,383.87571,363.14507,383.67969,360.154,383.49819Z" class="color000000 svgShape"/><path fill="#595bd4" d="M351.19561,382.874c2.99108.0436,5.98926.09429,8.98035.18876,2.99109.087,5.98218.16695,8.97292.30485l8.97291.37025,8.72655.44274a12.30079,12.30079,0,0,1,1.34276-3.4193,12.47181,12.47181,0,0,1,1.12547-1.626,11.99329,11.99329,0,0,1,1.40835-1.37945,12.26269,12.26269,0,0,1,3.35407-1.98916,13.36412,13.36412,0,0,1,3.76775-.91473c-3.4193-1.44468-7.36854-3.1724-11.25256-5.06727a12.26072,12.26072,0,0,0-1.503.93653,9.56124,9.56124,0,0,0-1.30661,1.1035,9.98447,9.98447,0,0,0-1.11058,1.29225c-.3559.45727-.65366.96542-1.00211,1.47356a5.04988,5.04988,0,0,1,.51541-1.76406,5.63589,5.63589,0,0,1,2.621-2.59886,4.26508,4.26508,0,0,1,1.78586-.44292c-1.3215-.646-2.63555-1.314-3.92018-1.99642a11.4945,11.4945,0,0,0-1.42323.88566,10.10925,10.10925,0,0,0-1.30661,1.10349,10.77184,10.77184,0,0,0-1.118,1.29952c-.34845.45728-.64622.95816-.99467,1.47375a4.93445,4.93445,0,0,1,.51541-1.77151,5.60781,5.60781,0,0,1,2.61357-2.59159,4.19947,4.19947,0,0,1,1.61891-.43565q-1.88388-1.00176-3.65149-2.04712a12.79917,12.79917,0,0,0-1.46647.91456,9.50137,9.50137,0,0,0-1.29952,1.10349,10.04947,10.04947,0,0,0-1.118,1.29225c-.35554.45745-.64621.9656-1.00175,1.47374a5.07252,5.07252,0,0,1,.51541-1.77133,5.71234,5.71234,0,0,1,1.089-1.51007,5.64168,5.64168,0,0,1,1.5317-1.08169,4.284,4.284,0,0,1,1.71319-.44293c-2.81668-1.66232-6.70244-1.83512-8.64073-3.57738,0,0-1.87842,10.36529-16.55772,3.10557C353.69291,365.211,349.55508,376.19487,351.19561,382.874Zm9.27811-8.8134c2.80216,0,2.80925,4.35583,0,4.35583C357.67122,378.41639,357.66413,374.06056,360.47372,374.06056Z" class="color000000 svgShape"/><path fill="#53d86a" d="M148.42233,392.1108c-3.55457.048-7.09955.10549-10.65412.11508.04795,0,.09567-.00959.14362-.00959Z" class="colorffffff svgShape"/></svg>