<svg xmlns="http://www.w3.org/2000/svg" id="DryCleaner" viewBox="0 0 472.868 392.869"><g fill="#167ffc" class="color000000 svgShape" data-name="Layer 2"><g fill="#167ffc" class="color000000 svgShape" data-name="Layer 1"><path fill="#f4dfc9" d="M65.52 220.101c2.236-9.141 6.848-17.137 11.878-24.94a144.737 144.737 0 0 1 15.06-19.122c6.092-6.664 12.611-12.872 19.203-19.026 6.885-6.429 14.052-12.537 20.942-18.954 7.322-6.818 14.443-13.853 21.1-21.328a241.401 241.401 0 0 0 18.634-23.77q8.966-13.036 16.694-26.855c4.754-8.478 9.047-17.215 14.257-25.44 5.648-8.918 12.128-17.093 20.364-23.763a71.502 71.502 0 0 1 15.43-9.674A83.459 83.459 0 0 1 267.257.27a110.815 110.815 0 0 1 23.668.962 95.03 95.03 0 0 1 20.833 5.564c12.394 4.69 23.486 11.744 33.769 20.128a131.81 131.81 0 0 1 24.098 25.891 78.885 78.885 0 0 1 5.84 9.242c1.081 2.073 2.546 3.957 3.528 6.1a202.18 202.18 0 0 1 8.546 20.647 213.542 213.542 0 0 1 7.666 32.706c1.515 9.242 2.994 18.491 4.643 27.71 1.776 9.925 3.675 19.83 5.633 29.72 1.01 5.104 1.969 10.219 3.004 15.316 1.442 7.103 2.365 14.296 3.797 21.392.638 3.16 1.986 6.167 2.838 9.292 2.192 8.04 3.472 16.22 2.714 24.583a44.697 44.697 0 0 1-4.97 16.463 48.565 48.565 0 0 1-7.015 10.492c-5.392 5.97-11.248 11.295-18.774 14.415a33.595 33.595 0 0 1-6.977 2.087c-7.516 1.331-15.018 2.783-22.576 3.818a169.527 169.527 0 0 0-27.679 6.336 164.676 164.676 0 0 0-20.194 7.635c-5.004 2.323-9.93 4.795-14.907 7.162-4.333 2.06-8.443 4.559-12.817 6.489-4.548 2.006-8.743 4.68-13.25 6.719-5.677 2.568-11.296 5.261-17.033 7.711a218.339 218.339 0 0 1-24.456 8.722 196.295 196.295 0 0 1-30.264 6.005 152.104 152.104 0 0 1-30.036.618 121.444 121.444 0 0 1-16.754-2.281c-4.104-.87-8.245-1.633-12.244-2.858a137.398 137.398 0 0 1-16.448-6.394 110.402 110.402 0 0 1-20.787-12.336 89.164 89.164 0 0 1-21.095-21.988 101.487 101.487 0 0 1-5.46-8.903 110.102 110.102 0 0 1-8.828-22.878 111.792 111.792 0 0 1-3.88-27.212 94.97 94.97 0 0 1 1.576-19.594c.643-3.3 1.744-6.428 2.553-9.649ZM169.424 65.823a51.223 51.223 0 0 1-12.167 23.725 57.798 57.798 0 0 1-15.77 11.727c-2.706 1.455-5.296 3.344-7.93 5.074a38.075 38.075 0 0 1-7.878 4.313 13.345 13.345 0 0 1-8.26.63c-5.12-1.523-9.249-4.962-11.954-10.999a40.192 40.192 0 0 1-3.664-12.94 59.132 59.132 0 0 1 .279-14.272c.392-2.647.776-5.278 1.39-7.877 2.45-10.362 6.47-19.719 12.494-27.481 7.37-9.497 15.938-14.212 25.41-14.843a23.738 23.738 0 0 1 6.328.43 23.381 23.381 0 0 1 11.334 5.953 36.259 36.259 0 0 1 9.165 14.398 37.764 37.764 0 0 1 1.223 22.162Z" class="colorf4e4c9 svgShape"/><path fill="#53d86a" d="M430.71 308.23a21.46 21.46 0 0 1 2.26 7.807c1.362 10.122.892 20.099-2.67 29.79a58.935 58.935 0 0 1-11.62 19.371c-8.69 9.635-19.41 16.118-31.529 20.42a99.921 99.921 0 0 1-23.922 5.337c-4.81.464-9.598 1.141-14.4 1.673-1.24.137-2.5.095-3.75.124-6.647.152-13.3.195-19.936-.114a176.07 176.07 0 0 1-20.917-2.307 180.315 180.315 0 0 1-31.014-7.975c-7.792-2.79-15.507-5.79-23.252-8.71a154.15 154.15 0 0 0-33.885-8.912 102.087 102.087 0 0 0-21.508-.28c-10.74.835-21.012 3.764-31.306 6.612-8.278 2.29-16.703 3.906-25.085 5.72-6.177 1.336-12.419 2.298-18.672 3.171a105.388 105.388 0 0 1-21.497.99c-6.553-.43-13.056-1.285-19.215-3.752a51.363 51.363 0 0 1-20.846-14.702 71.994 71.994 0 0 1-8.48-12.329c-2.983-5.605-4.37-11.674-5.363-17.856a93.358 93.358 0 0 1-.878-18.227c.07-1.946.348-3.884.53-5.825a3.302 3.302 0 0 1 2.407-.716c.859-.044 1.72-.024 2.58-.024q188.48 0 376.959.017c1.683 0 3.462-.408 5.008.697Z" class="colora5a5a5 svgShape"/><path fill="#fe9526" d="M307.792 165.625a8.338 8.338 0 0 1 2.186 2.072 80.448 80.448 0 0 0 12.696 12.287 9.742 9.742 0 0 1 3.86 5.377c-.573.5-1.138.133-1.717.002-.454-.103-.998-.627-1.317.19a24.251 24.251 0 0 0 1.565 2.286c.94 1.75.794 2.772-.983 3.751-1.35.744-.449 1.54-.38 2.341.109 2.084-.998 3.994-.855 6.064 1.567-.84 1.316-2.46 1.682-3.807.139-.51.113-1.198.726-1.34.66-.152.86.524 1.11.969a11.085 11.085 0 0 1 1.76 6.168c-.19 3.295.533 6.687-1.164 9.806a2.463 2.463 0 0 0 .007 1.818c.342 2.478-1.356 4.234-2.24 6.277a38.234 38.234 0 0 1-2.027 3.794c1.548-1.889 1.886-4.679 3.908-6.455a1.381 1.381 0 0 0 1.141-1.519 1.4 1.4 0 0 1 1.482-1.474 1.366 1.366 0 0 1 1.47 1.245c.496 3.9 2.494 7.368 3.131 11.233.297 1.803.262 3.231-1.653 4.064-.737.32-.983 1.188-1.561 1.709a40.106 40.106 0 0 1-10.288 3.635 14.955 14.955 0 0 0-7.702 4.09c-.786.833-1.606 1.744-2.96 1.587-1.066-.812-1.146-2.124-1.611-3.236a9.447 9.447 0 0 0-1.709-2.963c-1.862-3.173-3.28-6.567-4.846-9.883a19.839 19.839 0 0 1-1.905-9.332c.109-2.888.019-5.782-.031-8.679.006 2.868-.257 5.715-.503 8.567-.415 4.822 1.665 9.01 3.791 13.11a111.644 111.644 0 0 0 4.386 7.742c.738 3.562.95 7.196 1.51 10.783.151 3.795.884 7.558.63 11.375.001.285 0 .57.004.856.568 6.743-.71 13.349-1.498 19.99a3.22 3.22 0 0 1-1.324 2.38 9.378 9.378 0 0 1-4.277 1.047c-9.716.825-19.456.63-29.192.563a3.414 3.414 0 0 1-3.065-1.38c-.754-3.999-.138-7.906.811-11.79.73-.944 1.802-.79 2.798-.832a22.42 22.42 0 0 0 4.206-.242c2.197-.515 3.061-1.49 2.933-3.29a3.255 3.255 0 0 0-3.556-3.283c-3.622.331-7.167-.56-10.762-.351a15.793 15.793 0 0 1-4.652-.48c-1.842-.447-2.145-1.233-1.11-2.835a11.944 11.944 0 0 1 1.88-2.088 5.547 5.547 0 0 0 1.534-6.406 4.236 4.236 0 0 1-.34-2.963c.68-1.207 1.812-1.02 2.886-.879 1.693.223 3.382.49 5.08.687a3.15 3.15 0 0 0 3.744-2.377c2.146-6.8.94-7.837-4.672-8.264-2.245-.17-4.464-.59-6.717-.679a4.15 4.15 0 0 1-2.634-.754.821.821 0 0 1-.293-.614c.44-.9 1.43-.804 2.164-1.163 2.278-1.11 2.996-3.135 1.909-5.522-1.704-.539-2.929 1.207-4.57.957a6.673 6.673 0 0 1-5.302-2.754c-.402-1.774.366-3.404.762-5.04 1.496-6.177 3.38-12.199 7.914-16.99 3.047-3.218 6.456-6.053 10.625-7.484a14.56 14.56 0 0 0 8.645-8.019c.24-.492.445-1 .692-1.487.578-1.142.644-2.896 2.211-3.031 1.685-.146 2.472 1.426 3.297 2.646 1.224 1.81 2.245 3.756 3.643 5.453a7.09 7.09 0 0 0 1.643 1.655c1.32.819 2.006.54 2.259-.98.23-1.387.314-2.793.515-4.186.81-5.611 3.715-10.417 5.943-15.475 1.247-2.831 2.102-5.891 4.277-8.25Z" class="colordf5c31 svgShape"/><path fill="#ffc485" d="m430.71 308.23-42.683.026q-172.136.003-344.272 0c.201-7.858-2.484-14.905-6.081-21.7-.544-1.026-1.019-2.088-1.525-3.134a1.603 1.603 0 0 1 1.216-.612c5.265-.085 10.537-.514 15.79.226 1.391 1.11 1.351 2.735 1.405 4.262a44.163 44.163 0 0 0 .533 5.576 5.19 5.19 0 0 0 4.563 4.632 9.303 9.303 0 0 0 3.019.23c5.335-.753 10.735-.17 16.081-.867 2.592-.337 4.137-1.504 4.857-3.965a38.103 38.103 0 0 0 1.14-5.72c.2-1.506.04-3.146 1.202-4.405 7.61-.424 15.217-.97 22.836-.295.758.27.945.956 1.197 1.618 3.834 10.075 8.04 10.653 16.22 11.293 3.717.01 7.432-.105 11.143.05a5.539 5.539 0 0 1 2.813 1.104c1.866 1.494 3.371 3.37 5.184 4.927a8.644 8.644 0 0 0 1.919 1.162c3.459 1.944 7.247 1.833 10.974 1.54 13.089-1.027 26.199-1.13 39.315-1.411 18.437-.395 36.873-.545 55.303-.288 10.306.144 20.62.097 30.92.427 28.357.91 56.718.158 85.076.387 2.807.022 5.574.757 8.409.249 3.646-.654 4.093-1.2 3.314-4.827a39.493 39.493 0 0 0-2.26-7.628c-1.388-3.171-3.738-4.981-7.246-5.003-10.392-.066-20.785-.132-31.177.035-.922.015-1.873.335-2.715-.32-.8-2.875.026-3.956 3.216-3.965 13.328-.039 26.655-.013 39.983-.017 3.742 0 7.483-.007 11.224.005a9.722 9.722 0 0 0 3-.366 15.303 15.303 0 0 1 3.029-.205q21.048-.011 42.097.01c1.22.001 2.525-.22 3.553.757l-6.035 5.171a26.35 26.35 0 0 0-5.662 6.82 14.81 14.81 0 0 0-1.41 11.956 6.104 6.104 0 0 1 .534 2.265Z" class="colorffad85 svgShape"/><path fill="#787878" d="M443.282 282.018q-16.274-.003-32.548-.003c-5.386.002-10.772.025-16.157.039a4.579 4.579 0 0 1-2.076.179q-26.211.012-52.422.005c-2.76 0-2.889-.055-2.635-2.713.519-5.445.566-10.897.55-16.357-.01-3.307.174-3.396 3.376-3.452 1.779-.03 3.575.269 5.337-.211l-.027-.055a4.549 4.549 0 0 1 3.126-.721q56.233-.02 112.466.001a4.437 4.437 0 0 1 3.128.692c1.4.01 2.8.015 4.2.033a8.51 8.51 0 0 1 1.627.082 1.82 1.82 0 0 1 1.639 1.95 1.765 1.765 0 0 1-1.612 1.73 19.565 19.565 0 0 1-2.56.115c-1.79.039-3.692-.306-5.336.199-1.636.502-2.068 2.591-3.146 3.899a72.424 72.424 0 0 1-10.43 9.662 55.85 55.85 0 0 1-6.5 4.926ZM109.28 283.017c-5.153.008-10.307-.006-15.461.034-1.868.015-3.723.384-5.603.278a5.676 5.676 0 0 1-2.295-.327c-.877-.726-.602-1.682-.513-2.598.318-3.25.613-6.503 1.04-9.743a11.76 11.76 0 0 0-.185-4.173 2.624 2.624 0 0 0-1.386-1.946 15.196 15.196 0 0 1-3.277-3.254c-.581-.826-1.195-1.81.394-2.351a12.595 12.595 0 0 1 3.028-.205q25.246-.01 50.492.006c1.305.001 2.674-.211 3.82.706.859.027 1.718.076 2.576.076q34.486-.012 68.972-.029c.388 0 .776.053 1.165.081-.367 1.234-1.442.972-2.287.982a18.532 18.532 0 0 0-5.669 1.087 4.093 4.093 0 0 0-3.06 3.146c-.391 1.833.996 2.395 2.094 3.202 1.938 4.385 1.638 8.911.746 13.436-.294 1.488-1.616 1.66-2.942 1.713-2.626.105-5.278-.336-7.877.366-6.501.38-13.006-.02-19.509.105-1.161.023-2.323-.008-3.483.026-4.858.15-9.636-.772-14.458-1.124-3.11-.226-6.244-.657-9.33-.628-6.873.064-13.497-1.36-20.17-2.59-1.475-.48-3.051-.486-4.534-.932a14.729 14.729 0 0 0-6.663-.085 5.708 5.708 0 0 0-4.7 3.656 2.218 2.218 0 0 1-.924 1.085Z" class="color787878 svgShape"/><path fill="#fe9526" d="M208.41 187.756a29.088 29.088 0 0 0 2.36-7.55 4.785 4.785 0 0 1 1.363-2.93c2.453-2.142 2.573-5.022 2.69-7.908a11.55 11.55 0 0 1 1.202-5.414 8.43 8.43 0 0 0 1.343-3.195c.584-5.03 3.82-8.354 7.723-10.875a56.794 56.794 0 0 1 11.543-5.617 26.373 26.373 0 0 1 7.601-1.044c3.5-.197 7.017-.062 10.527-.07.957 1.375-.01 2.163-.927 2.925a49.237 49.237 0 0 1-6.778 4.154 33.193 33.193 0 0 0-7.69 5.69c-2.295 2.457-1.853 4.218 1.318 5.447a55.017 55.017 0 0 0 5.874 1.587 14.712 14.712 0 0 1 9.125 6.453 31.057 31.057 0 0 1 4.725 11.88 52.895 52.895 0 0 0 2.594 10.193 16.417 16.417 0 0 1 .84 4.578 20.947 20.947 0 0 1-2.632 11.67 68.2 68.2 0 0 0-6.237 18.31c-.85.662-1.518 0-2.076-.426-5.175-3.948-11.324-5.881-17.19-8.4-3.604-1.547-7.137-3.196-9.543-6.5a4.197 4.197 0 0 1-.546-1.032 3.312 3.312 0 0 1-.182-.704 1.865 1.865 0 0 1 .052-.72c2.655-5.56 5.706-10.93 8.19-16.577a44.298 44.298 0 0 0 3.081-12.484 47.572 47.572 0 0 1-3.763 14.175c-1.09 2.457-1.745 2.66-3.709.907-2.02-1.804-4.125-2.622-6.84-1.66a9.611 9.611 0 0 1-7.298-.75 49.464 49.464 0 0 1-6.74-4.113Z" class="colordf5c31 svgShape"/><path fill="#d1ae8a" d="M255.245 143.072a10.52 10.52 0 0 1-1.092-7.569 37.881 37.881 0 0 0 .167-6.254 11.079 11.079 0 0 1 .205-2.536c.633-2.522 1.324-3.11 4.002-3.273 3.13 1.693 3.042 4.786 3.33 7.704.068.691-.289 1.366-.063 2.11.564-1.906.936-3.872 1.663-5.724 1.596-4.066 3.597-7.831 7.787-9.836 2.867-1.372 5.648-1.476 8.402.448a52.343 52.343 0 0 1 5.854 5.373c1.925 1.833 2.825 1.98 5.213.804 6.43-3.167 13.227 1.34 12.954 8.59a11.826 11.826 0 0 1-.129 1.397c-.181 1.153-.829 2.45-.358 3.433.65 1.358 2.092-.5 3.098.282 1.133 1.972.043 3.82-.543 5.56a16.196 16.196 0 0 1-4.41 7.247 6.967 6.967 0 0 0-1.992 2.524 2.814 2.814 0 0 1-1.427 1.458c-.733-1.422.453-2.463.729-3.686.341-1.512 1.801-2.798 1.097-4.23.062 3.06-2.213 5.727-2.81 8.875a10.109 10.109 0 0 0-1.371 2.401c.17 1.977-1.156 3.355-2.117 4.788a33.073 33.073 0 0 1-6.113 7.241c-1.33.638-2.444 1.635-3.835 2.198-6.539 2.645-12.02.681-17.15-3.966 5.332 5.201 11.2 6.585 17.913 3.735a1.603 1.603 0 0 1 1.346-.117c.668 1.006-.071 1.775-.507 2.527a36.557 36.557 0 0 1-4.991 6.093c-4.698 5.14-9.748 10.063-12.688 16.57-.378.835-.649 1.792-1.775 1.968-1.763-.734-.943-2.103-.82-3.303a41.923 41.923 0 0 0-1.474-15.296c-.58-1.962-1.871-3.592-2.669-5.46-1.948-4.559-2.629-9.418-3.44-14.244.907-1.064 1.254-.01 1.65.496a8.596 8.596 0 0 0 4.007 3.252c-1.856-4.554-2.82-8.938-4.65-13.052.166-2.49-.13-4.994.262-7.47.997-1.311 1.106-3.03 1.973-4.403-.753 1.057-.89 2.374-1.466 3.508a2.564 2.564 0 0 1-2.945.507 1.508 1.508 0 0 1-.817-.67Z" class="colord19e8a svgShape"/><path fill="#8082e3" d="M461.63 234.717c3.027 1.757 3.84 4.709 4.228 7.877a4.328 4.328 0 0 1-1.52 4.181c-2.557 1.54-5.425 1.475-8.17 1.148-4.041-.481-8.098-.422-12.142-.712-13.71-.984-27.46-.785-41.183-.445-6.316.156-12.636.113-18.948.35-7.946.298-15.886.737-23.823 1.23-3.579.221-7.154.556-10.739.634-1.046-.237-2.021.76-3.09.196a18.694 18.694 0 0 1-.133-8.216c.35-2.026 1.78-3.16 3.444-4.088 1.06-1.5 2.753-1.705 4.341-2.028a130.462 130.462 0 0 1 17.236-1.858c19.354-1.311 38.746-1.215 58.119-.868 8.89.159 17.82-.09 26.688.904 1.967.22 4.128.02 5.692 1.695Z" class="color80aee3 svgShape"/><path fill="#9df1ab" d="M348.586 248.312c6.307-.314 12.613-.724 18.911-1.137 10.449-.685 20.908-.577 31.355-.963 11.955-.442 23.902-.287 35.852-.241 4.667.018 9.331.553 13.998.826 2.334.137 4.67.036 7.006.389 2.882.434 5.753-.27 8.632-.41a58.817 58.817 0 0 1 1.06 12.646c-4.448.048-8.896.137-13.343.137q-51.52.003-103.04-.027c-.779 0-1.558-.054-2.337-.082a20.697 20.697 0 0 1 .527-9.333 2.197 2.197 0 0 1 1.379-1.805Z" class="colord2f19d svgShape"/><path fill="#d1ae8a" d="M226.124 209.453a12.175 12.175 0 0 0 5.072 4.95 60.88 60.88 0 0 0 8.719 3.91 57.74 57.74 0 0 1 14.79 7.81c.553-.269.709.218.966.509a8.136 8.136 0 0 0 5.202 2.428c.95 1.16 1.933 1.068 2.976.112a3.422 3.422 0 0 1 1.704-1.147 4.207 4.207 0 0 1-.913 6.075 5.097 5.097 0 0 1-3.29 1.029c-.742.752-1.847.341-2.66.842-.697.978-.01 1.933.046 2.894a5.373 5.373 0 0 1 .16.605 11.207 11.207 0 0 0 .415 2.158 4.342 4.342 0 0 1 .16.647c.12 1.49.145 2.982.249 4.471a6.31 6.31 0 0 1-.53 1.78c-1.67 3.921-3.895 4.484-7.099 1.742-.532-.454-.794-.676-1.53-.215-2.637 1.65-5.17.654-6.338-2.363a4.79 4.79 0 0 0 .368-3.405 25.845 25.845 0 0 1-.408-3.481c-.362 2.031.833 3.863.44 5.815-.154.715-.669-.07-1.044.291-2.557 2.465-5.183 1.62-6.199-1.937.077-2.31-.675-4.524-.672-6.081.133 1.517.54 3.747.733 6.007-1.412 1.85-2.806 1.878-4.131.07a8.42 8.42 0 0 1-1.042-2.023c-.441-1.455-.989-2.88-1.405-4.345a4.801 4.801 0 0 1-.121-.675 5.577 5.577 0 0 1-.046-.667 15.733 15.733 0 0 0-.131-3.879c-.173.659.308 1.445-.387 1.974a2.417 2.417 0 0 1-2.683-.359c-1.307-1.467-1.494-3.302-1.725-5.215 0 1.323-.25 2.43-1.794 2.595-.96-.04-2.077.338-2.569-.953.51-.179 1.102.14 1.585-.252-.032-.623-.533-.67-.962-.775-1.816-.447-3.623-.938-5.455-1.309a14.66 14.66 0 0 1-10.248-7.815 55.186 55.186 0 0 1-4.595-11.99c-.123-.444-.327-.866-.493-1.298a10.418 10.418 0 0 1-.927-8.276l-.004-.188c.15-.202.32-.388.476-.586l-.025.024a4.21 4.21 0 0 1 3.113-1.847c5.902-.677 11.46.145 16.29 3.934 1.683 2.645 4.255 4.67 5.418 7.687l.117.116a1.872 1.872 0 0 1 .427.606Z" class="colord19e8a svgShape"/><path fill="#8082e3" d="M461.64 216.812a10.583 10.583 0 0 1 .977 3.783 4.593 4.593 0 0 1-2.378 4.657c-1.044 1.225-2.502 1.123-3.895 1.2-3.757.208-7.487-.336-11.23-.433-29.769-.774-59.544-.418-89.316-.51-1.665-.005-3.496.415-4.82-1.144-1.484-2.754-1.153-5.703-.85-8.624.117-1.126 1.112-1.834 1.742-2.709a3.625 3.625 0 0 1 2.907-1.736 54.947 54.947 0 0 1 8.387-.864c13.598-.069 27.188.48 40.787.583 9.515.071 19.055.338 28.563.892 7.87.458 15.786.25 23.609 1.396 2.29.335 4.754.655 5.517 3.51Z" class="color80aee3 svgShape"/><path fill="#414141" d="M306.278 138.02c-.93.388-1.853.799-2.795 1.156-.924.35-1.397.03-1.266-.927.179-1.308.457-2.605.728-3.9a9.229 9.229 0 0 0-6.345-10.623 4.875 4.875 0 0 0-4.263.34c-.397.248-.796.494-1.203.724-2.823 1.599-4.215 1.425-6.313-1.017a32.687 32.687 0 0 0-6.027-5.504c-2.114-1.486-4.261-1.299-6.442-.466a12.35 12.35 0 0 0-6.306 5.68 25.16 25.16 0 0 0-3.277 8.95 6.095 6.095 0 0 1-.558 2.015c-.154.292-.398.52-.727.433a.748.748 0 0 1-.53-.701 4.394 4.394 0 0 1-.002-1.165 10.681 10.681 0 0 0-2.425-9.575v-.003c.25-.269.196-.64.319-.95.623-2.973 1.228-5.948 1.873-8.915a22.257 22.257 0 0 1 9.636-14.386c2.206-1.469 4.35-3.034 6.577-4.468a11.742 11.742 0 0 1 9.42-1.5 46.137 46.137 0 0 0 7.384 1.146c4.649.33 8.232 2.704 11.082 6.242a20.686 20.686 0 0 1 4.886 12.872c.072 3.9.286 7.797.475 11.694a44.574 44.574 0 0 1-.267 5.605 7.2 7.2 0 0 1-1.152 3.284c-.831 1.317-1.655 2.64-2.482 3.96Z" class="color414141 svgShape"/><path fill="#e2e2e2" d="M461.64 216.812a6.542 6.542 0 0 0-4.74-2.702 41.12 41.12 0 0 0-5.575-.618c-4.994-.018-9.984-.357-14.969-.585-3.898-.179-7.814-.054-11.69-.416-5.54-.517-11.096-.077-16.617-.474-9.37-.674-18.753-.024-28.11-.487-6.015-.298-12.023-.456-18.026-.247-3.382.117-6.888.078-10.043 1.75.003-1.563-.02-3.126.011-4.688.077-3.827 1.891-5.855 5.605-6.62a23.603 23.603 0 0 1 4.87-.42c3.594.007 7.199-.174 10.78.046 7.401.454 14.828.07 22.206.544 6.636.427 13.261-.006 19.87.402 6.546.404 13.103.142 19.632.51a153.838 153.838 0 0 1 16.474 1.35 34.87 34.87 0 0 1 5.869 1.492c3.225 1.132 4.5 3.675 4.93 6.786a9.073 9.073 0 0 1-.477 4.377ZM25.845 213.128c-.374-2.356.201-4.666.514-6.959a4.436 4.436 0 0 1 3.275-3.899 19.102 19.102 0 0 1 5.486-.985c4.216.073 8.443-.15 12.649.068 7.322.381 14.666.099 21.963.547 6.633.408 13.256-.013 19.863.398 6.543.407 13.096.151 19.622.517 4.334.243 8.704.25 13.01.882a77.086 77.086 0 0 1 8.22 1.6c3.985 1.036 5.986 5.014 6.076 8.746a4.334 4.334 0 0 1-.978 2.314c-2.088-.27-3.894-1.427-6.004-1.755a100.742 100.742 0 0 0-11.199-.681c-5.213-.225-10.431-.521-15.654-.662-12.625-.339-25.245-.88-37.873-.977-2.746-.155-5.145-1.55-7.754-2.23-2.125-.553-3.93-.86-5.22 1.385a1.187 1.187 0 0 1-1.02.465c-6.436.074-12.873-.319-19.306.393-1.908.21-3.673 1.338-5.67.833Z" class="colore2e2e2 svgShape"/><path fill="#d1ae8a" d="M346.707 259.504c-1.456.832-3.04.348-4.559.393-3.651.11-3.369-.426-3.387 3.419-.013 2.886-.032 5.773-.034 8.66a81.057 81.057 0 0 1-.727 8.588c-.11 1.034.04 1.488 1.104 1.47.624-.01 1.248.003 1.872.003q25.397-.02 50.794-.037c.936 0 1.871.035 2.807.053-.805.725-1.789.403-2.689.404q-25.253.041-50.506.037c-.468 0-.936-.004-1.403 0-2.289.026-2.474.201-2.646 2.523-.017.233-.009.468-.012.702a36.92 36.92 0 0 1 7.146 3.785c.337.258.691.494 1.038.741a21.345 21.345 0 0 1 3.007 4.089c.173.272.332.552.493.831.424.852 1.22 1.608.714 2.704a8.525 8.525 0 0 0-2.58 1.632c-.548.065-.727-.375-.981-.713-1.06-2.305-1.396-4.888-2.667-7.112 1.297 2.254 1.514 4.93 2.741 7.21a.42.42 0 0 1 .134.367c-.022.131-.049.197-.08.197-1.229.255-2.644.086-3.398 1.46-2.25-.37-1.96-2.473-2.66-3.896a3.786 3.786 0 0 1-.11-.63c-.088.182.028.347.052.517a5.674 5.674 0 0 0 .365 1.006c.044 1.292 1.35 2.588-.015 3.87a.437.437 0 0 1-.429-.046c-1.73-1.732-1.728-1.734-3.296.113-2.567-.882-3.001-3.369-4.027-5.397-.24-.473-.145-1.083-.43-1.57-.226-.508-.119-1.072-.323-1.8a6.976 6.976 0 0 0 .507 2.369 4.154 4.154 0 0 1-.538 3.316 5.047 5.047 0 0 0-3.691 2.62c-1.835-.307-1.932-1.88-2.156-3.2a13.644 13.644 0 0 0-1.783-5.015 2.407 2.407 0 0 0-2.706-1.357c-1.244.266-1.426 1.21-1.574 2.28-.218 1.584-.146 3.307-1.62 4.444a1.108 1.108 0 0 1-1.192-.816c-.58-1.311-1.558-1.432-2.758-1.043-1.638-1.311-2.042-3.119-2.06-5.085a4.329 4.329 0 0 1 .463-1.334 12.986 12.986 0 0 1 6.035-5.268 3.532 3.532 0 0 1 .97-.231c.779.136 1.41-.49 2.176-.443-.628-.12-1.3.534-1.902-.095a6.528 6.528 0 0 1-.633-2.11 65.12 65.12 0 0 1 .05-15.18c.654-5.635.163-6.23-5.365-6.306-1.829-.025-3.76.525-5.472-.63l-.031-.544c2.811-1.32 5.779-.44 8.667-.617.677-.021 1.417.165 1.897-.552 3.531-4.494 8.389-6.993 13.576-8.968a12.15 12.15 0 0 1 4.705-1.177c.827.029 1.942-.3 2.13 1.078a3.935 3.935 0 0 0-.439 2.462c-.013 2.464-.004 4.929-.004 7.67 2.273.338 4.87-.001 7.44.16Z" class="colord19e8a svgShape"/><path fill="#9df1ab" d="M350.978 224.365a13.505 13.505 0 0 0 3.935.416c24.134.004 48.268-.09 72.4.101 6.624.053 13.258.252 19.884.463 2.17.07 4.346.331 6.53.329a26.29 26.29 0 0 0 6.512-.422 18.022 18.022 0 0 1 1.39 9.464 77.728 77.728 0 0 0-16.25-1.515c-1.875-.029-3.753.046-5.624-.033-16.077-.684-32.161-.348-48.241-.313-7.242.016-14.495.402-21.718.956a126.127 126.127 0 0 0-15.772 1.718 40.754 40.754 0 0 0-4.47 1.344c.03-3.241-.297-6.487.363-9.717a9.842 9.842 0 0 1 1.061-2.79Z" class="colord2f19d svgShape"/><path fill="#8082e3" d="M135.962 234.971c3.663 2.349 4.08 5.962 3.858 9.84-.057 1.01-.863 1.407-1.456 1.99-2.79 1.7-5.89 1.39-8.874 1.083-4.122-.425-8.257-.413-12.382-.716-12.392-.913-24.817-.463-37.23-.541a12.869 12.869 0 0 1-3.724-.258c-1.118-.425-1.333-1.446-1.585-2.432-.802-3.135-.643-6.36-.882-9.549a1.973 1.973 0 0 1 .991-1.983 7.498 7.498 0 0 1 3.23-.4c8.914-.01 17.847-.38 26.734.104 8.508.463 17.045-.17 25.52.885 2.048.255 4.285.096 5.8 1.977Z" class="color80aee3 svgShape"/><path fill="#9df1ab" d="M75.945 246.04c3.435-.047 6.87-.127 10.304-.133 7.578-.013 15.157-.092 22.732.057 4.745.094 9.481.573 14.224.84 2.177.124 4.353.086 6.532.383 2.877.39 5.753-.182 8.627-.385a14.678 14.678 0 0 1 .912 4.978c.117 2.55.048 5.11.058 7.664-.936.023-1.872.065-2.808.065q-27.655.015-55.309.02c-1.13.165-1.496-.77-1.853-1.468a41.91 41.91 0 0 1-3.758-9.814 2.2 2.2 0 0 1 .339-2.207Z" class="colord2f19d svgShape"/><path fill="#8082e3" d="M64.235 211.65c4.842.014 9.701-.23 14.52.11 5.615.395 11.239.041 16.828.469 4.054.31 8.106.161 12.147.424 6.451.419 12.907.692 19.367.93a50.295 50.295 0 0 1 5.056.819c1.413.2 2.346 1.158 3.392 1.955a10.512 10.512 0 0 1 1.085 4.636 4.326 4.326 0 0 1-2.136 4.24 4.26 4.26 0 0 1-3.442 1.163c-8.799-.146-17.598-.326-26.39-.72-1.478-.066-2.956-.153-4.436-.154-8.265-.003-16.53.008-24.795-.01a12.394 12.394 0 0 1-4.394-.418c-.862-.587-.815-1.496-.844-2.377a3.095 3.095 0 0 1 .323-1.545c1.273-.937 2.74-1.624 3.029-3.525.197-1.305-.021-2.067-1.316-2.493-2.059-.678-4.13-1.322-6.16-2.076-.726-.27-1.768-.262-1.834-1.428Z" class="color80aee3 svgShape"/><path fill="#4e4e4e" d="M202.708 267.968c-2.356-.452-2.485-.602-2.397-2.784a3.958 3.958 0 0 1 2.759-3.847 17.407 17.407 0 0 1 6.988-1.383 2.467 2.467 0 0 0 1.99-.382 4.48 4.48 0 0 0 4.789-2.901c.945-2.03.36-3.934-.903-5.656-1.28-1.746-1.43-2.41-.216-4.185 1.091-1.594 1.366-3.686 3.042-4.904 2.07.27 2.489.855 1.828 2.666-.321.879-.799 1.694-1.139 2.57a4.216 4.216 0 0 0 .125 3.838 5.99 5.99 0 0 1 .46 5.614c-.582 1.382-.043 1.822 1.347 1.765 11.206-.458 22.297.845 33.381 2.228a2.545 2.545 0 0 0 3.034-1.576 8.46 8.46 0 0 1 1.405-2.429 8.173 8.173 0 0 0 1.963-8.027c.081-1.048.213-2.108 1.59-2.125 1.18-.014 1.275.89 1.3 1.784a5.898 5.898 0 0 0 .597 2.478c1.256 2.77.673 5.111-1.508 7.19a9.815 9.815 0 0 0-2.875 3.796 34.882 34.882 0 0 0 3.588.45c4.279.09 8.536.703 12.835.363 3.16-.25 4.948 1.52 4.875 4.535a2.928 2.928 0 0 1-2.455 3.215 10.775 10.775 0 0 1-2.992.475c-1.636.023-3.272.06-4.908.092-2.615 1.232-5.356.63-8.043.48-9.087-.512-18.12-1.794-27.25-1.723-5.61.043-11.196-.599-16.778-1.092a57.459 57.459 0 0 0-11.659.01c-1.626.186-3.27.423-4.773-.535Z" class="color4e4e4e svgShape"/><path fill="#787878" d="m53.383 283.336-17.235.086a13.422 13.422 0 0 1-1.717-2.776c-3.148-5.583-7.076-10.65-10.545-16.02a2.57 2.57 0 0 0-2.604-1.084q-8.66.023-17.32.023a8.014 8.014 0 0 1-2.549-.24 1.797 1.797 0 0 1-1.411-1.895 1.833 1.833 0 0 1 1.41-1.671 5.77 5.77 0 0 1 2.084-.193c5.07-.006 10.142.001 15.212-.012.934-.003 1.867-.082 2.8-.126a3.17 3.17 0 0 1 2.407-.67c11.05-.028 22.099-.062 33.148.013a5.248 5.248 0 0 1 1.15.148c1.744.591.956 1.727.425 2.6a12.104 12.104 0 0 1-5.816 4.89c-.747.399-.417 1.016-.307 1.59.056.218.096.435.13.657a13.384 13.384 0 0 0 .448 1.75c.87 3.483.526 7.08 1.013 10.6a2.351 2.351 0 0 1-.723 2.33Z" class="color787878 svgShape"/><path fill="#fe9526" d="M339.71 249.213c-1.184-1.012-2.517-.584-3.75-.256a37.593 37.593 0 0 0-15.406 8.402 2.425 2.425 0 0 0-.69 1.668c-.533.39-1.142.159-1.716.214-2.364-.837-3.42-2.753-4.111-4.973-.07-3.285-1.334-6.245-2.69-9.13-.907-1.931-.425-3.19 1.09-4.472a20.955 20.955 0 0 1 8.36-4.471c4.587-1.211 9.24-2.344 13.429-4.737 1.04-.594 2.116-.575 2.513.662 1.297 4.04 3.308 7.918 3.137 11.634.035-4.01-1.706-8.276-3.368-12.555-.446-1.15-1.184-.879-2.064-.382-1.283.724-2.345 2.2-4.153 1.44.52-1.054 1.001-2.108 2.34-2.42a1.247 1.247 0 0 0 .876-1.673 46.443 46.443 0 0 0-1.487-5.865 21.95 21.95 0 0 1-1.744-6.5 1.158 1.158 0 0 0-.028-.233c-.149-.565-.394-1.087-1.093-.934-.527.115-1.03.306-.844 1.106.334 1.43-.362 2.052-1.768 1.993-.63-1.724 1.034-2.981.924-4.568-.16.41-.22.973-.926.822-.803-1.128-.33-2.235.09-3.32.192-.5.755-.963.733-1.423-.2-4.12 1.142-8.39-1.14-12.32-.305-.526-.525-1.102-1.014-2.143a11.997 11.997 0 0 1-.652 4.326 4.203 4.203 0 0 1-1.296 1.899.905.905 0 0 1-1.417-.164c1.025-1.99 1.232-4.226 1.904-6.322.15-.468-.053-.67-.496-.719-1.04-1.711-.959-2.079.614-2.772 1.344-.592 1.567-1.076.992-2.408a14.301 14.301 0 0 0-2.533-3.285c1.074-.763 2.002-.14 3.007.238.918.344 1.447 1.426 2.581 1.302.829.566.518 1.424.47 2.15a15.437 15.437 0 0 0 1.492 7.712c1.498 3.19.988 6.605.668 9.906-.216 2.22-.042 4.026 1.883 5.345a2.757 2.757 0 0 1 1.161 2.646 12.94 12.94 0 0 0 1.21 5.655 23.019 23.019 0 0 1 1.643 7.02c.14 1.818.199 1.875 1.982 1.727 1.35-.113 1.812.777 2.114 1.758 1.127 3.657 2.075 7.36 1.373 11.228a4.997 4.997 0 0 0 .198 2.503c.894 2.832.483 3.63-2.398 4.689ZM261.677 248.759a5.49 5.49 0 0 0 .232 1.145 4.922 4.922 0 0 1-.88 5.254 17.103 17.103 0 0 0-3.182 5.42c-.305 1.036-1.155.876-1.926.794-3.103-.329-6.22-.58-9.305-1.033a158.1 158.1 0 0 0-26.173-1.184c-.589.012-1.232.29-1.852-.225.347-1.076.661-2.189 1.065-3.267a3.907 3.907 0 0 0-.38-3.807c-1.509-2.103-.992-4.122.015-6.172.206-.42.485-.802.707-1.214.847-1.573.692-1.884-1.24-2.543l1.217-.613a1.603 1.603 0 0 1 1.625-.69c3.16.301 6.333.496 9.467 1.035a3.873 3.873 0 0 1 1.622.875c.238.485.457.98.715 1.454 1.183 2.175 1.86 2.34 3.96.979l.006.011c.552.63 1.062 1.302 1.664 1.88 1.853 1.775 2.624 1.795 4.247-.208.754-.932.75.122 1.1.206.333.242.287.535.115.846a2.739 2.739 0 0 0 1.122 1.447c2.402 2 3.615 1.862 5.637-.675.789.39.99 1.31 1.6 1.863 1.97 1.788 3.853 1.578 5.174-.704.539-.93.946-1.935 1.413-2.906 2.411-1.156 1.938.862 2.235 2.032ZM265.973 198.927a35.059 35.059 0 0 1 6.59-10.615c2.657-2.903 4.859-6.206 7.894-8.78a20.54 20.54 0 0 0 5.24-7.33c-.157-1.18.647-1.75 1.465-2.312 3.188-3.626 6.317-7.295 8.389-11.72a39.617 39.617 0 0 0 9.486 5.651 2.62 2.62 0 0 1 1.337.864 1.761 1.761 0 0 1-.205 1.568c-2.186 4.152-3.64 8.635-5.823 12.792a32.49 32.49 0 0 0-3.739 12.96c-.047.676.051 1.535-.798 1.774-.655.185-1.163-.36-1.607-.789a20.47 20.47 0 0 1-3.746-5.354 11.68 11.68 0 0 0-3.444-3.764c-1.085-.836-1.792-.712-2.343.554-.842 1.934-1.854 3.787-2.71 5.717-1.283 2.895-3.102 5.064-6.464 5.898a17.105 17.105 0 0 0-7.101 3.976 5.62 5.62 0 0 1-.89.76c-.805.454-1.664 1.737-2.549.646-.768-.947.152-1.861 1.018-2.496Z" class="colordf5c31 svgShape"/><path fill="#8082e3" d="M22.556 248.325a2.553 2.553 0 0 1-1.962-3.001 12.496 12.496 0 0 0 .038-2.566 5.494 5.494 0 0 1 2.892-5.861c.807-1.38 2.276-1.55 3.606-1.865a69.149 69.149 0 0 1 12.235-1.513c3.014-.163 6.011-.887 9.053-.426 1.567.566 3.03.065 4.493-.449 3.525-.052 7.052-.51 10.57.103.98 1.823.522 3.8.54 5.705a22.253 22.253 0 0 1-1.046 7.99 3.222 3.222 0 0 1-2.212.616c-3.52-.068-7.018.347-10.525.46-7.881.25-15.745.736-23.604 1.35-1.38.109-2.819.38-4.078-.543Z" class="color80aee3 svgShape"/><path fill="#9df1ab" d="M70.932 224.802c5.93.003 11.863.097 17.792-.01 10.687-.193 21.356.615 32.041.498 1.479-.016 2.919.402 4.416.38 3.112-.046 6.231.173 9.314-.436a22.57 22.57 0 0 1 1.468 9.738 27.468 27.468 0 0 0-7.084-1.335c-6.385-.606-12.792-.183-19.172-.524-11.702-.624-23.405-.113-35.106-.307-1.432-.306-1.134-1.522-1.096-2.406.092-2.175-.607-3.768-2.724-4.578a.73.73 0 0 1 .15-1.02ZM22.556 248.325c13.393-.865 26.783-1.815 40.21-2.017.116 4.803-.284 9.46-3.747 13.25q-17.233-.026-34.467-.056c-1.014-.002-2.029-.048-3.044-.073-1.483-3.103-1.009-6.156.235-9.188.263-.642.542-1.277.813-1.916Z" class="colord2f19d svgShape"/><path fill="#8082e3" d="M25.845 213.128c2.896-1.627 6.156-1.683 9.3-1.84 4.902-.243 9.825-.064 14.74-.064a2.062 2.062 0 0 1 1.33.345c1.09 1.95 3.056 2.676 4.939 3.527a1.104 1.104 0 0 1 .408.597c-.09 2.818-1.12 5.395-2.055 7.992a2.412 2.412 0 0 1-1.564 1.588c-3.416.505-6.85.188-10.274.23-4.676.056-9.355.039-14.032-.002-1.227-.01-2.542.122-3.402-1.091-1.34-1.087-.96-2.74-1.196-4.117-.44-2.575-.193-5.132 1.806-7.165Z" class="color80aee3 svgShape"/><path fill="#dc964d" d="M265.973 198.927c-.188.819-.94 1.448-.787 2.606a7.643 7.643 0 0 0 2.44-1.607 19.19 19.19 0 0 1 8.7-4.764c2.91-.699 3.984-3.04 5.136-5.318 1.052-2.081 1.93-4.249 2.92-6.363.668-1.428 1.207-1.463 2.457-.574a15.544 15.544 0 0 1 4.788 5.593 12.068 12.068 0 0 0 4.322 5.14 26.853 26.853 0 0 1 1.005-7.413 24.784 24.784 0 0 1 1.707-5.067c2.378-4.649 4.34-9.479 6.433-14.253a22.546 22.546 0 0 1 1.28-2.222 2.737 2.737 0 0 1 1.418.94c-1.165 2.636-2.32 5.276-3.498 7.906-1.532 3.417-3.142 6.8-4.609 10.244-1.323 3.108-1.657 6.457-2.058 9.774a6.36 6.36 0 0 1-.107 1.143c-.333 1.097-.85 1.392-1.904 1a6.086 6.086 0 0 1-2.735-2.125c-1.372-1.802-2.554-3.726-3.755-5.639-.25-.396-.52-.778-.772-1.172-.521-.81-1.245-1.666-2.139-1.605-.9.06-1.071 1.257-1.322 2.02a23.66 23.66 0 0 1-3.05 5.783 9.967 9.967 0 0 1-5.168 4.156 29.938 29.938 0 0 0-12.576 8.565c-4.318 4.7-5.874 10.528-7.452 16.399-.403 1.498-.654 3.038-.975 4.558l-.966-.508c.22-4.257 1.645-8.21 3.123-12.137a75.357 75.357 0 0 1 4.186-9.385 11.184 11.184 0 0 0 1.23-4.927 24.885 24.885 0 0 0-1.728-10.738c-1.41-3.48-1.506-7.286-2.49-10.886a29.032 29.032 0 0 0-5.325-10.303 12.05 12.05 0 0 0-6.474-3.972c-1.946-.539-3.95-.878-5.874-1.479-1.534-.478-3.165-.929-3.94-2.638a2.215 2.215 0 0 1-.055-1.99 10.984 10.984 0 0 1 3.488-4.027 61.444 61.444 0 0 1 9.27-5.844 31.237 31.237 0 0 0 3.692-2.447 2.21 2.21 0 0 0 .953-2.198l.482-.08.944.121c1.202 1.265.694 2.418-.263 3.507a21.07 21.07 0 0 1-5.079 3.733c-3.189 1.966-6.535 3.71-9.197 6.422-1.688 1.72-1.55 2.267.711 2.942a22.982 22.982 0 0 0 2.957.735c7.318 1.16 11.695 5.755 14.503 12.26a36.11 36.11 0 0 1 2.771 9.397 28.979 28.979 0 0 0 1.53 6.133 29.782 29.782 0 0 1 1.364 7.786 12.883 12.883 0 0 0-.4 1.532c-.092.658.053 1.231.888 1.286Z" class="colordcc44d svgShape"/><path fill="#9df1ab" d="M25.235 224.41a17.348 17.348 0 0 0 5.31.352q11.4.034 22.8.035c.415 1.96-.99 3.3-1.768 4.798a20.312 20.312 0 0 1-2.761 3.966c-5.033.365-10.074.639-15.095 1.125a33.601 33.601 0 0 0-10.198 2.211 50.39 50.39 0 0 1 .403-9.295 6.279 6.279 0 0 1 1.309-3.192Z" class="colord2f19d svgShape"/><path fill="#fe9526" d="M220.054 201.759a16.244 16.244 0 0 0-7.449-3.656 26.577 26.577 0 0 0-5.793-.595 12.021 12.021 0 0 0-6.053 1.45c1.382-3.42 2.734-6.859 5.717-9.294a4.096 4.096 0 0 1 4.581.449c3.957 2.893 8.202 3.903 12.998 2.377 1.644-.522 6.307 1.751 7.198 3.21a1.286 1.286 0 0 1-.095 1.328 76.948 76.948 0 0 1-3.91 7.43c-.813 1.248-1.664 1.366-2.896.511-1.472-1.022-2.846-2.167-4.298-3.21Z" class="colordf5c31 svgShape"/><path fill="#9c7750" d="M232.69 242.534c-3.464-.407-6.926-.83-10.393-1.208a21.462 21.462 0 0 0-2.322-.012c-2.845-.274-5.688-.546-8.55-.602-2.93-.057-3.535-.655-3.65-3.523-.034-.847.018-1.698.03-2.547a.754.754 0 0 1 .397-.21 7.23 7.23 0 0 1 .838-.046c-.207-.002-.415-.01-.622.001a.856.856 0 0 0-.614.255 4.541 4.541 0 0 1 .922-3.588c.937-1.392 2.348-1.253 3.763-1.029q4.458.707 8.918 1.397c.86.732 1.912.277 2.86.467.902.371 2.28.443 1.269 2.018-3.948.202-7.778-.793-11.386-.987 4.054.422 8.387 1.074 12.772 1.275a4.043 4.043 0 0 1 .63.41 4.067 4.067 0 0 0 2.79.46c.892.565.462 1.65.935 2.38l-.043.49c-.371.375-1.02.013-1.372.423.459-.422.932-.245 1.409.006l1.418 4.17Z" class="color9c7e50 svgShape"/><path fill="#dd974e" d="M220.054 201.759c2.243.596 3.82 2.307 5.825 3.51 2.314-2.779 3.615-6.097 5.186-9.207-1.293-.824-2.465-1.572-3.638-2.316a4.583 4.583 0 0 0-4.202-.491 12.04 12.04 0 0 1-10.684-1.495 6.664 6.664 0 0 1-.597-.363 6.907 6.907 0 0 0-5.468-1.733l1.933-1.908a9.847 9.847 0 0 1 4.6 2.151c2.905 2.16 6.097 3.19 9.623 2.002 2.837-.956 5-.071 6.969 1.869.278.273.569.534.837.816.717.753 1.186.484 1.557-.344a47.315 47.315 0 0 0 3.489-10.368 50.796 50.796 0 0 0 .984-8.073c.01-.354-.067-.793.736-1.022a12.07 12.07 0 0 1 .079 4.73 74.7 74.7 0 0 1-1.648 8.208 33.648 33.648 0 0 1-1.537 4.395c-2.361 5.35-5.111 10.51-7.776 15.711a5.331 5.331 0 0 1-.742.901 84.298 84.298 0 0 1-5.526-6.973Z" class="colorddc54e svgShape"/><path fill="#dc9851" d="M200.312 199.707a39.77 39.77 0 0 0 .76 6.433c.088.61.113 1.228.167 1.843a2.127 2.127 0 0 1-2.127-1.815c-.531-2.279-.782-4.605 1.2-6.461Z" class="colordcc451 svgShape"/><path fill="#bb9874" d="M296.922 155.769c-.556-.437-.372-.94-.15-1.464.724-1.712 1.346-3.475 2.186-5.127a3.119 3.119 0 0 0-.313-3.58c1.729 1.48 1.892 1.862 1.298 3.28a62.208 62.208 0 0 0-2.038 5.932 2.369 2.369 0 0 1-.983.959Z" class="colorbb8874 svgShape"/><path fill="#e29d55" d="M327.914 186.874c-.197 1.094-.821.41-1.145.195-1.363-.905-2.698-1.827-4.443-1.735.522-1.064 1.36-1.06 2.307-.681a5.35 5.35 0 0 0 1.902.708l-.003-.005a1.798 1.798 0 0 1 .38.486Z" class="colore2ca55 svgShape"/><path fill="#e7feeb" d="m348.586 248.312-1.38 1.805-.963-.941c.99.279 1.323-1.225 2.343-.864Z" class="colore7fef5 svgShape"/><path fill="#d1ae8a" d="M258.846 122.486a.784.784 0 0 1-.318.951.862.862 0 0 1 .318-.95Z" class="colord19e8a svgShape"/><path fill="#fdbf7d" d="M200.784 198.934q-.238.291-.475.584a.642.642 0 0 1 .475-.584ZM326.912 185.842l-.38-.486a.486.486 0 0 1 .38.486Z" class="colorfde77d svgShape"/><path fill="#9c7750" d="M202.708 267.968c4.364-.036 8.705-.78 13.075-.504 2.71.17 5.411.49 8.116.747.464.044.925.152 1.388.159 5.299.079 10.577.644 15.889.532a85.766 85.766 0 0 1 9.987.787c2.32.223 4.652.439 6.977.54 4.358.191 8.7.715 13.071.598-.306 3.057-.636 6.11-.903 9.17a21.48 21.48 0 0 0 .065 2.534c.954 1.194.889 2.689 1.212 4.07a13.952 13.952 0 0 0 2.666 5.01c.437.54 1.712 1.396-.048 2.016-11.836-.652-23.676-1.174-35.51-1.806-7.47-.399-14.952-.766-22.422-1.182-5.136-.285-10.29-.093-15.407-.67-1.024-.443-.622-1.191-.38-1.885.32-.918.787-1.779 1.07-2.709.34-1.225-.222-1.721-1.396-1.749-1.465-.034-2.933.039-4.394-.04-.878-.048-1.898.204-2.469-.819 2.535-.62 5.108-.15 7.662-.264 2.002-.09 2.4-.265 2.58-2.154a34.153 34.153 0 0 0-.553-11.737 4.373 4.373 0 0 0-.276-.644Z" class="color9c7e50 svgShape"/><path fill="#787878" d="M308.766 259.993c3.202-.025 6.405-.023 9.606-.09 1.055-.022 1.45.386 1.717 1.413a14.799 14.799 0 0 1 .253 5.351 70.59 70.59 0 0 0-.172 14.885 2.555 2.555 0 0 1-.247.875 2.324 2.324 0 0 1-1.9.746c-3.283.09-6.567.125-9.847-.025-.714-.033-1.636-.003-1.751-1.105a2.978 2.978 0 0 0 .816-2.124 40.804 40.804 0 0 1 1.038-7.834c.73-4.016.366-8.06.487-12.092Z" class="color787878 svgShape"/><path fill="#9c7750" d="M261.677 248.759c-.386-1.071-.653-2.274-2.235-2.031-.835-1.63-.272-3.385-.46-5.073l-.005-.005c-.773-.653-.382-1.542-.472-2.333a3.68 3.68 0 0 1 3.543.673 27.097 27.097 0 0 0 7.211.745c-2.359-.093-4.74.062-7.016-.85-.101-1.025.623-.797 1.217-.826a58.97 58.97 0 0 1 6.552.535c-3.83-.368-7.654-1.048-11.511-.284-.346-1.253-1.356-2.434-.41-3.825a6.304 6.304 0 0 1 3.24.055c2.344.695 4.805.446 7.187.895 1.68.317 3.411.348 5.11.58 2.536.346 3.822 1.471 3.458 4.763a17.163 17.163 0 0 1-1.114 4.532c-.759 1.884-1.308 2.353-3.279 2.348a40.923 40.923 0 0 1-6.026-.731c-.872-.133-1.841-.611-2.612.307a2.362 2.362 0 0 1-.346-.585.964.964 0 0 0-1.193-.795c-.74.093-.696.692-.748 1.222-.023.228-.06.455-.091.683Z" class="color9c7e50 svgShape"/><path fill="#ffc486" d="M306.425 282.043c.632.663 1.45.378 2.185.383 3.771.025 7.542.006 11.313.002.72.487.454 1.266.572 1.931.213.552-.268.686-.561.933l-1.009.052a13.05 13.05 0 0 1-4.597.71c-5.467-.026-10.935-.01-16.402-.01-8.118.003-16.22.397-24.32.884a7.208 7.208 0 0 1-2.547-.247c-.589-1.324-.354-2.785-.686-4.15a3.477 3.477 0 0 0 2.557.898c7.094-.034 14.2.226 21.277-.124 3.696-.183 7.459-.046 11.119-.872a9.457 9.457 0 0 0 1.099-.39Z" class="colorffad86 svgShape"/><path fill="#dd974e" d="M330.291 232.258c2.223-.41 3.785-2.03 5.83-3.342 2.334 5.337 4.673 10.466 3.787 16.42-.366-.834-.233-1.796-.568-2.654a16.18 16.18 0 0 1-.583-2.727c-.534-2.683-2.026-5.054-2.505-7.765-.132-.75-.715-.903-1.434-.44-4.338 2.797-9.346 3.851-14.215 5.111-3.418.885-5.997 2.802-8.556 4.967a1.696 1.696 0 0 0-.445 2.42 32.163 32.163 0 0 1 3.042 8.785c.09.481.189.917-.243 1.278-1.219-.424-1.184-1.603-1.543-2.545-.486-3.202-2.218-5.8-4.053-8.353a1.407 1.407 0 0 1 .837-1.745 7.695 7.695 0 0 0 2.94-2.245 12.952 12.952 0 0 1 7.08-3.785 85.24 85.24 0 0 0 10.63-3.38Z" class="colorddc54e svgShape"/><path fill="#fefffe" d="m313.328 251.604 1.072 2.707a12.212 12.212 0 0 0 3.677 4.73c.162.079.216.16.164.242-.053.083-.105.124-.16.124l-9.346.042c.171-3.899-.643-7.754-.513-11.65-.28-.561-.4-1.102.192-1.555 2.508.988 3.848 3.049 4.914 5.36Z" class="colorfffffe svgShape"/><path fill="#dd974e" d="M306.794 236.968c-1.18-.699-1.306-2.082-2.009-3.09a52.034 52.034 0 0 1-5.065-9.745 17.324 17.324 0 0 1-1.24-9.169 68.46 68.46 0 0 0 .388-6.995 11.397 11.397 0 0 1 .141-1.625.747.747 0 0 1 .457-.469.53.53 0 0 1 .649.49 12.172 12.172 0 0 1 .147 1.86c.012 2.894.09 5.79-.027 8.68a19.118 19.118 0 0 0 1.853 8.612c1.52 3.425 3.21 6.774 4.826 10.156.238.457.34.902-.12 1.295Z" class="colorddc54e svgShape"/><path fill="#df9a51" d="M311.346 200.706c-.92 2.819-2.611 5.322-3.526 8.156-.906 2.808-1.84 5.607-2.484 8.49-.653 2.929-1.262 5.868-1.954 9.1-1.024-5.706 4.008-22.266 7.964-25.746Z" class="colordfc751 svgShape"/><path fill="#df9a52" d="M295.26 271.214a61.685 61.685 0 0 0 3.142-21.558 2.17 2.17 0 0 1 1.391 2.229 30.757 30.757 0 0 1-.42 5.579 63.256 63.256 0 0 1-2.967 11.99 3.138 3.138 0 0 1-1.146 1.76Z" class="colordfc752 svgShape"/><path fill="#e19d55" d="M289.253 257.99c-.947-5.133 2.801-22.554 5.027-27.863a1.464 1.464 0 0 1 .208 1.495c-1.021 4.217-2.374 8.35-3.153 12.63-.83 4.558-1.548 9.13-2.082 13.739Z" class="colore1ca55 svgShape"/><path fill="#e4a058" d="M291.348 220.076a211.835 211.835 0 0 1 7.916-26.088c.765.533.381.954.249 1.353-1.695 5.103-3.45 10.187-5.071 15.313-.982 3.107-1.758 6.28-2.626 9.422-.156.208-.312.218-.468 0Z" class="colore4cc58 svgShape"/><path fill="#f5fef7" d="m306.794 236.968.12-1.296c1.8 1.594 2.06 3.887 2.729 5.996a4.611 4.611 0 0 0-.528 1.846c-.113.952.548 2.02-.432 2.84-.536.36-.412.93-.461 1.444-.87-1.535-.393-3.285-.783-4.922a44.345 44.345 0 0 1-.645-5.908Z" class="colorfefdf5 svgShape"/><path fill="#de9950" d="M306.638 194.396a5.653 5.653 0 0 1 3.612-5.906c1.757-.793 3.856-1.596 6.042.292-2.148.558-4.183.046-5.837 1.304a16.424 16.424 0 0 0-3.817 4.31Z" class="colordec650 svgShape"/><path fill="#e4a059" d="M279.607 221.945a51.328 51.328 0 0 1 2.393-8.27 116.372 116.372 0 0 1 4.574-11.736c.202-.409.432-.804.717-1.332.536.873.125 1.456-.144 2.052a168.418 168.418 0 0 0-6.748 18.149 7.422 7.422 0 0 0-.335 2.06c-.826.026-.758-.39-.457-.923Z" class="colore4cd59 svgShape"/><path fill="#e19c54" d="M264.857 222.34c-.491-4.975 1.057-13.725 2.777-15.432-.794 5.352-2.144 10.34-2.777 15.432Z" class="colore1c954 svgShape"/><path fill="#e09c54" d="M310.895 228.92c-1.454-3.43-.48-10.859 1.952-13.724-.16 2.716-1.244 4.784-1.402 7.031-.156 2.235-.429 4.47-.55 6.694Z" class="colore0c954 svgShape"/><path fill="#e19c54" d="M283.058 256.59c.076-6.01-.889-11.947-1.5-18.309 1.61 2.254 2.336 11.67 1.5 18.309ZM326.54 213.985c.848-.656.153-2.205 1.564-2.634.205 2.348-.954 4.299-1.56 6.38-1.47 1.915-2.17 4.27-3.576 6.226-.386.537-.606 1.195-1.525 1.57 1.348-2.683 2.582-5.142 3.818-7.599a9.813 9.813 0 0 0 1.28-3.943Z" class="colore1c954 svgShape"/><path fill="#e5a15a" d="M272.144 213.05a102.106 102.106 0 0 1 4.202-10.996c.17 1.241-2.395 8.743-3.755 11.473a1.156 1.156 0 0 1-.447-.478Z" class="colore5ce5a svgShape"/><path fill="#ba9670" d="M265.553 228.025a6.496 6.496 0 0 1-2.213 2.275c-1.326.851-1.988.49-2.467-1.24a7.856 7.856 0 0 0 2.808-1.034c.618-.297 1.248-.737 1.872-.001Z" class="colorba8470 svgShape"/><path fill="#e39f57" d="M323.253 193.8c.541-.215.291-1.07.94-1.189.448.09.452.45.375.728q-.93 3.362-1.916 6.708a1.316 1.316 0 0 1-.807.793l1.408-7.04Z" class="colore3cb57 svgShape"/><path fill="#e4a059" d="M325.602 226.853a13.11 13.11 0 0 1 2.173-5.428 10.014 10.014 0 0 1-2.173 5.428Z" class="colore4cc59 svgShape"/><path fill="#e4a059" d="M289.493 228.522c.737-1.648.452-3.567 1.373-5.166.155-.219.308-.229.459.005-.742 1.646-.45 3.567-1.376 5.164q-.23.34-.456-.003Z" class="colore4cd59 svgShape"/><path fill="#eeac67" d="M279.607 221.945a.973.973 0 0 0 .458.923 10.591 10.591 0 0 1-.924 3.062c-.375-1.274-.258-2.15.466-3.985Z" class="coloreed767 svgShape"/><path fill="#ecaa64" d="M289.917 230.382c-.734 1.005-.055 2.487-1.44 3.655.578-1.552.213-2.937.98-4.122.287.024.291.327.46.467Z" class="colorecd564 svgShape"/><path fill="#e4a059" d="m272.144 213.05.447.477-.516 2.794c-.148.19-.297.2-.445 0-.178-1.146.498-2.157.514-3.272Z" class="colore4cd59 svgShape"/><path fill="#ddab77" d="m261.331 235.54-3.241-.055c1.017-.752 2.17-.271 3.26-.357a3.388 3.388 0 0 0-.019.412Z" class="colorddbf77 svgShape"/><path fill="#e5a15a" d="M271.63 216.32q.223.002.446.001l-.69 1.695c-.282-.786-.306-1.277.244-1.695Z" class="colore5ce5a svgShape"/><path fill="#e4a059" d="M291.325 223.36q-.23 0-.459-.003c.072-.647-.214-1.386.48-1.873q.234-.339.468 0a3.523 3.523 0 0 0-.49 1.877ZM289.917 230.382l-.46-.467.036-1.393q.228 0 .456.003l-.032 1.857Z" class="colore4cd59 svgShape"/><path fill="#e4a058" d="M291.814 221.484h-.467v-1.408h.47Z" class="colore4cc58 svgShape"/><path fill="#e2e2e2" d="M349.586 297.95c.263-1.135-.96-1.75-.976-2.786 4.156-.503 8.346-.579 12.51-.965a65.36 65.36 0 0 0 9.638-1.15c.29-.15-.01-.557.072-.257a.324.324 0 0 1-.234.33 100.817 100.817 0 0 1-13.19 1.293c-3.081.168-6.154.896-9.259.252l-2.901-4.2c5.47-.776 10.984-1.256 16.436-2.167-3.602.626-7.237 1.06-10.874 1.421-2.13.212-4.254.97-6.426.268a44.31 44.31 0 0 0-4.841-2.684 6.248 6.248 0 0 1-2.22-1.586 35.152 35.152 0 0 1 7.229-.392c8.676-.016 17.353.025 26.03-.05a8.391 8.391 0 0 1 8.53 5.659 55.292 55.292 0 0 1 2.729 10.142c.305 1.482-.639 2.674-2.356 2.907-2.3.312-4.594.86-6.966.239a13.218 13.218 0 0 0-3.27-.132c-25.873-.025-51.75.138-77.62-.152-10.541-.119-21.093-.077-31.625-.46-17.267-.628-34.537-.449-51.795-.178-9.448.148-18.909-.137-28.341.384-5.29.292-10.59.36-15.878.791a68.267 68.267 0 0 1-10.977.501c-2.438-.193-4.802-.577-6.708-2.306a5.974 5.974 0 0 1 3.728-1.086c11.727-.537 23.31-2.417 34.957-3.697 6.562-.72 13.115-1.487 19.64-2.492 10.185.962 20.413.068 30.616.768 6.29.431 12.604.64 18.905 1.007 7.155.418 14.31.976 21.482.97 2.406-.003 4.856-.084 6.977-1.52 1.088-.758 2.276-.223 3.42-.263 8.579-.295 17.133.733 25.712.494 1.224-.034 2.539-.196 3.466.936.704 1.376 1.707 1.558 2.962.721 1.115-1.438 1.191-3.158 1.31-4.862.128-1.855.233-2.01 1.861-2.467 1.398-.392 2.623-.1 3.253 1.08a13.598 13.598 0 0 1 2.042 5.172c.128 1.388.11 3.048 1.779 3.804a5.325 5.325 0 0 0 3.26-2.33 14.22 14.22 0 0 0 .465-3.741c-.156-.49.062-.593.492-.479a24.511 24.511 0 0 0 2.657 5.385c.445.633.798 1.327 1.564 1.642a7.045 7.045 0 0 1 3.323.031c.722-.639.486-1.434.268-2.16a7.418 7.418 0 0 1-.332-2.058c-.198-.49-.42-.993.47-.933.509 1.567.738 3.285 2.312 4.277a2.531 2.531 0 0 0 3.33-1.494.986.986 0 0 0 .04-.447l.004-.007.915.428c1.21.234 2.292.249 2.405-1.402Z" class="colore2e2e2 svgShape"/><path fill="#e3e3e3" d="M59.019 259.559c2.09-3.45 2.774-7.322 3.33-11.222a11.823 11.823 0 0 1 .417-2.029c.27-4.487.842-8.961.525-13.47-.924-1.975-.185-3.931.165-5.855.17-.942 1.063-1.247 2.03-.967a6.31 6.31 0 0 0 5.394-.264c2.525-.28 2.933 1.025 3.21 2.988.192 1.353-.437 2.809.511 4.066-.07.14-.21.282-.203.417.224 4.306-.081 8.678 1.547 12.816a7.198 7.198 0 0 0 .538 3.201c1.292 3.557 2.128 7.334 4.734 10.29.854 2.018 2.597 3.258 4.115 4.694.208.97-.553 1.184-1.179 1.405a47.32 47.32 0 0 1-4.77 1.577 60.559 60.559 0 0 0 5.161-1.676c.75-.283 1.446-.58 2.125.103.899 1.778.614 3.67.44 5.518-.342 3.643-.792 7.276-1.19 10.915a8.209 8.209 0 0 0 .001.935c-.463 3.612-.698 7.248-1.85 10.76a5.131 5.131 0 0 1-4.762 3.76 76.51 76.51 0 0 1-10.709.456c-2.183-.022-4.31.574-6.507.446a20.903 20.903 0 0 1-3.457-.43 5.02 5.02 0 0 1-4.112-4.25 20.936 20.936 0 0 1-.597-4.849 26.054 26.054 0 0 0-.542-5.558c.12-3.738-.442-7.437-.646-11.156-.043-.774-.177-1.543-.269-2.314-.316-.443-.026-1.033-.355-1.473a.834.834 0 0 1 .003-.43c2.22-.455 4.212.67 6.329.953a61.192 61.192 0 0 0 7.93.439 40.504 40.504 0 0 0 6.442-.866c-5.082 1.399-11.207 1.173-17.296-.198-1.286-.29-3.117-.104-3.398-2.146 3.065-1.392 5.618-3.321 6.895-6.586Z" class="colore3e3e3 svgShape"/><path fill="#e2e2e2" d="M202.116 285.768a14.842 14.842 0 0 1-1.767 3.752 2.565 2.565 0 0 1-.422 1.541c-.784 1.45-.694 2.647.867 3.524a1.022 1.022 0 0 1 .578 1.353c-1.936.998-4.11.778-6.144.99-14.08 1.466-28.114 3.37-42.217 4.597-2.635.229-5.333 1.288-8.028.197a33.143 33.143 0 0 1-4.786-4.625c-.685-.994-.76-1.7.748-1.857 1.41-.147 2.786.195 4.192.168 11.281-.21 22.571-.098 33.803-.953a.42.42 0 0 1 .374.082c-.047-.13-.154-.15-.332-.098a.813.813 0 0 1-.234.002c-10.377.885-20.773.503-31.137.987a18.132 18.132 0 0 1-13.489-4.555 53.122 53.122 0 0 1-8.903-9.903c-1.052-1.517-.89-1.909.538-2.29a53.544 53.544 0 0 1 7.36 1.183 60.408 60.408 0 0 0 10.404 1.244c7.391.16 14.742.863 22.084 1.699 1.388.158 2.799.117 4.2.167a66.942 66.942 0 0 0 8.566.403c7.226.132 14.402 1.03 21.618 1.256a2.085 2.085 0 0 1 2.127 1.136Z" class="colore2e2e2 svgShape"/><path fill="#e2e2e2" d="M109.7 282.013a4.946 4.946 0 0 1 4.395-4.215c2.447-.427 4.924-.88 7.377.037 2.121 1.902 3.355 4.479 5.053 6.703a38.003 38.003 0 0 0 9.177 8.233c1.131.769 2.766 1.357 2.22 3.315-4.075.02-8.151.13-12.225-.087-2.227-.504-3.454-2.29-4.793-3.866-1.758-2.07-3.515-4.144-5.218-6.26-1.57-1.951-3.93-2.669-5.986-3.86Z" class="colore2e2e2 svgShape"/><path fill="#bebebe" d="M137.922 296.086c-.364-1.501-1.517-2.267-2.733-3.008-6.09-3.712-10.372-9.058-13.717-15.243a14.898 14.898 0 0 1 4.285.845c-.57.14-1.155.295-.617 1.058.626.889 1.31 1.738 1.925 2.634 3.365 4.901 7.925 8.487 12.808 11.734a3.701 3.701 0 0 0 2.205.556c9.43-.005 18.865.144 28.29-.088 3.091-.076 6.198-.325 9.304-.371.493-.186.567.04.45.456-3.703.459-7.441.41-11.152.866a49.456 49.456 0 0 1-7.26.085c-5.541-.143-11.048.708-16.596.5-1.665-.061-3.321-.726-4.996-.176l.08 1.163c-.855-.122-1.354-1.043-2.276-1.011Z" class="colorbebebe svgShape"/><path fill="#bdbdbd" d="M109.7 282.013c2.836.158 4.86 1.741 6.64 3.765 2.395 2.724 4.477 5.717 7.096 8.246.72.694 1.506 1.32 2.262 1.975a31.078 31.078 0 0 1-8.007-1.387 7.825 7.825 0 0 1-3.662-2.435c-2.243-2.71-4.502-5.415-4.748-9.16.074-.362.059-.761.42-1.004Z" class="colorbdbdbd svgShape"/><path fill="#bebfbe" d="M144.983 301.722a73.07 73.07 0 0 0 8.329-.818c1.693-.205 3.394-.353 5.09-.545 5.623-.64 11.253-1.209 16.878-1.82 3.465-.378 6.932-.816 10.415-1.088 3.86-.3 7.698-.877 11.55-1.297.927-.101 1.87-.073 2.805-.083.598-.006 1.09-.124 1.187-.83 1.333-.636 2.51-.61 3.361.794-3.666.689-7.372 1.068-11.076 1.493-4.546.523-9.062 1.357-13.618 1.733-3.41.28-6.778.867-10.194 1.105-3.243.226-6.46.826-9.689 1.25-1.772.233-3.566.293-5.34.455-2.78.253-5.595.226-8.378.6a1.464 1.464 0 0 1-1.32-.95Z" class="colorbfbebe svgShape"/><path fill="#fdc386" d="M202.116 285.768a4.514 4.514 0 0 0-1.318-.403c-2.802.044-5.574-.322-8.36-.498-3.558-.225-7.104-.628-10.655-.839-3.252-.193-6.492-.597-9.754-.637-.755-.01-1.573.194-2.224-.418q10.353-.038 20.707-.082c.928-.005 1.855-.08 2.783-.123 2.222.036 4.445.09 6.667.107 3.084.022 3.084.01 2.154 2.893Z" class="colorfdad86 svgShape"/><path fill="#c4c4c4" d="M86.67 265.633c-1.72-.182-3.144.801-4.719 1.191-1.035.256-2.016.865-3.348.51a27.404 27.404 0 0 1 4.421-1.68c.863-.34 1.835-.473 2.308-1.43a2.317 2.317 0 0 1 1.337 1.41Z" class="colorc4c4c4 svgShape"/><path fill="#df9a51" d="M223.546 153.655a.88.88 0 0 1 .514-1.04 6.7 6.7 0 0 1 9.019 1.504 21.035 21.035 0 0 1 4.226 10.452c.174 1.583.86 3.166.415 4.938a4.716 4.716 0 0 1-.818-2.618 25.198 25.198 0 0 0-3.918-11.085c-2.063-3.112-4.518-3.86-7.99-2.493-.418.165-.79.516-1.448.342Z" class="colordfc751 svgShape"/><path fill="#e39f58" d="M250.046 169.999c4.075 3.225 4.095 20.057 1.48 25.697 1.097-8.847 2.096-17.275-1.48-25.697Z" class="colore3cc58 svgShape"/><path fill="#e4a058" d="M240.296 196c-.285-4.313.186-8.302-.354-12.5 1.567 2.129 1.67 6.796.354 12.5Z" class="colore4cc58 svgShape"/><path fill="#e29e56" d="M223.313 171.748c.307-3.982-.544-7.836-1.699-12.148 1.688 1.322 1.669 2.751 1.88 4.049.407 2.504 1.16 5.01.231 7.554a2.32 2.32 0 0 1-.413.544Z" class="colore2ca56 svgShape"/><path fill="#de9951" d="M242.97 180.613c.423-3.782-.56-7.506-.397-11.296.81.041.888.53.89.988.016 3.41.008 6.82.008 10.23Z" class="colordec751 svgShape"/><path fill="#e5a159" d="M223.457 188.319a7.604 7.604 0 0 1-4.52-4.996c1.721 1.455 2.856 3.467 4.52 4.996Z" class="colore5cc59 svgShape"/><path fill="#e19d55" d="M218.839 179.23a28.506 28.506 0 0 0-.633-4.58.617.617 0 0 1 .323-.776.631.631 0 0 1 .851.537c.212 1.64.494 3.305-.541 4.818Z" class="colore1ca55 svgShape"/><path fill="#e19c54" d="M230.072 171.168a10.55 10.55 0 0 1-1.868 6.248 16.98 16.98 0 0 1 1.868-6.248Z" class="colore1c954 svgShape"/><path fill="#e29e56" d="m223.312 171.747-.172.618c-.43-.342-.035-.453.173-.617Z" class="colore2ca56 svgShape"/><path fill="#f3fcf5" d="M226.124 209.453a.712.712 0 0 1-.427-.606.592.592 0 0 1 .427.606Z" class="colorfcfaf3 svgShape"/><path fill="#fe9526" d="M265.485 196.109c-.828-5.28-3.023-10.207-3.8-15.533a27.122 27.122 0 0 0-7.188-14.909 14.664 14.664 0 0 0-8.134-4.273 48.268 48.268 0 0 1-4.965-1.25c-2.388-.726-2.498-1.32-.851-3.093 2.86-3.08 6.534-4.996 10.04-7.157a27.85 27.85 0 0 0 4.592-3.19c1.053-.985 1.609-2.071 1.009-3.51.927.669 1.836.032 2.753-.038q.225.117.173.268c-.037.106-.077.159-.122.159-.015 1.993-.04 3.986-.04 5.98a3.828 3.828 0 0 1-.491 2.426c-.365 2.823.32 5.749-.824 8.497a8.287 8.287 0 0 0 .08 1.153c.58 2.8 1.61 5.48 1.894 8.37a15.236 15.236 0 0 0 2.695 6.896c1.71 2.548 2.053 5.468 2.76 8.292.9 3.593.457 7.266.419 10.912Z" class="colordf5c31 svgShape"/><path fill="#b5926d" d="M280.987 135.168a11.505 11.505 0 0 1 2.498 12.5 21.58 21.58 0 0 0-1.527 7.263 3.972 3.972 0 0 0 .49 2.248 1.628 1.628 0 0 1-2.589.288c-.886-.69-2.134-.954-2.601-2.15a11.433 11.433 0 0 1-.48-2.971c.08-1.07-.538-1.395-1.481-1.134a19.781 19.781 0 0 0-4.373 1.913 1.784 1.784 0 0 1 1.004-1.436 13.905 13.905 0 0 1 3.383-1.545 4.507 4.507 0 0 0 3.282-2.652 39.555 39.555 0 0 0 2.145-4.651 7.47 7.47 0 0 0-.41-4.98c-.072-.213-.501-.306-.765-.454.14-.96.897-1.526 1.424-2.239Z" class="colorb5816d svgShape"/><path fill="#414142" d="M277.258 155.317a9.972 9.972 0 0 1 2.335 1.34 2.36 2.36 0 0 0 2.856.522c2.113.142 3.292 1.511 4.284 3.185.866 1.461 1.665 3.052 4.19 2.956a9.457 9.457 0 0 1-6.134.535c-1.986-.137-3.739-1.087-5.517-1.798-2.778-1.111-5.794-1.01-8.559-2.037l-.017-.015a2.116 2.116 0 0 0-.483-.387l-3.868-1.393c.083-.206.14-.435.18-.432a14.305 14.305 0 0 0 7.364-1.71 7.762 7.762 0 0 1 3.369-.766Z" class="color424141 svgShape"/><path fill="#4d4e7c" d="M270.713 160.02c4.917-.443 9.224 1.613 13.61 3.335.192.075.312.329.466.5-1.565 2.354-3.986 2.726-6.363 2.149-3.364-.817-6.348-2.44-7.713-5.984Z" class="color7c4e4d svgShape"/><path fill="#b5926d" d="M257.637 160.486a39.085 39.085 0 0 1-.045-5.952 4.193 4.193 0 0 1 .869-2.545c.387.085.767.184.915.618q2.104 6.18 4.194 12.364c.035.104-.112.27-.228.522-2.836-.605-4.333-2.732-5.705-5.007Z" class="colorb5816d svgShape"/><path fill="#434345" d="M280.987 135.168c.309 1.245-.591 1.721-1.424 2.24a12.13 12.13 0 0 1-2.995-.322c-2.653-.393-5.334-1.343-7.997.333 1.457-2.19 2.938-4.135 5.87-3.69 2.213.337 4.501.336 6.546 1.44Z" class="color454443 svgShape"/><path fill="#b7946e" d="m287.162 169.89-1.464 2.313c-1.115.148-1.965.944-3.006 1.248-5.622 1.641-13.32.574-17.642-6.154 1.775.617 2.87 1.815 4.12 2.722 5.174 3.754 11.523 4.275 17.038.065.288-.22.532-.641.954-.194Z" class="colorb7836e svgShape"/><path fill="#434345" d="M300.512 142.795a13.866 13.866 0 0 0-8.37-1.987c-.836.047-1.555-.158-1.753-1.15-.211-1.063.203-1.72 1.29-1.658a16.12 16.12 0 0 1 6.567 1.474 3.907 3.907 0 0 1 2.266 3.321Z" class="color454443 svgShape"/><path fill="#b5926d" d="M271.2 140.165c-.292-.47-1.216-.125-1.232-.859-.016-.66.663-.781 1.113-1.061a5.39 5.39 0 0 1 5.16-.235 2.304 2.304 0 0 1 1.474 3.082c-.137.425-.533.447-.87.561-.484.063-.97.097-1.454.158a12.284 12.284 0 0 1-3.185-.657 1.542 1.542 0 0 1-1.006-.989Z" class="colorb5816d svgShape"/><path fill="#b6936e" d="M289.501 143.748c.612-1.55 1.964-1.586 3.298-1.55 2.406.067 4.242 1.384 4.652 3.26-.525.472-1.228.426-1.844.633a14.766 14.766 0 0 1-3.761-.621l-.18-.019a8.457 8.457 0 0 1-2.165-1.703Z" class="colorb6826e svgShape"/><path fill="#b89570" d="M257.918 138.089c-.576-2.037-1.214-4.058-1.698-6.116-.209-.887.334-1.564 1.89-2.833-.86 2.128-.25 3.832.27 5.602a11.847 11.847 0 0 1 .052 3.22ZM289.88 157.517c-2.321-2.86-2.321-2.86-4.99-1.919a17.834 17.834 0 0 1 .978-2.351c.425-.718-.016-1.77.898-2.292 1.323.76.394 2.403 1.395 3.295a4.106 4.106 0 0 1 1.718 3.267Z" class="colorb88470 svgShape"/><path fill="#4b4b54" d="M291.846 145.47c1.352-.855 2.505-.101 3.683.454a.306.306 0 0 1 .178.272q-.005.175-.051.175c-2.382 1.293-2.886 1.174-3.81-.901Z" class="color544e4b svgShape"/><path fill="#4a4a4f" d="M272.198 140.824c1.133-.383 2.092.53 3.187.428a1.065 1.065 0 0 1 .32.535 1.033 1.033 0 0 1-.354.847 2.451 2.451 0 0 1-3.35-.947.599.599 0 0 1 .197-.863Z" class="color4f4c4a svgShape"/><path fill="#bb9873" d="m290.956 132-2.418 5.257a5.41 5.41 0 0 1 2.418-5.257Z" class="colorbb8673 svgShape"/><path fill="#bb9873" d="M258.992 143.583q-.035-.213-.05-.427a10.524 10.524 0 0 1 2.264-5.35 14.39 14.39 0 0 1-2.214 5.777Z" class="colorbb8773 svgShape"/><path fill="#bc9974" d="M303.775 142.715a5.195 5.195 0 0 1-1.35 4.764c.275-1.618 1.218-3.061 1.35-4.764Z" class="colorbc8974 svgShape"/><path fill="#e1ede3" d="M289.501 143.748c.926.309 1.904.55 2.165 1.703-1.458.368-1.852-.616-2.165-1.703Z" class="colorede5e1 svgShape"/><path fill="#ba9772" d="M283.577 130.94a4.947 4.947 0 0 1-.528 4.179c.12-1.706.475-2.927.528-4.18Z" class="colorba8572 svgShape"/><path fill="#e1ece3" d="m272.198 140.824-.197.863a1.767 1.767 0 0 1-1.193-.558c-.694-.66-.218-.838.393-.963a1.904 1.904 0 0 1 .997.658Z" class="colorece5e1 svgShape"/><path fill="#e1eae3" d="m275.351 142.634.172-.91c.319-.445.948-.035 1.273-.462l.92-.17c.42.43.12.634-.262.78-.697.265-1.401.509-2.103.762Z" class="coloreae6e1 svgShape"/><path fill="#f2f9f3" d="M295.656 146.371a.895.895 0 0 0-.126-.447c.5-.733 1.263-.382 1.921-.465-.246.996-1.016.964-1.795.912Z" class="colorf2f9f8 svgShape"/><path fill="#bf9b75" d="M266.812 140.263c-.433 1.002-.974.994-1.689 1.317.336-.941.888-.997 1.689-1.317Z" class="colorbf8975 svgShape"/><path fill="#b8956f" d="M259.565 135.681a2.968 2.968 0 0 1 .208 2.292c-.609-.6-.272-1.218-.208-2.292Z" class="colorb8836f svgShape"/><path fill="#bf9b74" d="M267.052 138.626a1.077 1.077 0 0 1-1.048.6c-.162 0-.204-.213-.09-.343.31-.35.652-.59 1.138-.257Z" class="colorbf8874 svgShape"/><path fill="#4d4e7c" d="M270.213 159.617a.504.504 0 0 1 .483.388l-.483-.388Z" class="color7c4e4d svgShape"/><path fill="#b89570" d="M251.6 247.358a37.438 37.438 0 0 1-.675-9.155c1.141 2.974 1.99 5.97.675 9.155Z" class="colorb88370 svgShape"/><path fill="#b7946e" d="M225.673 233.668c.049-1.003-.869-1.241-1.407-1.78a.97.97 0 0 0 .9-1.145c-.062-.536-.202-1.063-.278-1.598a.736.736 0 0 1 .588-.874c.343-.083.55.169.647.504a4.187 4.187 0 0 1 .397 1.332c-.138 1.625.563 3.03 1.032 4.499l-.487.016c-.402-.41-1.261-.15-1.392-.954Z" class="colorb7826e svgShape"/><path fill="#b6926d" d="m244.496 247.702-.114-.846a6.303 6.303 0 0 0-.636-3.31 5.432 5.432 0 0 1 .214-4.422 13.082 13.082 0 0 1 .536 8.578Z" class="colorb6836d svgShape"/><path fill="#ba9772" d="M237.364 244.967a52.547 52.547 0 0 1-1.42-9.042c.574-.08.838-.03.878.222.419 2.596.441 5.243 1.003 7.824a.987.987 0 0 1-.455 1.007Z" class="colorba8672 svgShape"/><path fill="#b7946f" d="M231.277 237.444a5.065 5.065 0 0 1-.935-2.378c-.588-1.766-.588-1.766-.027-3.629 1.476 1.916.827 4.03.962 6.007Z" class="colorb7836f svgShape"/><path fill="#bb9772" d="M232.414 231.434c.528-1.524.993-1.816 3.06-1.898-.29.744-1.082.608-1.575.944-.476.325-.755 1.001-1.485.954Z" class="colorbb8572 svgShape"/><path fill="#ba9772" d="M237.544 229.363a2.318 2.318 0 0 1 2.83-.625l-2.532 1.128Z" class="colorba8672 svgShape"/><path fill="#bf9c77" d="M249.452 228.319c.912-1.014 1.617-1.396 2.759-1.008-.684.916-1.513.947-2.759 1.008Z" class="colorbf8a77 svgShape"/><path fill="#ba9670" d="M246.688 227.795c-.938.333-1.906.136-2.814.519.807-1.088 1.856-.64 2.814-.52Z" class="colorba8470 svgShape"/><path fill="#bf9b76" d="M249.062 247.318c-1.117-.36-1.865-.517-2.355-1.856.948.64 1.687.81 2.355 1.856Z" class="colorbf8976 svgShape"/><path fill="#bd9972" d="M239.467 243.23c.972-.242 1.552.275 2.717.625-1.288.152-2.053.385-2.717-.625Z" class="colorbd8572 svgShape"/><path fill="#c09c76" d="M256.856 247.765c-.06.41-.381.43-.686.427-.3-.001-.673-.005-.67-.425.002-.412.369-.429.672-.43.306-.003.63.01.684.428Z" class="colorc08976 svgShape"/><path fill="#c09c75" d="M234.42 242.195c.287.05.685.102.713.57.005.087-.315.274-.485.274-.34 0-.804.047-.786-.5.008-.22.242-.334.558-.344Z" class="colorc08875 svgShape"/><path fill="#7e5a33" d="M231.27 238.364h-1.754a2.201 2.201 0 0 1 1.719-.43.9.9 0 0 1 .036.43Z" class="color7e5933 svgShape"/><path fill="#eea961" d="M48.816 233.561a2.258 2.258 0 0 1 .777-2.083 25.353 25.353 0 0 0 3.753-6.681 36.72 36.72 0 0 0 2.816-9.297 11.157 11.157 0 0 1 .293-1.58c-.225.476-.176 1.085-.667 1.434a9.96 9.96 0 0 1-3.327-1.476 2.489 2.489 0 0 1-1.247-2.308c1.36-2.866 1.993-3.196 5.052-2.336 2.672.751 5.314 1.606 7.97 2.415a55.665 55.665 0 0 0 7.659 2.756c.589.203 1.19.374 1.769.6.371.146.75.438.748.829a9.156 9.156 0 0 1-1.108 4.24c-.513.976-1.513.974-2.47.943-1.896.474-3.88-.116-5.765.483-1.544.132-3.12.563-4.55-.448.04-1.934 1.081-3.671 1.094-5.283.068-.636-.459-.454-.147-.473.091-.005.134.059.117.191a14.575 14.575 0 0 1-1.284 4.916c-.503 1.506-1.162 2.95-1.755 4.42-.923 1.625-1.62 3.369-2.595 4.967a8.832 8.832 0 0 1-3.377 3.456c-1.188.871-2.407 1.362-3.756.315Z" class="coloree6261 svgShape"/><path fill="#e2e2e2" d="M271.059 286.681c1.82-.776 3.787-.632 5.689-.851 1.39-.16 2.813-.013 4.218-.083 11.71-.579 23.429-.505 35.147-.446.938.004 1.876.028 2.813.043-2.047 1.489-4.243 2.812-5.576 5.083a2.413 2.413 0 0 1-1.764.444c-10.022-.68-20.054-1.007-28.169-.899 7.598-.246 17.104.39 26.617.74a4.989 4.989 0 0 1 2.903.681 8.063 8.063 0 0 0 1.857 5.168.433.433 0 0 1-.283.664c-9.59.038-19.159-.778-28.752-.754-1.514.004-3.077-.197-4.62-.216-2.309-.441-4.656-.815-6.115-3a12.54 12.54 0 0 1-3.965-6.574Z" class="colore2e2e2 svgShape"/><path fill="#c2c4c2" d="M312.937 291.393c-11.603-.893-23.234-1.023-34.845-.938-.051-.893.375-.917.751-.918 5.613-.006 11.246-.294 16.83.103 3.815.271 7.614.194 11.416.364 2.09.094 4.146.7 6.262.423l-.414.966Z" class="colorc4c2c2 svgShape"/><path fill="#c1c3c1" d="M348.147 294.667c3.81-.118 7.6-.496 11.397-.811 2.247-.186 4.49-.525 6.743-.555 1.624-.021 3.178-.907 5.043-.315a4.426 4.426 0 0 1-3.594 1.126c-3.204.028-6.37.495-9.557.668-3.19.173-6.375.357-9.57.384Z" class="colorc3c1c1 svgShape"/><path fill="#c9ccca" d="M344.382 289.989c3.819.027 7.542-.848 11.32-1.193 1.992-.181 3.937-.862 6.331-.612-1.813 1.427-3.77.912-5.454 1.203a62.487 62.487 0 0 1-5.767.694c-1.852.143-3.697.417-5.566.386a.876.876 0 0 1-.864-.478Z" class="colorccc9c9 svgShape"/><path fill="#b79470" d="M314.782 297.022a1.238 1.238 0 0 0 .012-.461c.873-1.12 1.657-1.196 2.402-.12a13.246 13.246 0 0 1 .971 2.069c-1.158 1.746-1.492 1.79-2.949.393-.293-.592-.084-1.301-.436-1.88Z" class="colorb78370 svgShape"/><path fill="#ba9772" d="M346.263 298.93a2.94 2.94 0 0 1-1.397-2.042 48.958 48.958 0 0 1-.999-3.562c-.264-1.134-1.29-1.827-1.805-3.037 1.969.962 3.945 5.193 4.203 8.634ZM346.223 299.377c-.31 2.59-1.19 2.984-3.331 1.493.475-2.19.617-2.254 3.33-1.493Z" class="colorba8572 svgShape"/><path fill="#b79470" d="M340.174 301.745a3.123 3.123 0 0 1-3.323-.03 1.928 1.928 0 0 1 1.56-2.255c.848-.172 1.431.647 1.763 2.285Z" class="colorb78370 svgShape"/><path fill="#b89775" d="M331.672 298.908c-.691 2.407-1.231 2.793-3.259 2.329.445-2.565 1.07-3.012 3.26-2.33Z" class="colorb88775 svgShape"/><path fill="#b99977" d="M349.586 297.95c.513.798.584 1.683-.257 2.167-.824.475-1.548-.164-2.148-.765.625-1.722.838-1.846 2.405-1.403Z" class="colorb98977 svgShape"/><path fill="#bf9b75" d="M331.575 284.16c-2.076.341-3.793-.59-5.805-.262 1.363-1.143 3.36-1.025 5.805.262Z" class="colorbf8975 svgShape"/><path fill="#bb9873" d="M338.504 290.468a8.928 8.928 0 0 1 1.393 4.375 5.687 5.687 0 0 1-1.393-4.375Z" class="colorbb8673 svgShape"/><path fill="#c39e77" d="m319.934 285.292.56-.932a2.776 2.776 0 0 1 2.56-.27 7.355 7.355 0 0 1-3.12 1.202Z" class="colorc38b77 svgShape"/><path fill="#bf9b76" d="M334.887 291.92a2.217 2.217 0 0 1 2.885.125 3.227 3.227 0 0 1-2.885-.125Z" class="colorbf8a76 svgShape"/><path fill="#be9a75" d="M326.835 292.015c.402-.895 1.108-1.172 2.251-1.003a2.86 2.86 0 0 1-2.251 1.003Z" class="colorbe8875 svgShape"/><path fill="#ba9874" d="M331.505 288.846c1.016.674.483 1.634.645 2.425a3.347 3.347 0 0 1-.645-2.425Z" class="colorba8774 svgShape"/><path fill="#bcd8c1" d="m332.63 294.687-.492.478c-.663-.717-.442-1.547-.353-2.507a2.064 2.064 0 0 1 .845 2.03Z" class="colord8c4bc svgShape"/><path fill="#c09d78" d="M333.714 286.52c.757-.93 1.302-.825 1.962-.173-.658.583-1.203.326-1.962.174Z" class="colorc08c78 svgShape"/><path fill="#c29f79" d="M341.05 292.716c.19-.588.625-.352.934-.358.374-.008.846.063.675.604-.109.343-.52.276-.808.175a6.054 6.054 0 0 1-.802-.42Z" class="colorc28d79 svgShape"/><path fill="#bb9771" d="M326.937 286.427a2.14 2.14 0 0 1 2.22-1.02 3.359 3.359 0 0 1-2.22 1.02Z" class="colorbb8571 svgShape"/><path fill="#c4d7c7" d="M340.58 296.594c-.381.197-.411.572-.47.933-.608-.592-.464-1.27-.342-2.018.607.228.672.682.813 1.085Z" class="colord7cac4 svgShape"/><path fill="#f9dfc3" d="M318.082 259.407a3.315 3.315 0 0 0-.005-.367l1.787-.013c-.467.724-1.166.361-1.782.38Z" class="colorf9eec3 svgShape"/><path fill="#eeaa62" d="M70.88 225.752c-.119.435-.172 1.066-.64 1.121-1.597.19-3.25.816-4.763-.327a4.767 4.767 0 0 1-.427-1.906 2.764 2.764 0 0 1 .54-1.895 7.668 7.668 0 0 1 5.13-.26l.212 2.316-.052.951Z" class="coloree6362 svgShape"/><path fill="#b8834a" d="M70.72 222.484c-1.656.769-3.422.256-5.127.44-1.057-.483-.31-1.326-.4-2.001a8.349 8.349 0 0 1 5.64.094l-.114 1.467Z" class="colorb84a4a svgShape"/><path fill="#bfc0bf" d="M52.124 266.145a2.691 2.691 0 0 0 2.105 1.291 45.565 45.565 0 0 0 13.865 1.391 48.219 48.219 0 0 0 4.819-.748 2.983 2.983 0 0 1 1.927.097 25.932 25.932 0 0 1-7.997 1.618 40.38 40.38 0 0 1-14.726-1.83c-.215-.607-.987-1.216.007-1.819ZM52.114 268.393a1.433 1.433 0 0 1 .355 1.473 1.507 1.507 0 0 1-.355-1.473Z" class="colorc0bfbf svgShape"/><path fill="#9df0ab" d="M65.466 224.79a3.765 3.765 0 0 1 .013 1.757c-1.13-.589-1.69.005-1.663 1.026.046 1.787-.417 3.504-.525 5.264-3.555.617-7.147.253-10.72.408 2.435-2.455 3.85-5.575 5.55-8.51a8.515 8.515 0 0 1 7.345.055Z" class="colord2f09d svgShape"/><path fill="#bf864a" d="M55.788 215.354a2.375 2.375 0 0 1 .73-1.956 1.577 1.577 0 0 1-.356 2.101.656.656 0 0 1-.374-.145Z" class="colorbf4b4a svgShape"/><path fill="#3c8348" d="M225.673 233.668c.476.3 1.085.406 1.392.954a72.477 72.477 0 0 1-7.347-.793c-1.986-.266-3.989-.404-5.982-.613-.492-.052-1.098.195-1.4-.41.077-.476.398-.47.696-.419 2.433.416 4.884.64 7.342.853a27.23 27.23 0 0 0 5.3.428Z" class="color83653c svgShape"/><path fill="#3a8146" d="M222.856 237.66a52.144 52.144 0 0 1-10.88-1.304 42.104 42.104 0 0 1 10.88 1.303Z" class="color81633a svgShape"/><path fill="#835f3a" d="M224.551 239.485c1.51-.508 2.63.542 3.904.49a4.311 4.311 0 0 1-3.904-.49Z" class="color83623a svgShape"/><path fill="#7e5a34" d="M207.804 234.642c.533-.668 1.19-.543 1.892-.115l-1.891.115Z" class="color7e5c34 svgShape"/><path fill="#41874d" d="M216.578 234.974c-.057.132-.086.339-.18.374-.096.037-.256-.093-.389-.15.057-.131.085-.338.179-.374.097-.037.257.092.39.15Z" class="color876c41 svgShape"/><path fill="#7b5731" d="M213.352 239.055c.347-.27.885-.346 1.009-.025.138.36-.381.246-.625.248-.125.001-.25-.14-.384-.223Z" class="color7b5831 svgShape"/><path fill="#33753e" d="M227.39 237.14c.059-.023.125-.076.173-.063.188.048.209.151.051.25a.216.216 0 0 1-.184-.035c-.033-.023-.027-.1-.04-.152Z" class="color755a33 svgShape"/><path fill="#4e4e4e" d="M275.024 293.256a17.455 17.455 0 0 0 5.514 2.38c.686.658 2.416-.48 2.396 1.392a2.75 2.75 0 0 1-2.475 1.453 61.024 61.024 0 0 1-10.534.248c-12.406-.635-24.808-1.345-37.212-2.012-1.404-.076-2.812-.085-4.219-.086-7.97-.007-15.941.046-23.896-.596a18.915 18.915 0 0 0-3.36-.793 10.702 10.702 0 0 1-1.262-.546c-1.342-.79-1.564-1.384-1.02-2.835a5.497 5.497 0 0 1 1.393-2.34 94.74 94.74 0 0 1 10.543.115c3.961.459 7.933.176 11.894.686a69.32 69.32 0 0 0 9.091.515c4.848-.021 9.669.416 14.49.68 3.114.17 6.237.155 9.34.403 5.671.456 11.358.552 17.033.9a17.629 17.629 0 0 1 2.284.436Z" class="color4e4e4e svgShape"/><path fill="#357941" d="M264.606 273.568a4.396 4.396 0 0 1-1.58 1.693 62.11 62.11 0 0 1-21.608 10.29 74.249 74.249 0 0 1-11.506 1.705c-5.404.412-10.878.368-16.187 1.742a6.107 6.107 0 0 1-1.322.012 1.641 1.641 0 0 1 1.298-.875 76.453 76.453 0 0 1 11.31-1.444c7.441-.511 14.888-.891 22.004-3.577a70.17 70.17 0 0 0 14.972-8.088 5.881 5.881 0 0 1 2.613-1.464Z" class="color795c35 svgShape"/><path fill="#33773f" d="M233.161 272.624c-1.77 1.926-4.132 3.004-6.323 4.296-4.293 2.529-8.728 4.812-12.973 7.43a31.131 31.131 0 0 0-3.96 2.87 7.714 7.714 0 0 1-2.565 1.607c1.01-1.989 2.795-2.738 4.137-3.913 2.478-2.17 5.506-3.52 8.363-5.087 4.097-2.249 8.226-4.437 12.227-6.859a4.652 4.652 0 0 1 1.102-.336Z" class="color775b33 svgShape"/><path fill="#397e45" d="M254.287 271.382c-5.2 6.577-12.05 10.11-20.197 11.305 3.534-1.574 7.421-2.249 10.828-4.18a61.062 61.062 0 0 0 9.369-7.125Z" class="color7e6139 svgShape"/><path fill="#377c43" d="M238.332 274.04a4.956 4.956 0 0 1-2.347 1.83 92.45 92.45 0 0 1-9.69 4.588 4.047 4.047 0 0 1-3.072.47c.746-.692 1.683-.69 2.447-1.048 3.793-1.777 7.785-3.133 11.348-5.397a5.94 5.94 0 0 1 1.305-.454Z" class="color7c6037 svgShape"/><path fill="#387d44" d="M206.591 280.614c1.3-3.614 4.096-5.937 6.915-8.243-2.309 2.751-4.939 5.232-6.915 8.243Z" class="color7d6138 svgShape"/><path fill="#3b8147" d="M264.736 278.123c-.85 2.7-5.306 6.238-8.604 6.969a32.26 32.26 0 0 0 8.604-6.97Z" class="color81643b svgShape"/><path fill="#3b8147" d="M219.583 273.975a13.143 13.143 0 0 1 6.874-4.486l-6.874 4.486Z" class="color81633b svgShape"/><path fill="#377c43" d="M238.323 274.03a2.736 2.736 0 0 1 .389-.552c.21-.182.488-.471.711-.039.034.066-.249.355-.432.455a2.362 2.362 0 0 1-.659.147Z" class="color7c6037 svgShape"/><path fill="#357941" d="m265.075 273.1.19-.194c-.011.04-.01.096-.037.117a.64.64 0 0 1-.16.07Z" class="color795c35 svgShape"/><path fill="#357941" d="m264.6 273.562.475-.463-.006-.006-.463.475Z" class="color795c35 svgShape"/><path fill="#33773f" d="m233.169 272.632.188-.198c-.011.04-.01.097-.035.118a.645.645 0 0 1-.16.072Z" class="color775b33 svgShape"/><path fill="#397e45" d="m254.28 271.22.107-.203.094.092-.201.111z" class="color7e6139 svgShape"/><path fill="#85623d" d="M261.77 240.273c-.97-.72-2.284-.27-3.265-.956l-.004-.007c.09-.499.3-.899.878-.913a19.443 19.443 0 0 1 2.344-.004c3.09.3 6.177.642 9.263.982.242.027.37.236.385.704-1.73-.57-3.492-.142-5.25-.59a4.464 4.464 0 0 0-3.83.261.613.613 0 0 1-.52.523Z" class="color85673d svgShape"/><path fill="#387e44" d="m261.77 240.273.521-.523c2.547 1.02 5.388-.023 8.372 1.105a3.657 3.657 0 0 1-2.297.314c-2.204-.245-4.452-.2-6.595-.896Z" class="color7e6138 svgShape"/><path fill="#3b8347" d="M270.66 244.682c-2.901.428-5.641-.32-8.413-.833 2.785.577 5.712-.31 8.412.833Z" class="color83643b svgShape"/><path fill="#41874d" d="M272.76 246.225c-.706.751-1.459.65-2.413.313.802-1.046 1.649-.475 2.413-.313ZM258.977 241.65a2.757 2.757 0 0 1 .104-.437.598.598 0 0 1 .91-.318.413.413 0 0 1 .155.366c-.095.351-.413.368-.713.384-.15.007-.301.007-.452.01Z" class="color876b41 svgShape"/><path fill="#fbbf7f" d="M308.683 246.355c.07-.959-.264-1.978.432-2.841.223.458.867.16 1.112.685 1.133 2.428 3.008 4.54 3.102 7.404l-4.646-5.248Z" class="colorfbe77f svgShape"/><path fill="#bfc0bf" d="M204.872 300.022c2.462-.245 4.456-.605 6.452-.616 10.08-.056 20.174-.364 30.234.083 9.134.407 18.271-.106 27.374.459 6.011.372 12.02-.01 17.999.451 3.326.257 6.66.251 10.43.45a4.718 4.718 0 0 1-2.611.381c-6.72.014-13.452.277-20.156-.052-16.392-.805-32.79-.047-49.174-.497-4.2-.115-8.405-.272-12.61-.367-2.038-.046-4 .716-6.046.455a2.308 2.308 0 0 1-1.892-.747Z" class="colorc0bfbf svgShape"/><path fill="#c4c6c4" d="M282.934 297.028c-.394-1.162-1.729-.703-2.396-1.392 5.197.544 10.44.134 15.618.568 3.977.333 7.934.166 11.892.378 2.246.12 4.466.65 6.734.44.68.503.475 1.212.436 1.882a2.002 2.002 0 0 0-2.302-1.42 20.06 20.06 0 0 1-2.334.024c-8.247.203-16.471-.81-24.719-.47-.982.04-1.956-.762-2.93-.01Z" class="colorc6c4c4 svgShape"/><path fill="#caccca" d="M356.13 300.401a113.105 113.105 0 0 1 13.724-1.307c-.905.732-10.923 1.762-13.724 1.307Z" class="colorcccaca svgShape"/><path fill="#bfc1bf" d="M147.416 288.679c.753-1.116 1.767-1.034 2.744-1.034q7.962-.007 15.925-.007c5.62 0 11.243.078 16.862-.02 4.363-.075 8.663.859 13.178.428-.558.826-1.177.52-1.689.524-3.903.029-7.806.011-11.71.021-10.914.029-21.819.74-32.737.442a4.377 4.377 0 0 1-2.573-.354Z" class="colorc1bfbf svgShape"/><path fill="#cfcfcf" d="m180.121 294.659-.449-.456c.377-.427.87-.73 1.165-.055.202.462-.384.45-.716.51Z" class="colorcfcfcf svgShape"/><path fill="#d1ae8a" d="M276.796 141.262c-.334.403-.822.384-1.273.463l-.138-.473 1.41.01Z" class="colord19e8a svgShape"/><path fill="#595bd4" d="m65.466 224.79-7.346-.055A10.9 10.9 0 0 1 60 220.588c.18-.194.347-.192.497.036 1.538.547 3.126.296 4.698.3.762.54-.026 1.39.399 2l-.127 1.866Z" class="color82ace1 svgShape"/><path fill="#ba8349" d="m60.496 220.624-.497-.036a26.533 26.533 0 0 1 1.721-5.67c.087 2.012.326 4.048-1.224 5.706Z" class="colorba4949 svgShape"/></g></g></svg>