<svg xmlns="http://www.w3.org/2000/svg" id="laundry" enable-background="new 0 0 512 512" viewBox="0 0 512 512"><rect width="30" height="67" x="128" y="440" fill="#323d2c"/><rect width="30" height="67" x="354" y="440" fill="#323d2c"/><rect width="30" height="45" x="128" y="440" fill="#1c2617"/><rect width="30" height="45" x="354" y="440" fill="#1c2617"/><path fill="#ebeadf" d="M80,432.1V37.9C80,19.7,94.7,5,112.9,5h286.2C417.3,5,432,19.7,432,37.9v394.2 c0,18.2-14.7,32.9-32.9,32.9H112.9C94.7,465,80,450.3,80,432.1z"/><path fill="#c4c1ab" d="M106,432.1V60.9c0-18.2,14.7-32.9,32.9-32.9h260.2c18.2,0,32.9,14.7,32.9,32.9v371.2 c0,18.2-14.7,32.9-32.9,32.9H138.9C120.7,465,106,450.3,106,432.1z"/><path fill="#c4c1ab" d="M80,432.1V415h352v17.1c0,18.2-14.7,32.9-32.9,32.9H112.9C94.7,465,80,450.3,80,432.1z"/><path fill="#747e6c" d="M106,432.1V415h326v17.1c0,18.2-14.7,32.9-32.9,32.9H138.9C120.7,465,106,450.3,106,432.1z"/><path fill="#323d2c" d="M256,145.7c-68.7,0-124.3,55.7-124.3,124.3S187.3,394.3,256,394.3S380.3,338.7,380.3,270 S324.7,145.7,256,145.7z M256,362c-50.8,0-92-41.2-92-92c0-50.8,41.2-92,92-92s92,41.2,92,92C348,320.8,306.8,362,256,362z"/><path fill="#1c2617" d="M374.6,232.6c-4.7-14.9-26.7-11.3-26.6,4.3c0,0.3,0,0.5,0,0.8c0,5.9-0.4,11.7-1.2,17.4 c0.8,4.9,1.2,9.9,1.2,14.9c0,50.8-41.2,92-92,92c-5.1,0-10.1-0.4-14.9-1.2c-5.7,0.8-11.5,1.2-17.4,1.2c-0.3,0-0.5,0-0.8,0 c-15.6-0.1-19.2,21.9-4.3,26.6c12,3.8,24.8,5.8,38.1,5.7c67.8-0.4,123.3-55.8,123.7-123.7C380.4,257.4,378.4,244.6,374.6,232.6z"/><path fill="#485143" d="M143.3,281.7c0-68.5,55.9-124.3,124.3-124.3c0.6,0,1.2,0,1.8,0c6.9,0.1,7.6-10.1,0.7-10.9 c-5.1-0.6-10.4-0.9-15.7-0.8c-67.2,0.8-122,55.6-122.8,122.8c-0.1,5.3,0.2,10.6,0.8,15.7c0.8,6.9,11,6.3,10.9-0.7 C143.3,282.9,143.3,282.3,143.3,281.7z"/><path fill="#83bc8b" d="M348,270c0,50.8-41.2,92-92,92s-92-41.2-92-92c0-3.7,0.2-7.4,0.7-11h10.8 c7.4,0,14.4,2.9,19.6,8.1l6.7,6.7c5.2,5.2,12.3,8.1,19.6,8.1c3.7,0,7.3-0.7,10.6-2.1c3.3-1.4,6.4-3.4,9-6l6.7-6.7 c5.2-5.2,12.3-8.1,19.6-8.1c3.7,0,7.3,0.7,10.6,2.1c3.3,1.4,6.4,3.4,9,6l6.7,6.7c5.2,5.2,12.3,8.1,19.6,8.1 c3.7,0,7.3-0.7,10.6-2.1c3.3-1.4,6.4-3.4,9-6l14.3-14.3C347.8,263,348,266.5,348,270z"/><path fill="#57a362" d="M324.1,321.9c-3.3,1.4-6.9,2.1-10.6,2.1c-7.4,0-14.4-2.9-19.6-8.1l-6.7-6.7 c-2.6-2.6-5.7-4.6-9-6c-3.3-1.4-6.9-2.1-10.6-2.1c-7.4,0-14.4,2.9-19.6,8.1l-6.7,6.7c-2.6,2.6-5.7,4.6-9,6 c-3.3,1.4-6.9,2.1-10.6,2.1c-7.4,0-14.4-2.9-19.6-8.1l-6.7-6.7c-5.2-5.2-12.3-8.1-19.6-8.1h-6.1c12.7,35.6,46.7,61,86.6,61 c36.4,0,67.8-21.1,82.7-51.7l-5.6,5.6C330.5,318.5,327.5,320.5,324.1,321.9z"/><path fill="#747e6c" d="M347.4,259.6l-14.3,14.3c-2.6,2.6-5.7,4.6-9,6c-3.3,1.4-6.9,2.1-10.6,2.1 c-7.4,0-14.4-2.9-19.6-8.1l-6.7-6.7c-2.6-2.6-5.7-4.6-9-6c-3.3-1.4-6.9-2.1-10.6-2.1c-7.4,0-14.4,2.9-19.6,8.1l-6.7,6.7 c-2.6,2.6-5.7,4.6-9,6c-3.3,1.4-6.9,2.1-10.6,2.1c-7.4,0-14.4-2.9-19.6-8.1l-6.7-6.7c-5.2-5.2-12.3-8.1-19.6-8.1h-10.8 c5.4-45.6,44.3-81,91.3-81C303.3,178,342.2,213.7,347.4,259.6z"/><circle cx="267" cy="70" r="25" fill="#747e6c"/><circle cx="256" cy="59" r="25" fill="#83bc8b"/><path fill="#747e6c" d="M139.3,84H167c13.8,0,25-11.2,25-25v0h-77.7v0C114.3,72.8,125.5,84,139.3,84z"/><rect width="94.6" height="25" x="312.7" y="46.5" fill="#323d2c"/><rect width="352" height="10" x="80" y="108" fill="#747e6c"/><rect width="10" height="17" x="251" y="34" fill="#57a362"/><path fill="#1c2617" d="M364,242h-30.7c-7.4,0-13.3,6-13.3,13.3v29.3c0,7.4,6,13.3,13.3,13.3H364V242z"/></svg>