<svg xmlns="http://www.w3.org/2000/svg" id="Shirt" viewBox="0 0 64 64"><path fill="#fe9526" d="M34.14,45.69H10.81v2.73A1.61,1.61,0,0,0,12.42,50H32.53a1.61,1.61,0,0,0,1.61-1.61Z" class="colordd5790 svgShape"/><path fill="#167ffc" d="M17.87,12.87a10.15,10.15,0,0,0-3.14.46l-5,2.31A7.34,7.34,0,0,0,5.61,21L4,29.69a1.37,1.37,0,0,0,1.11,1.59l5.68,1V45.69H34.14V32.31l5.69-1a1.36,1.36,0,0,0,1.1-1.59L39.35,21a7.35,7.35,0,0,0-4.15-5.35l-5-2.31a10.23,10.23,0,0,0-3.15-.46Z" class="colorf1f4f6 svgShape"/><path fill="#53d86a" d="M17.87,12.87s-.6,0-1.31.07a5.94,5.94,0,0,0,11.83,0c-.71-.07-1.31-.07-1.31-.07Z" class="colordfeaef svgShape"/><path fill="#167ffc" d="M34.14,35.23V48.42A1.61,1.61,0,0,1,32.53,50H27l-.68,5a1.12,1.12,0,0,0,.86,1.25l12.3,2.91a1,1,0,0,0,1.22-.76l1.84-8a.61.61,0,0,1,1.2,0l1.85,8a1,1,0,0,0,1.22.76l12.3-2.91A1.13,1.13,0,0,0,60,55.06L58.44,43.58C54,41,52.92,35.23,52.92,35.23H46V38.4a4.44,4.44,0,0,1-1.76,3.54.66.66,0,0,1-1.06-.52V35.23Z" class="colorf1f4f6 svgShape"/><path fill="#595bd4" d="M38.45,31.53l-4.31.78v2.92H57.32V32.55a1,1,0,0,0-1-1Z" class="color738b95 svgShape"/><path fill="#53d86a" d="M46,35.23V38.4a4.44,4.44,0,0,1-1.76,3.54.66.66,0,0,1-1.06-.52V35.23Z" class="colordfeaef svgShape"/><path fill="#595bd4" d="M52.92,35.23s1,5.77,5.52,8.35l-1.12-8.35Z" class="color738b95 svgShape"/><path fill="#53d86a" d="M33.52 22.66a1.18 1.18 0 0 0-.79.37l-.61.53a5.79 5.79 0 0 0-2 4.36V45.69h4v-22c0-.65-.25-1-.62-1zM10.19 22.66A1.18 1.18 0 0 0 9.4 23l-.61.53a5.79 5.79 0 0 0-2 4.36v3.67l4 .72V23.67C10.81 23 10.56 22.67 10.19 22.66z" class="colordfeaef svgShape"/><path fill="#da8b38" d="M30.14,45.69v2.73A1.61,1.61,0,0,1,28.53,50h4a1.61,1.61,0,0,0,1.61-1.61V45.69Z" class="colorda387d svgShape"/><path fill="#616281" d="M52.29,31.53a1,1,0,0,1,1,1v2.68h4V32.55a1,1,0,0,0-1-1Z" class="color617881 svgShape"/><path fill="#53d86a" d="M53.63,37.53l.81,6L56,55.06a1.13,1.13,0,0,1-.86,1.25l-9.48,2.24a1,1,0,0,0,1.18.67l12.3-2.91A1.13,1.13,0,0,0,60,55.06L58.44,43.58A11.76,11.76,0,0,1,53.63,37.53Z" class="colordfeaef svgShape"/><path fill="#323358" d="M22.48,9.66a1,1,0,0,0-1,1v1.21H17.87a10.17,10.17,0,0,0-3.56.55l-5,2.31a8.37,8.37,0,0,0-4.71,6.08L3,29.51a2.36,2.36,0,0,0,.38,1.77,2.41,2.41,0,0,0,1.53,1l4.86.87V48.42A2.62,2.62,0,0,0,12.42,51H25.87l-.52,3.9A2.13,2.13,0,0,0,27,57.29l12.3,2.9a2,2,0,0,0,1.53-.25,2,2,0,0,0,.9-1.26l1.46-6.37,1.47,6.37a2,2,0,0,0,.9,1.26,2,2,0,0,0,1.06.31,1.84,1.84,0,0,0,.47-.06l12.3-2.9A2.13,2.13,0,0,0,61,54.93L58.32,35.16V32.55a2,2,0,0,0-2-2h-.93L44.53,26.94v-.61a4,4,0,0,0-1-7.78,3.9,3.9,0,0,0-2.79,1.16,1,1,0,0,0,0,1.41,1,1,0,0,0,1.42,0,2,2,0,0,1,3.34,1.38,2,2,0,0,1-2,2,1,1,0,0,0-1,1v1.48l-1,.34-1.18-6.47a8.37,8.37,0,0,0-4.71-6.08l-5-2.31a10.54,10.54,0,0,0-3.57-.55h-3.6v-.34a4,4,0,1,0-3.8-6.62,1,1,0,0,0,1.41,1.42,2,2,0,1,1,1.39,3.33ZM11.81,48.42V46.69H33.14v1.73a.61.61,0,0,1-.61.61H12.42A.62.62,0,0,1,11.81,48.42ZM58.9,55.34,46.58,58.23l-1.84-8a1.61,1.61,0,0,0-3.15,0l-1.86,8-12.3-2.91a.12.12,0,0,1-.1-.14L27.89,51h4.64a2.61,2.61,0,0,0,2.61-2.61V36.23h7v8.46a1,1,0,0,0,2,0V43.24l.67-.5A5.46,5.46,0,0,0,47,38.4V36.23h5.15c.46,1.71,1.88,5.67,5.38,7.94L59,55.2A.13.13,0,0,1,58.9,55.34ZM45,36.23V38.4a3.44,3.44,0,0,1-.82,2.22V36.23Zm11.46,0,.68,5.05a13,13,0,0,1-2.9-5.05Zm-.12-3.68v1.68H35.14V33.14l3.4-.61ZM43.53,28.72,49,30.53H41.87a2.19,2.19,0,0,0,0-1l0-.24ZM34.78,16.54a6.38,6.38,0,0,1,3.58,4.63L40,29.87a.42.42,0,0,1-.06.28.47.47,0,0,1-.24.15l-4.51.81V25.22a1,1,0,0,0-2,0V44.69H11.81V25.22a1,1,0,0,0-2,0v5.89L5.3,30.3a.39.39,0,0,1-.23-.15A.33.33,0,0,1,5,29.87l1.58-8.7a6.38,6.38,0,0,1,3.58-4.63l5-2.3a2.71,2.71,0,0,1,.6-.18,6.93,6.93,0,0,0,13.45,0,2.82,2.82,0,0,1,.61.18Zm-7.6-2.67a4.93,4.93,0,0,1-9.4,0Z" class="color323c58 svgShape"/></svg>