<svg xmlns="http://www.w3.org/2000/svg" id="washing-machine" viewBox="0 0 64 64"><path fill="#4D4D4D" d="M14 58h2v3h-2zM48 58h2v3h-2z"/><path fill="#CCC" d="M8 5a2 2 0 0 1 2-2h44a2 2 0 0 1 2 2v52a2 2 0 0 1-2 2H10a2 2 0 0 1-2-2V5z"/><circle cx="32" cy="37" r="18" fill="#4D4D4D"/><circle cx="32" cy="37" r="14" fill="#FFF"/><path fill="#3EBBDD" d="M56 5a2 2 0 0 0-2-2H10a2 2 0 0 0-2 2v10h48V5z"/><path fill="#FFF" d="M12 7h16v4H12zM35 6h18v2H35zM35 10h2v2h-2zM39 10h2v2h-2zM43 10h2v2h-2zM47 10h2v2h-2zM51 10h2v2h-2zM44.318 30.342C41.95 25.97 37.322 23 32 23c-5.767 0-10.716 3.489-12.861 8.469 9.238 3.428 16.035-4.13 25.179-1.127z"/><path fill="#3EBBDD" d="M19.139 31.469A13.963 13.963 0 0 0 18 37c0 7.732 6.268 14 14 14s14-6.268 14-14c0-2.41-.61-4.677-1.682-6.658-9.144-3.003-15.941 4.555-25.179 1.127z"/><path fill="#FFF" d="M39 41c-2.206 0-4-1.794-4-4s1.794-4 4-4 4 1.794 4 4-1.794 4-4 4zm0-6c-1.103 0-2 .897-2 2s.897 2 2 2 2-.897 2-2-.897-2-2-2zM27 42c-1.654 0-3-1.346-3-3s1.346-3 3-3 3 1.346 3 3-1.346 3-3 3zm0-4a1.001 1.001 0 0 0 0 2 1.001 1.001 0 0 0 0-2zM33 48c-1.654 0-3-1.346-3-3s1.346-3 3-3 3 1.346 3 3-1.346 3-3 3zm0-4a1.001 1.001 0 0 0 0 2 1.001 1.001 0 0 0 0-2z"/></svg>