<svg xmlns="http://www.w3.org/2000/svg" fill-rule="evenodd" stroke-linejoin="round" stroke-miterlimit="2" clip-rule="evenodd" viewBox="0 0 64 64" id="work-time"><path fill="#9eaeb2" d="M23.991,47.272l-0.951,0.844c-0.328,0.292 -0.428,0.763 -0.246,1.162c0.535,1.177 1.182,2.299 1.934,3.35c0.255,0.357 0.713,0.506 1.129,0.368l2.208,-0.735c0.519,0.596 1.078,1.155 1.674,1.674c-0,-0 -0.735,2.208 -0.735,2.208c-0.138,0.416 0.011,0.874 0.368,1.129c1.051,0.752 2.173,1.399 3.35,1.934c0.399,0.182 0.87,0.082 1.162,-0.246l1.545,-1.74c0.747,0.256 1.511,0.461 2.286,0.612c-0,0 0.468,2.28 0.468,2.28c0.088,0.43 0.446,0.752 0.883,0.794c1.286,0.125 2.582,0.125 3.868,0c0.437,-0.042 0.795,-0.364 0.883,-0.794l0.468,-2.28c0.775,-0.151 1.539,-0.356 2.286,-0.612c-0,-0 1.545,1.74 1.545,1.74c0.292,0.328 0.763,0.428 1.162,0.246c1.177,-0.535 2.299,-1.182 3.35,-1.934c0.357,-0.255 0.506,-0.713 0.368,-1.129l-0.735,-2.208c0.596,-0.519 1.155,-1.078 1.674,-1.674c-0,0 2.208,0.735 2.208,0.735c0.416,0.138 0.874,-0.011 1.129,-0.368c0.752,-1.051 1.399,-2.173 1.934,-3.35c0.182,-0.399 0.082,-0.87 -0.246,-1.162l-1.74,-1.545c0.256,-0.747 0.461,-1.511 0.612,-2.286c0,0 2.28,-0.468 2.28,-0.468c0.43,-0.088 0.752,-0.446 0.794,-0.883c0.125,-1.286 0.125,-2.582 0,-3.868c-0.042,-0.437 -0.364,-0.795 -0.794,-0.883l-2.28,-0.468c-0.151,-0.775 -0.356,-1.539 -0.612,-2.286c-0,0 1.74,-1.545 1.74,-1.545c0.328,-0.292 0.428,-0.763 0.246,-1.162c-0.535,-1.177 -1.182,-2.299 -1.934,-3.35c-0.255,-0.357 -0.713,-0.506 -1.129,-0.368l-2.208,0.735c-0.519,-0.596 -1.078,-1.155 -1.674,-1.674c0,0 0.735,-2.208 0.735,-2.208c0.138,-0.416 -0.011,-0.874 -0.368,-1.129c-1.051,-0.752 -2.173,-1.399 -3.35,-1.934c-0.399,-0.182 -0.87,-0.082 -1.162,0.246l-0.687,0.774l-23.438,23.458Z"></path><path fill="#d0d8da" d="M43.174,30.902l5.69,-5.695l0.247,-0.276c0.602,0.304 1.186,0.641 1.749,1.01c0,-0 -0.711,2.14 -0.711,2.14c-0.132,0.397 -0.003,0.834 0.323,1.095c0.868,0.696 1.656,1.484 2.352,2.352c0.261,0.326 0.698,0.455 1.095,0.323l2.14,-0.711c0.369,0.563 0.706,1.147 1.01,1.748c-0,0.001 -1.686,1.498 -1.686,1.498c-0.313,0.278 -0.42,0.721 -0.268,1.111c0.404,1.035 0.693,2.113 0.861,3.211c0.063,0.414 0.377,0.744 0.787,0.829l2.209,0.453c0.037,0.673 0.037,1.347 -0,2.019c-0,0.001 -2.209,0.454 -2.209,0.454c-0.41,0.085 -0.724,0.415 -0.787,0.829c-0.168,1.098 -0.457,2.176 -0.861,3.211c-0.152,0.39 -0.045,0.833 0.268,1.111l1.686,1.497c-0.304,0.602 -0.641,1.186 -1.01,1.749c0,0 -2.14,-0.711 -2.14,-0.711c-0.397,-0.132 -0.834,-0.003 -1.095,0.323c-0.696,0.868 -1.484,1.656 -2.352,2.352c-0.326,0.261 -0.455,0.698 -0.323,1.095l0.711,2.14c-0.563,0.369 -1.147,0.706 -1.748,1.01c-0.001,-0 -1.498,-1.686 -1.498,-1.686c-0.278,-0.313 -0.721,-0.42 -1.111,-0.268c-1.035,0.404 -2.113,0.693 -3.211,0.861c-0.414,0.063 -0.744,0.377 -0.829,0.787l-0.453,2.209c-0.673,0.037 -1.347,0.037 -2.019,-0c-0.001,-0 -0.454,-2.209 -0.454,-2.209c-0.085,-0.41 -0.415,-0.724 -0.829,-0.787c-1.098,-0.168 -2.176,-0.457 -3.211,-0.861c-0.39,-0.152 -0.833,-0.045 -1.111,0.268l-1.497,1.686c-0.602,-0.304 -1.186,-0.641 -1.749,-1.01c-0,0 0.711,-2.14 0.711,-2.14c0.132,-0.397 0.003,-0.834 -0.323,-1.095c-0.868,-0.696 -1.656,-1.484 -2.352,-2.352c-0.261,-0.326 -0.698,-0.455 -1.095,-0.323l-2.14,0.711c-0.369,-0.563 -0.706,-1.147 -1.01,-1.748c0,-0.001 0.41,-0.364 0.41,-0.364c0.015,-0.013 0.029,-0.027 0.043,-0.041l5.49,-5.494c0.987,4.71 5.168,8.251 10.169,8.251c5.735,0 10.391,-4.655 10.391,-10.39c-0,-5.005 -3.546,-9.188 -8.26,-10.172Z"></path><circle cx="26" cy="26" r="23" fill="#ef5350"></circle><circle cx="26" cy="26" r="18.012" fill="#f1c237"></circle><path fill="#fff" d="M27,10.019l0,1.342c0,0.552 -0.448,1 -1,1c-0.552,0 -1,-0.448 -1,-1l0,-1.342c-8.042,0.496 -14.485,6.939 -14.981,14.981l1.342,-0c0.552,-0 1,0.448 1,1c0,0.552 -0.448,1 -1,1l-1.342,-0c0.496,8.042 6.939,14.485 14.981,14.981l0,-1.342c0,-0.552 0.448,-1 1,-1c0.552,-0 1,0.448 1,1l0,1.342c8.042,-0.496 14.485,-6.939 14.981,-14.981l-1.342,-0c-0.552,-0 -1,-0.448 -1,-1c-0,-0.552 0.448,-1 1,-1l1.342,-0c-0.496,-8.042 -6.939,-14.485 -14.981,-14.981Z"></path><path fill="#f1c237" d="M27.293,23.293c-0.391,-0.188 -0.83,-0.293 -1.293,-0.293c-0.516,-0 -1.001,0.13 -1.425,0.36l-3.868,-3.868c-0.39,-0.39 -1.024,-0.39 -1.414,-0c-0.39,0.39 -0.39,1.024 -0,1.414l3.938,3.938c-0.149,0.356 -0.231,0.747 -0.231,1.156c-0,1.656 1.344,3 3,3c1.656,0 3,-1.344 3,-3c-0,-0.463 -0.105,-0.902 -0.293,-1.293l6.368,-6.368c0.39,-0.39 0.39,-1.023 -0,-1.414c-0.391,-0.39 -1.024,-0.39 -1.414,0l-6.368,6.368Zm-1.293,1.707c0.552,-0 1,0.448 1,1c-0,0.552 -0.448,1 -1,1c-0.552,0 -1,-0.448 -1,-1c-0,-0.552 0.448,-1 1,-1Z"></path></svg>